<?xml version="1.0" standalone="no"?>
<!DOCTYPE svg PUBLIC "-//W3C//DTD SVG 20010904//EN"
 "http://www.w3.org/TR/2001/REC-SVG-20010904/DTD/svg10.dtd">
<svg version="1.0" xmlns="http://www.w3.org/2000/svg"
 width="666.000000pt" height="1024.000000pt" viewBox="0 0 666.000000 1024.000000"
 preserveAspectRatio="xMidYMid meet">

<g transform="translate(0.000000,1024.000000) scale(0.100000,-0.100000)"
fill="#000000" stroke="none">
<path d="M3172 9576 l3 -143 -95 -17 c-52 -9 -104 -17 -114 -19 -16 -1 -31 18
-70 90 -28 51 -54 95 -58 99 -5 5 -143 -62 -166 -81 -1 -1 20 -42 47 -91 41
-75 47 -91 34 -99 -8 -5 -47 -31 -86 -56 -90 -59 -194 -153 -254 -232 l-46
-60 -20 29 c-27 38 -185 196 -216 215 l-23 15 76 91 c42 50 76 93 76 96 0 7
-132 117 -141 117 -3 0 -46 -47 -94 -105 -55 -66 -94 -104 -102 -101 -18 7
-110 32 -145 40 l-27 6 -3 148 -3 147 -25 3 c-13 2 -56 1 -95 -3 l-72 -6 5
-135 c4 -108 2 -134 -9 -138 -16 -4 -184 -28 -213 -30 -13 -1 -30 21 -62 79
-24 44 -45 85 -48 90 -2 6 -42 -10 -89 -34 l-86 -44 44 -82 c25 -45 45 -84 45
-87 0 -3 -28 -22 -62 -43 -131 -81 -273 -244 -338 -389 -56 -124 -75 -216 -74
-371 1 -111 6 -157 23 -220 29 -107 98 -246 160 -323 l51 -63 -29 -37 c-65
-84 -78 -190 -33 -283 28 -58 119 -159 190 -211 76 -57 188 -106 290 -128 255
-56 716 -46 960 20 l41 10 -13 38 c-15 42 -16 42 -123 18 -178 -39 -612 -46
-795 -12 -172 32 -307 102 -403 208 -128 142 -117 254 34 350 53 33 91 35 211
12 100 -19 159 -44 273 -117 48 -32 109 -68 135 -81 112 -56 315 -95 538 -103
l161 -6 -6 42 -6 42 -125 5 c-69 3 -147 8 -175 12 l-50 8 45 23 c82 43 164
104 234 175 38 39 71 66 73 61 13 -39 101 -154 173 -225 123 -123 231 -192
394 -249 213 -75 442 -80 657 -15 l87 26 9 59 c5 33 6 59 2 59 -3 0 -36 -11
-72 -24 -119 -45 -215 -59 -371 -53 -156 5 -237 24 -362 81 -265 123 -462 368
-521 651 -8 38 -14 120 -14 180 0 61 6 142 14 180 70 332 318 599 652 701 83
26 103 28 265 28 154 1 185 -2 254 -22 347 -100 601 -367 670 -704 20 -99 20
-267 0 -366 -18 -90 -63 -207 -105 -275 -16 -26 -29 -49 -29 -52 0 -3 27 -5
61 -5 l60 0 44 93 c129 272 125 599 -11 870 -80 161 -215 312 -356 402 -43 26
-78 51 -78 54 0 3 29 41 65 83 36 42 65 78 65 80 0 5 -137 118 -143 118 -3 0
-100 -112 -155 -180 l-18 -22 -96 18 -95 19 -7 89 c-3 49 -6 115 -6 148 l0 58
-96 0 -95 0 3 -144z m-1452 -297 c217 -34 422 -161 548 -337 l45 -64 -23 -51
c-32 -74 -69 -199 -81 -281 -17 -109 -5 -293 26 -401 14 -49 29 -100 32 -113
5 -19 -11 -39 -93 -120 -79 -77 -117 -107 -189 -144 -49 -25 -115 -54 -146
-63 -54 -15 -59 -15 -111 5 -30 11 -100 49 -157 85 -56 36 -124 76 -151 90
-117 59 -340 88 -407 52 l-31 -17 -30 34 c-81 92 -139 204 -173 331 -29 111
-29 279 0 390 108 408 518 672 941 604z"/>
<path d="M1625 8827 c-102 -34 -189 -107 -236 -197 -21 -39 -24 -59 -24 -150
0 -94 3 -110 27 -155 37 -71 102 -133 178 -169 59 -28 74 -31 160 -31 86 0
101 3 160 31 129 62 203 171 208 309 5 105 -20 174 -89 250 -73 79 -153 116
-261 121 -53 3 -98 -1 -123 -9z m247 -45 c62 -27 138 -99 168 -159 32 -64 39
-180 15 -252 -22 -68 -100 -152 -173 -188 -50 -25 -68 -28 -152 -28 -84 0
-102 3 -152 28 -199 98 -254 348 -112 506 82 92 156 123 279 118 54 -2 95 -10
127 -25z"/>
<path d="M1667 8626 c-71 -26 -107 -76 -107 -148 0 -147 195 -205 293 -88 70
82 23 209 -88 239 -49 13 -51 13 -98 -3z"/>
<path d="M2758 8781 c-105 -34 -181 -100 -235 -203 -25 -48 -28 -62 -28 -158
0 -99 2 -110 32 -171 40 -81 102 -140 191 -182 60 -29 76 -32 157 -31 127 1
189 26 276 113 102 102 138 222 105 351 -31 121 -100 206 -212 261 -82 41
-199 49 -286 20z m268 -45 c77 -35 146 -103 180 -180 23 -50 28 -75 28 -142 0
-72 -4 -89 -32 -147 -98 -198 -344 -264 -529 -142 -60 40 -115 110 -138 174
-22 64 -19 178 5 245 37 98 132 183 239 213 71 20 176 11 247 -21z"/>
<path d="M2824 8591 c-79 -19 -134 -81 -142 -160 -13 -138 135 -233 265 -170
109 53 127 220 32 292 -29 21 -101 49 -119 46 -3 -1 -19 -4 -36 -8z"/>
<path d="M910 7361 c-8 -4 -63 -34 -122 -65 l-107 -57 16 -34 c9 -19 20 -35
25 -35 4 0 32 12 62 27 l55 27 67 -67 c149 -147 374 -279 615 -360 13 -4 17
-32 22 -164 4 -87 7 -224 7 -304 l0 -147 38 -15 c117 -47 363 -56 512 -19 47
11 97 25 113 31 l27 11 0 240 0 240 30 0 30 0 0 -132 c0 -73 3 -197 7 -275 l6
-142 81 -23 c74 -21 99 -23 281 -22 112 1 237 8 285 15 l85 14 -4 320 -4 320
114 32 c189 52 346 112 513 197 88 45 161 86 163 91 2 6 -11 21 -28 34 l-32
24 -106 -56 c-263 -138 -569 -234 -906 -284 -93 -14 -184 -18 -400 -18 -314 0
-420 12 -651 70 -299 76 -575 219 -734 380 l-53 54 26 12 c31 14 32 20 12 59
-16 32 -21 34 -45 21z m865 -632 c50 -10 154 -27 233 -36 l142 -17 -2 -216 -3
-215 -80 -17 c-93 -19 -260 -21 -355 -4 l-65 11 -6 60 c-4 33 -7 152 -8 264
l-1 203 28 -7 c15 -4 68 -15 117 -26z m1178 -166 c4 -91 7 -214 7 -273 l0
-108 -27 -5 c-16 -3 -95 -11 -178 -18 -132 -11 -162 -10 -250 5 -55 9 -103 20
-107 24 -7 7 -13 471 -6 477 2 1 77 8 168 15 129 9 289 30 381 49 3 0 9 -74
12 -166z"/>
<path d="M5585 6151 c-50 -22 -157 -136 -189 -199 -49 -99 -79 -221 -115 -472
-51 -353 -53 -451 -8 -518 30 -47 105 -94 183 -117 l51 -15 6 -378 c4 -207 3
-380 -1 -384 -6 -6 -817 -298 -828 -298 -2 0 -4 81 -4 180 0 146 -3 180 -14
180 -7 0 -28 3 -45 6 l-31 7 0 -187 0 -186 -39 0 c-21 0 -94 4 -162 10 -68 5
-513 39 -989 75 -475 36 -868 69 -872 73 -3 4 -18 37 -32 74 l-25 67 27 21
c15 12 66 59 114 106 48 46 89 84 92 84 3 0 19 -26 35 -57 38 -75 89 -146 126
-175 23 -18 41 -23 80 -22 58 2 175 42 260 89 61 34 145 100 145 114 0 4 -17
13 -37 20 -37 12 -40 11 -107 -33 -70 -46 -218 -106 -261 -106 -30 0 -82 60
-130 151 -20 38 -40 69 -44 69 -5 0 -66 -9 -137 -20 -263 -40 -394 -24 -547
70 -54 33 -101 60 -105 60 -4 -1 -27 -28 -52 -62 -25 -33 -78 -95 -117 -136
l-73 -75 -22 19 c-11 10 -36 52 -55 91 l-33 72 -35 -16 c-19 -9 -35 -22 -35
-28 0 -25 70 -153 99 -183 75 -75 155 -29 321 182 l54 69 13 -78 c12 -70 36
-128 82 -200 11 -17 9 -29 -11 -80 l-24 -60 -45 3 c-24 2 -369 28 -767 58
-398 29 -725 54 -728 54 -2 0 -4 72 -4 159 0 171 0 171 -54 171 -23 0 -23 -2
-29 -147 -3 -82 -6 -349 -7 -595 l-1 -448 23 0 c51 -1 379 -38 385 -44 4 -3
10 -31 14 -62 6 -44 20 -75 67 -147 70 -108 79 -136 53 -168 -17 -21 -21 -22
-50 -9 -39 16 -91 78 -119 142 -18 42 -25 48 -51 48 -52 0 -63 -51 -37 -160
15 -65 25 -85 100 -204 31 -49 56 -99 56 -112 0 -28 -53 -71 -98 -80 -65 -13
-74 -4 -130 125 -47 108 -53 130 -59 216 l-6 95 -44 0 c-42 0 -43 -1 -43 -33
0 -84 23 -203 50 -265 17 -35 30 -69 30 -75 0 -15 -66 -1 -104 22 -52 32 -94
154 -100 286 l-4 100 -41 3 -41 3 0 -93 c0 -51 5 -110 9 -132 l9 -38 -29 28
c-16 15 -34 44 -39 64 -13 47 -4 455 11 517 7 26 25 77 41 113 l30 65 -8 516
-7 516 -44 22 -44 21 6 -457 c3 -252 8 -488 10 -524 4 -58 1 -75 -25 -133 -50
-110 -59 -168 -62 -426 -2 -219 -1 -238 18 -280 32 -69 168 -191 289 -257 41
-22 61 -27 112 -26 46 1 63 -2 67 -13 7 -17 82 -53 112 -54 81 -1 192 70 214
136 16 47 6 80 -51 175 -27 45 -49 84 -49 85 0 2 19 -6 42 -16 62 -28 84 -25
129 18 72 67 67 135 -20 270 -50 79 -80 156 -66 170 4 5 336 -25 340 -30 2 -2
-32 -93 -75 -203 -43 -110 -76 -204 -73 -209 10 -16 186 -93 293 -129 58 -19
148 -42 200 -52 52 -9 100 -19 107 -20 13 -4 95 -255 119 -362 23 -108 33
-330 34 -741 l0 -383 -37 -16 c-65 -27 -120 -71 -154 -123 -18 -27 -34 -50
-36 -50 -2 0 -36 22 -76 49 -150 102 -250 137 -364 128 -137 -10 -249 -81
-303 -191 -97 -196 -34 -475 141 -629 94 -83 272 -157 374 -157 83 1 200 58
321 158 l64 52 121 -81 c108 -72 123 -79 147 -71 27 10 441 190 454 198 3 2
-15 50 -42 107 l-48 102 20 80 c29 115 30 257 2 310 -27 51 -90 99 -158 121
l-53 17 -6 216 c-4 119 -7 302 -7 408 0 287 -36 505 -129 777 -17 49 -30 91
-28 92 1 2 47 13 101 24 102 22 284 81 378 123 l54 24 -14 147 c-8 81 -12 149
-10 152 5 4 972 -87 1075 -101 l43 -6 -80 -159 c-44 -88 -80 -163 -80 -168 0
-9 24 -19 195 -78 72 -25 179 -58 238 -73 60 -16 112 -32 117 -37 11 -12 58
-168 83 -274 18 -77 20 -130 24 -597 l4 -511 -62 -33 c-56 -30 -107 -81 -144
-143 -9 -15 -16 -13 -64 23 -79 59 -199 119 -277 137 -55 12 -80 13 -133 4
-137 -23 -236 -95 -289 -209 -21 -46 -27 -75 -30 -156 -7 -183 40 -308 163
-430 107 -107 264 -178 392 -179 53 0 74 6 145 42 46 23 114 65 152 94 38 29
74 57 81 62 8 6 53 -19 132 -72 l121 -81 237 104 c131 57 239 106 241 108 2 2
-17 48 -42 103 l-46 99 21 110 c28 147 28 229 -2 286 -27 52 -97 103 -172 124
l-52 15 -6 421 c-5 292 -12 454 -23 531 -15 109 -58 291 -88 375 l-15 41 42 7
c128 21 290 91 394 170 68 51 163 151 163 172 0 7 -21 54 -46 104 -25 50 -44
93 -41 95 4 5 420 154 428 154 4 0 0 -21 -8 -47 -12 -36 -17 -108 -21 -276
l-4 -228 -38 -19 c-50 -25 -98 -82 -106 -125 -19 -104 41 -191 140 -202 43 -5
47 -9 76 -60 38 -67 102 -132 155 -158 24 -12 64 -20 100 -21 33 -1 73 -7 88
-13 39 -15 113 -14 145 3 15 8 42 30 61 50 31 32 38 35 76 29 138 -18 289 110
261 222 -4 14 -66 88 -138 165 l-131 139 -3 103 c-4 179 -41 291 -165 501
l-71 119 1 496 c1 274 4 624 7 780 l7 282 26 6 c135 28 236 119 292 262 18 45
23 77 23 152 0 109 -28 209 -96 344 -26 51 -44 106 -53 160 -38 215 -67 290
-141 354 -87 77 -228 105 -319 63z m174 -77 c72 -21 134 -83 156 -156 8 -29
27 -108 40 -175 17 -85 36 -145 60 -193 20 -39 50 -112 66 -163 27 -80 31
-102 27 -173 -4 -67 -10 -94 -36 -147 -37 -74 -73 -109 -152 -146 -51 -24 -65
-26 -185 -25 -143 2 -238 19 -322 60 -75 36 -88 61 -85 162 5 188 73 610 117
726 45 120 133 223 202 236 56 11 55 11 112 -6z m-4 -2054 l-7 -788 60 -98
c137 -223 186 -368 181 -541 l-3 -92 137 -147 c87 -94 137 -155 137 -169 0
-43 -81 -95 -149 -95 -36 0 -40 4 -95 83 -31 45 -77 110 -101 145 -46 65 -75
142 -75 199 0 33 -1 33 -46 33 l-46 0 7 -57 c10 -79 39 -154 89 -224 22 -33
63 -91 90 -130 l50 -70 -36 -35 c-25 -25 -45 -36 -68 -37 -32 -2 -37 3 -121
128 -99 147 -112 180 -113 285 l-1 74 -35 7 c-19 4 -38 5 -42 3 -15 -10 -8
-161 10 -221 10 -32 46 -101 80 -153 46 -72 57 -96 46 -98 -48 -11 -147 80
-192 176 l-27 57 0 365 0 365 31 65 c18 36 46 80 64 99 l32 34 -7 816 -8 816
83 -3 82 -4 -7 -788z m-3717 -1552 c45 -122 111 -358 112 -400 0 -21 -49 -38
-111 -38 -47 0 -48 1 -58 38 -5 20 -15 64 -20 97 -9 49 -74 268 -97 329 -5 12
8 16 68 19 40 1 76 4 80 5 4 1 15 -22 26 -50z m3395 -131 l5 -89 -37 7 c-20 4
-44 14 -53 22 -20 18 -24 73 -7 104 13 24 71 61 80 51 4 -4 9 -47 12 -95z
m-999 -103 c21 -69 40 -147 43 -174 5 -47 4 -50 -21 -60 -15 -5 -51 -10 -81
-10 l-54 0 -10 58 c-9 46 -56 232 -78 302 -3 13 9 15 80 12 l85 -3 36 -125z
m-2259 -326 c3 -29 9 -264 13 -523 6 -383 5 -473 -5 -485 -10 -11 -36 -15
-101 -15 l-87 0 -2 528 -1 527 36 1 c20 0 55 4 77 8 22 5 45 9 52 10 7 1 14
-20 18 -51z m2336 -53 c4 -33 9 -270 13 -526 l6 -466 -26 -11 c-13 -7 -58 -12
-99 -12 l-75 0 0 443 c0 243 -3 481 -7 530 l-6 87 54 1 c30 1 65 5 79 9 47 15
55 9 61 -55z m-3048 -1226 c35 -38 34 -63 -2 -100 -25 -25 -37 -29 -81 -29
-44 0 -56 4 -81 29 -36 37 -37 70 -1 103 49 47 119 46 165 -3z m2342 -29 c54
-51 18 -126 -65 -137 -111 -15 -172 101 -81 153 38 21 115 13 146 -16z m-1780
-312 c18 -63 18 -60 -2 -49 -10 6 -34 24 -53 40 l-35 30 42 1 c35 0 43 -4 48
-22z m2346 -45 c18 -49 6 -53 -41 -13 l-45 39 38 1 c32 0 39 -4 48 -27z"/>
<path d="M111 5953 c-23 -39 -51 -93 -61 -120 -23 -61 -40 -209 -40 -350 0
-93 3 -115 22 -153 25 -49 75 -80 167 -105 l51 -13 0 43 0 43 -67 23 c-63 22
-69 27 -81 64 -10 27 -12 69 -9 132 4 63 1 103 -8 130 -28 77 -19 130 49 291
39 91 27 98 -23 15z"/>
</g>
</svg>
