<?xml version="1.0" standalone="no"?>
<!DOCTYPE svg PUBLIC "-//W3C//DTD SVG 20010904//EN"
 "http://www.w3.org/TR/2001/REC-SVG-20010904/DTD/svg10.dtd">
<svg version="1.0" xmlns="http://www.w3.org/2000/svg"
 width="370.000000pt" height="646.000000pt" viewBox="0 0 370.000000 646.000000"
 preserveAspectRatio="xMidYMid meet">
<metadata>
Created by potrace 1.16, written by Peter Selinger 2001-2019
</metadata>
<g transform="translate(0.000000,646.000000) scale(0.100000,-0.100000)"
fill="#000000" stroke="none">
<path d="M1923 6438 c-5 -7 -13 -22 -17 -33 -13 -38 -111 -195 -122 -195 -5 0
-22 20 -38 44 -15 24 -43 58 -62 77 -31 30 -41 34 -103 37 -83 5 -180 -23
-317 -91 -102 -51 -204 -138 -204 -175 0 -12 -4 -22 -10 -22 -15 0 -12 -67 5
-100 9 -17 13 -30 10 -30 -3 0 4 -9 15 -20 11 -11 20 -27 20 -35 0 -8 5 -15
12 -15 6 0 9 -2 6 -5 -3 -3 17 -43 44 -88 l49 -82 -73 -65 c-260 -231 -541
-565 -513 -610 10 -16 29 -12 104 26 39 20 75 34 78 30 7 -6 -5 -41 -67 -201
-47 -121 -150 -474 -144 -490 12 -30 50 -16 98 35 43 48 46 49 46 25 0 -14 -4
-24 -8 -21 -4 3 -8 -10 -9 -27 -1 -18 -8 -57 -18 -87 -30 -100 -58 -234 -59
-285 -1 -38 33 -46 62 -15 17 18 20 19 26 5 3 -9 3 -100 -1 -202 l-6 -186 -30
-16 c-58 -32 -394 -247 -407 -261 -3 -3 -25 -21 -50 -40 -25 -19 -84 -73 -131
-120 -113 -112 -118 -136 -57 -259 12 -23 43 -64 68 -91 71 -74 145 -160 186
-215 20 -27 40 -52 43 -55 4 -3 42 -45 85 -95 43 -49 110 -122 148 -161 39
-40 68 -77 64 -83 -12 -18 -107 -41 -174 -41 -64 0 -219 33 -236 51 -19 18
-110 10 -156 -14 -37 -18 -47 -30 -59 -65 -7 -24 -10 -57 -7 -76 17 -90 133
-198 254 -237 48 -15 104 -23 194 -26 128 -6 128 -6 128 -30 0 -14 9 -36 20
-50 11 -14 20 -33 20 -42 0 -19 44 -196 57 -231 14 -36 11 -42 -55 -118 -13
-15 -40 -47 -60 -72 -20 -25 -40 -47 -43 -50 -3 -3 -21 -30 -40 -61 -19 -30
-39 -64 -46 -75 -70 -111 -73 -119 -73 -200 0 -73 3 -84 49 -178 28 -56 63
-115 78 -133 15 -17 38 -44 50 -60 12 -15 30 -38 40 -49 10 -12 38 -45 62 -74
25 -29 51 -58 57 -65 20 -19 -78 -35 -220 -35 -193 0 -298 -39 -312 -115 -3
-16 -7 -32 -10 -36 -2 -5 2 -23 10 -42 27 -67 117 -105 261 -113 90 -5 273 6
333 20 87 20 232 68 232 77 0 5 9 9 20 9 11 0 41 20 65 45 61 61 60 86 -6 172
-28 37 -54 74 -57 83 -3 8 -11 22 -18 30 -12 15 -52 84 -100 174 -49 93 -43
183 19 291 38 65 132 180 174 212 l33 25 67 -20 c77 -23 181 -39 296 -46 66
-4 84 -9 115 -33 126 -96 149 -109 281 -154 154 -53 470 -95 607 -82 33 3 54
1 58 -6 9 -13 -107 -255 -134 -281 -3 -3 -14 -24 -25 -47 -11 -24 -23 -43 -27
-43 -5 0 -8 -5 -8 -11 0 -6 -9 -23 -19 -38 -36 -50 -81 -139 -81 -159 0 -50
99 -91 290 -121 183 -30 278 -35 387 -23 157 18 234 66 235 145 1 45 -24 97
-47 97 -8 0 -20 6 -28 14 -37 37 -162 46 -297 20 -45 -8 -95 -14 -112 -12
l-30 3 35 45 c19 25 51 63 72 85 20 22 49 56 63 75 15 19 46 55 70 80 23 25
45 53 48 62 3 10 9 18 13 18 4 0 21 24 36 52 33 62 40 68 81 68 31 0 71 14
150 51 22 10 45 19 50 19 21 0 130 109 161 161 33 57 103 269 107 329 2 19 11
103 20 185 10 84 15 173 11 202 -7 56 -1 73 45 133 15 19 38 64 51 100 22 58
24 80 23 210 -1 111 -7 165 -23 228 -45 180 -170 350 -282 387 -30 10 -58 21
-64 25 -20 14 -122 48 -180 61 -33 7 -64 15 -68 19 -10 8 -24 89 -37 210 -6
52 -15 115 -20 140 -5 25 -15 101 -21 170 -11 132 -30 194 -74 240 -23 25 -23
27 -26 299 l-4 274 53 39 c84 62 108 140 57 188 -23 21 -24 27 -18 99 7 96 -2
107 -92 104 l-62 -1 -26 101 c-15 56 -33 124 -40 151 -10 35 -11 63 -5 95 38
201 -63 449 -211 516 -33 14 -54 36 -91 90 -26 38 -59 77 -74 84 -30 16 -34
31 -8 31 33 0 147 -46 194 -78 55 -38 60 -39 56 -11 -2 16 -25 33 -83 62 -65
33 -94 42 -155 46 -67 5 -81 10 -130 45 -30 22 -59 43 -64 47 -4 4 36 56 90
116 109 120 191 235 200 281 7 33 -25 106 -51 116 -9 3 -35 6 -58 6 -23 0
-100 9 -172 19 -207 31 -270 35 -282 19z m47 -115 c0 -54 -193 -319 -239 -329
-15 -3 -34 -7 -43 -9 -27 -5 -22 7 23 50 39 39 166 223 204 297 18 35 20 36
37 21 10 -9 18 -22 18 -30z m-7 -403 c121 -32 182 -58 265 -113 84 -55 227
-191 218 -206 -3 -5 -21 -12 -40 -15 -46 -9 -105 -54 -150 -115 l-38 -52 -52
49 c-94 89 -202 105 -304 46 -66 -38 -81 -52 -109 -109 -69 -135 -89 -274 -58
-411 23 -105 52 -158 116 -220 96 -90 205 -108 305 -49 39 23 105 94 134 143
8 15 13 12 40 -21 49 -59 114 -92 180 -91 86 0 149 42 227 149 12 16 24 27 27
24 4 -3 20 -62 37 -130 l31 -123 -28 -23 c-34 -27 -145 -72 -269 -110 -82 -24
-105 -27 -265 -27 -166 -1 -179 0 -249 26 -116 42 -160 72 -430 287 -177 141
-315 171 -371 79 -39 -64 -17 -143 72 -263 86 -117 309 -294 473 -377 223
-113 390 -142 664 -114 157 16 275 40 389 77 35 12 66 18 70 14 4 -4 8 -152
10 -329 2 -256 0 -325 -10 -333 -17 -14 -148 -46 -323 -79 -190 -36 -412 -43
-619 -20 -246 27 -366 45 -451 66 -44 11 -97 20 -118 20 -30 0 -69 19 -190 93
-84 52 -167 102 -185 113 -18 10 -36 29 -39 43 -3 13 -3 168 0 345 4 243 11
359 27 476 44 326 98 596 150 744 46 134 148 293 247 387 130 123 243 165 449
168 62 1 115 -5 167 -19z m574 -375 c35 -18 65 -44 95 -82 65 -85 64 -83 32
-108 -24 -19 -28 -30 -32 -86 -4 -77 18 -126 67 -149 32 -15 32 -16 27 -68
-11 -123 -149 -271 -252 -272 -65 0 -156 57 -189 120 -11 22 -11 37 5 105 11
44 19 98 20 120 0 48 -22 139 -51 211 l-21 51 27 44 c40 64 75 99 120 120 54
25 92 24 152 -6z m-471 -40 c60 -25 109 -71 142 -133 l32 -60 -25 -6 c-42 -11
-58 -47 -53 -126 4 -81 27 -120 77 -134 31 -9 32 -11 26 -45 -27 -149 -160
-291 -273 -291 -43 0 -128 41 -163 77 -54 57 -75 99 -99 198 -18 74 -21 107
-16 185 5 85 10 104 46 177 59 119 127 170 228 172 23 1 59 -6 78 -14z m-646
-631 c41 -26 130 -92 199 -149 141 -113 231 -174 307 -204 76 -29 193 -51 277
-51 172 0 444 70 580 150 114 66 177 65 177 -4 0 -56 -32 -92 -123 -135 -46
-23 -93 -41 -105 -41 -11 0 -33 -5 -48 -10 -80 -31 -273 -54 -449 -54 -178 -1
-181 -1 -275 32 -147 51 -275 126 -479 281 -52 39 -98 71 -103 71 -4 0 -8 -9
-8 -19 0 -26 221 -191 362 -271 108 -61 198 -98 298 -121 93 -21 416 -15 535
10 22 5 56 12 75 16 75 15 220 67 265 96 l48 30 20 -20 c35 -34 27 -79 -22
-122 -133 -119 -668 -214 -921 -164 -164 32 -248 68 -419 183 -177 118 -314
254 -378 373 -35 64 -40 97 -22 132 17 32 28 37 84 37 43 0 62 -7 125 -46z
m-477 -1271 c45 -32 173 -125 283 -208 317 -236 642 -476 719 -529 68 -48 109
-80 298 -229 76 -61 87 -73 87 -101 0 -51 -25 -189 -86 -471 l-15 -71 -92 -42
c-220 -100 -415 -166 -602 -204 -138 -27 -167 -30 -365 -30 -238 -1 -346 11
-447 47 -73 27 -99 46 -91 67 3 7 48 35 101 60 116 58 192 130 239 226 32 65
33 70 34 197 0 149 7 133 -128 311 l-68 91 14 64 c8 35 17 96 21 134 4 39 12
77 18 86 7 8 45 33 84 54 67 36 95 66 78 83 -11 11 -279 -137 -362 -201 -8 -6
-20 0 -37 16 -51 51 -93 76 -151 92 -75 19 -104 19 -112 -1 -8 -22 14 -34 61
-34 58 0 122 -38 182 -105 71 -81 343 -447 344 -463 0 -26 -215 -162 -257
-162 -14 0 -85 77 -343 373 -280 321 -313 374 -276 445 44 85 397 350 661 495
66 36 121 66 123 67 1 0 40 -26 85 -57z m1997 -29 c6 -26 20 -125 30 -219 11
-93 27 -228 36 -299 l17 -128 -47 -46 c-64 -61 -82 -90 -67 -105 8 -8 21 -1
54 29 57 55 90 74 128 74 34 0 169 -37 182 -50 5 -4 -16 -24 -46 -44 -69 -46
-131 -112 -148 -159 l-13 -36 -76 0 c-41 0 -88 -5 -104 -11 l-29 -11 7 83 c9
124 35 694 38 848 1 74 4 139 6 144 7 13 20 -15 32 -70z m-1466 -91 c45 -26
129 -77 187 -114 135 -85 396 -230 476 -264 55 -24 64 -25 82 -13 24 17 107
119 165 203 l41 60 3 -100 c5 -125 -18 -425 -31 -425 -15 0 -93 53 -561 378
-50 35 -171 117 -268 183 -164 111 -201 139 -182 139 4 0 44 -21 88 -47z
m1346 37 c0 -24 -179 -290 -196 -290 -16 0 -136 212 -125 223 5 5 61 19 125
32 64 14 131 29 149 34 43 12 47 13 47 1z m-925 -74 c158 -17 331 -20 453 -7
84 8 86 4 44 -62 -73 -116 -178 -246 -198 -246 -27 -1 -99 30 -189 82 -123 70
-455 268 -455 271 0 1 44 -3 98 -10 53 -7 165 -20 247 -28z m952 -199 c-12
-386 -32 -707 -46 -707 -5 0 -78 51 -163 113 -84 61 -164 119 -176 127 -21 15
-22 17 -10 115 10 83 13 94 18 63 12 -66 46 -87 74 -46 19 27 21 99 4 116 -21
21 -68 15 -77 -10 -6 -18 -5 314 2 362 2 8 22 -21 46 -65 54 -99 88 -145 106
-145 16 0 82 86 160 210 32 49 60 90 63 90 3 0 2 -100 -1 -223z m-2037 -299
c0 -60 -23 -188 -34 -187 -11 0 -106 124 -106 137 0 4 22 20 50 35 27 15 52
32 55 37 14 23 35 9 35 -22z m2655 -221 c55 -57 123 -160 152 -228 23 -53 35
-179 31 -296 -6 -128 -24 -201 -64 -249 l-23 -29 -1 98 c0 54 -5 141 -10 195
-10 93 -46 276 -58 297 -4 6 -8 18 -9 28 -5 29 -83 170 -111 200 -14 15 -32
27 -39 27 -8 0 -11 5 -8 10 3 6 23 10 43 10 32 0 44 -8 97 -63z m-91 -10 c73
-95 140 -311 157 -507 13 -140 7 -303 -11 -325 -20 -24 -47 -36 -64 -29 -13 5
-16 26 -16 118 0 154 -32 356 -73 466 -35 90 -101 203 -141 237 -32 28 -26 46
27 77 37 23 43 23 68 10 15 -8 39 -29 53 -47z m-147 -64 c132 -172 193 -386
193 -679 0 -112 -7 -125 -47 -81 -45 49 -73 145 -73 251 0 61 -23 196 -43 252
-25 70 -66 143 -103 184 -37 41 -37 47 -1 88 28 30 41 28 74 -15z m-744 -201
c56 -43 146 -109 199 -146 54 -37 102 -74 106 -83 10 -17 -6 -127 -43 -300
-35 -162 -54 -223 -72 -230 -48 -19 -403 226 -403 278 0 10 20 119 44 241 24
123 47 244 51 271 3 26 9 47 11 47 3 0 51 -35 107 -78z m-1517 -182 c-7 -80
-48 -168 -112 -240 -59 -64 -196 -134 -297 -150 -113 -18 -222 1 -337 58 -96
48 -134 82 -68 60 66 -21 235 -47 313 -47 45 -1 106 5 136 13 75 20 176 78
221 127 54 59 98 152 98 207 0 29 6 52 17 64 17 19 17 19 26 -4 5 -13 6 -52 3
-88z m-69 1 c-3 -28 -13 -64 -23 -82 -44 -86 -196 -187 -313 -209 -107 -20
-249 -8 -398 35 -76 21 -95 41 -101 104 -5 57 9 72 41 44 40 -35 77 -54 168
-83 72 -24 109 -30 176 -30 188 0 350 84 368 191 4 25 16 46 33 58 45 34 56
28 49 -28z m-101 -43 c-8 -38 -19 -52 -70 -87 -80 -54 -130 -66 -266 -66 -111
0 -134 3 -203 28 -85 30 -160 74 -154 91 6 18 116 12 202 -12 132 -36 287 -25
365 26 44 28 94 51 114 52 15 0 17 -5 12 -32z m1498 -355 c39 -38 122 -99 185
-138 62 -38 115 -75 118 -81 12 -32 -110 -201 -209 -289 -68 -60 -192 -137
-279 -172 -80 -32 -211 -59 -362 -73 -137 -13 -366 0 -487 28 -64 15 -75 21
-78 40 -6 40 -37 23 -128 -70 -165 -170 -217 -257 -218 -368 -1 -101 25 -161
172 -383 92 -140 95 -153 41 -196 -47 -37 -160 -79 -278 -103 -142 -29 -402
-32 -471 -5 -56 22 -100 64 -100 94 0 44 28 81 68 93 20 6 122 15 227 20 222
11 285 20 285 42 0 5 -38 50 -84 99 -96 103 -179 220 -233 334 -34 72 -38 88
-38 160 0 73 3 86 38 150 45 86 154 232 253 341 83 91 92 115 42 112 -30 -3
-32 -1 -50 55 -9 32 -20 81 -24 109 -7 50 -7 51 17 44 110 -32 194 -40 439
-40 265 -1 335 6 530 54 100 24 422 144 485 180 28 16 54 29 59 29 5 1 41 -29
80 -66z m320 -502 c138 -165 298 -378 326 -435 36 -70 37 -102 9 -159 -26 -50
-162 -227 -271 -351 -43 -49 -77 -97 -76 -105 4 -23 84 -26 178 -7 234 48 399
-12 354 -129 -9 -21 -67 -50 -132 -64 -151 -32 -565 14 -684 75 -23 12 -28 19
-22 37 4 12 57 105 117 206 116 194 177 322 177 373 0 23 -14 45 -62 95 -68
71 -254 235 -287 253 -12 6 -21 15 -21 19 0 18 91 63 115 57 31 -8 205 -174
276 -264 65 -81 83 -131 73 -199 -6 -42 -98 -235 -142 -301 -85 -125 -102
-152 -102 -162 0 -34 135 173 208 320 43 86 47 102 47 166 0 55 -5 81 -25 118
-33 64 -150 197 -244 275 -42 35 -76 67 -76 71 0 9 90 80 101 80 18 0 179
-175 261 -284 94 -125 112 -164 105 -229 -7 -53 -42 -135 -87 -202 -122 -180
-200 -303 -200 -314 0 -29 202 274 266 398 81 158 21 289 -268 585 -32 33 -58
64 -58 70 0 11 65 86 74 86 2 0 34 -35 70 -79z"/>
<path d="M1055 4280 c-3 -5 -7 -58 -8 -117 -2 -129 14 -170 76 -190 34 -12
130 -3 145 12 13 12 -13 18 -73 16 -59 -2 -67 0 -90 25 -24 26 -25 33 -25 145
0 108 -7 138 -25 109z"/>
<path d="M833 1327 c-38 -40 -71 -81 -166 -207 -23 -30 -52 -66 -64 -79 -37
-41 -75 -130 -68 -160 33 -141 252 -530 298 -531 5 0 -7 21 -26 48 -116 162
-257 431 -257 493 0 45 36 99 238 352 96 121 117 161 45 84z"/>
<path d="M964 1242 c-57 -51 -212 -239 -237 -287 -32 -63 -38 -112 -20 -175 8
-30 19 -59 24 -64 5 -6 9 -17 9 -26 0 -39 182 -371 196 -357 3 3 -13 34 -35
71 -88 144 -191 380 -191 438 0 68 102 218 254 376 66 68 66 83 0 24z"/>
</g>
</svg>
