<?xml version="1.0" standalone="no"?>
<!DOCTYPE svg PUBLIC "-//W3C//DTD SVG 20010904//EN"
 "http://www.w3.org/TR/2001/REC-SVG-20010904/DTD/svg10.dtd">
<svg version="1.0" xmlns="http://www.w3.org/2000/svg"
 width="1024.000000pt" height="1631.000000pt" viewBox="0 0 1024.000000 1631.000000"
 preserveAspectRatio="xMidYMid meet">

<g transform="translate(0.000000,1631.000000) scale(0.100000,-0.100000)"
fill="#000000" stroke="none">
<path d="M8390 16284 c-245 -31 -495 -124 -790 -293 -140 -80 -466 -292 -620
-403 -60 -43 -600 -513 -835 -727 -497 -452 -801 -777 -1008 -1073 -76 -111
-86 -121 -166 -169 -85 -52 -340 -239 -341 -250 0 -3 40 2 89 11 49 10 115 21
145 24 l56 7 -17 -43 c-9 -24 -38 -68 -65 -98 -59 -68 -177 -224 -172 -229 1
-2 33 2 70 8 36 7 69 9 72 6 5 -4 -38 -231 -54 -287 -3 -9 -29 -28 -58 -41
-211 -97 -409 -304 -597 -622 -78 -133 -174 -339 -199 -430 -133 -473 -138
-838 -15 -1063 l35 -62 -55 -85 c-77 -120 -196 -285 -284 -393 -74 -93 -76
-94 -111 -88 -19 4 -92 9 -162 13 -151 7 -200 -3 -260 -57 l-42 -36 28 -74
c42 -114 58 -204 58 -330 1 -130 -9 -192 -54 -334 -30 -95 -36 -105 -132 -220
-171 -206 -515 -604 -871 -1006 -581 -657 -774 -887 -1035 -1235 -255 -340
-433 -607 -613 -922 -128 -222 -150 -274 -233 -538 -105 -334 -151 -661 -125
-895 32 -295 117 -486 296 -665 122 -122 161 -140 300 -140 143 1 275 52 455
175 46 33 86 57 88 56 2 -2 14 -50 27 -107 70 -310 247 -638 508 -942 l50 -58
-14 -77 c-27 -152 -12 -389 37 -557 l14 -50 108 -43 109 -42 12 -113 c88 -787
372 -1344 778 -1528 118 -54 220 -72 373 -66 208 8 365 63 520 182 232 179
411 528 504 988 13 65 26 119 28 121 1 1 41 10 88 20 47 10 97 24 112 32 56
29 76 160 55 368 l-8 78 33 -6 c18 -3 101 -8 183 -12 133 -6 156 -4 207 13
l57 20 75 -116 c96 -148 217 -303 361 -462 127 -141 107 -131 278 -145 l78 -7
51 -101 c267 -534 586 -910 893 -1052 267 -123 669 -122 884 2 148 86 269 223
361 409 122 246 183 509 210 905 6 91 13 167 15 169 3 2 35 18 72 35 182 85
230 114 237 143 44 201 67 338 73 437 l6 119 147 146 c136 135 204 222 295
374 9 15 19 16 80 8 361 -45 580 135 791 650 81 198 212 573 243 695 82 326
114 582 114 929 0 355 -29 583 -118 929 -98 384 -206 640 -498 1186 -426 798
-708 1246 -1044 1662 -96 120 -109 140 -153 252 -139 352 -240 759 -294 1181
-36 281 -48 479 -53 890 -6 455 2 702 43 1305 46 701 52 768 69 793 8 13 53
56 99 95 64 55 91 86 113 129 26 55 28 66 28 188 0 87 -6 160 -18 221 l-19 91
64 80 c35 43 109 150 163 237 54 87 123 191 155 230 96 122 290 476 357 654
74 198 99 390 69 531 -8 40 -33 110 -55 155 -44 89 -144 216 -194 247 -38 22
-159 63 -237 79 -60 12 -246 21 -300 14z m421 -181 c88 -41 143 -92 178 -167
55 -115 61 -285 15 -483 -60 -263 -276 -756 -434 -991 -75 -112 -232 -302
-250 -302 -4 0 -15 11 -24 25 -15 23 -113 81 -122 73 -2 -2 17 -44 42 -92 120
-229 147 -414 83 -551 -21 -44 -94 -135 -108 -135 -4 0 -15 24 -24 54 -25 77
-82 157 -187 261 l-91 90 46 -80 c55 -97 79 -158 99 -258 21 -101 21 -112 -13
-434 -144 -1349 -131 -2321 39 -3199 84 -430 245 -977 300 -1014 4 -3 51 -77
105 -165 54 -88 203 -320 330 -515 128 -195 282 -434 342 -530 507 -805 749
-1427 838 -2150 23 -184 31 -644 15 -853 -6 -89 -27 -250 -46 -357 -140 -794
-383 -1242 -711 -1310 -88 -19 -278 -9 -335 17 -124 56 -242 226 -363 521 -24
59 -93 253 -153 432 -262 771 -349 999 -527 1365 -268 555 -593 983 -1013
1332 -42 35 -78 61 -80 58 -3 -2 37 -48 88 -102 386 -408 689 -886 983 -1548
81 -183 160 -376 155 -380 -8 -7 -549 -184 -718 -235 -1006 -302 -1827 -433
-2620 -417 -859 18 -1678 157 -2270 387 -193 75 -317 132 -546 249 -296 152
-285 145 -324 238 -187 448 -230 933 -125 1409 108 486 377 1011 824 1604 157
208 333 426 644 800 208 248 253 308 290 385 114 232 135 419 67 612 -17 48
-32 95 -33 102 -3 21 128 43 223 38 66 -3 91 -11 210 -64 547 -246 1237 -425
1860 -484 167 -16 537 -16 680 0 382 42 633 142 800 317 71 75 73 76 113 71
23 -3 77 -24 119 -46 43 -23 78 -38 78 -35 0 19 -85 146 -122 181 -62 60 -117
83 -206 83 -70 0 -202 -25 -202 -39 0 -3 22 -14 49 -24 43 -15 101 -64 101
-85 0 -12 -151 -109 -235 -150 -260 -129 -548 -179 -959 -169 -441 11 -902
102 -1412 278 -215 74 -552 213 -577 238 -5 5 33 59 83 122 50 62 129 169 176
236 l86 123 28 -15 c16 -8 60 -22 97 -31 168 -39 394 30 597 183 81 61 70 67
100 -62 23 -103 88 -226 151 -289 61 -62 167 -119 252 -137 78 -16 260 -6 343
19 215 64 395 175 584 360 158 155 269 313 372 527 109 229 163 430 185 689
40 481 -147 857 -466 941 -246 64 -561 -70 -817 -348 -51 -55 -58 -59 -58 -38
0 38 -48 189 -81 255 -81 164 -209 265 -355 282 -30 4 -54 10 -53 13 0 3 13
71 28 151 l27 145 75 12 c110 19 474 70 553 78 58 6 74 12 103 39 64 58 37
126 -51 126 -22 0 -138 -18 -256 -40 -118 -22 -218 -40 -223 -40 -17 0 35 79
78 119 42 38 195 121 224 121 6 0 11 4 11 10 0 20 -131 50 -223 50 -53 0 -87
4 -82 9 6 5 120 51 254 102 134 51 255 102 268 112 34 27 27 58 -20 81 -35 17
-46 17 -110 7 -40 -6 -110 -23 -156 -37 -45 -14 -85 -24 -86 -22 -4 4 155 217
220 295 351 418 865 887 1482 1351 372 280 835 524 1189 627 151 44 228 54
379 52 133 -2 143 -4 206 -34z m-3756 -3414 c144 -64 225 -206 261 -456 l16
-112 -48 -68 c-27 -37 -62 -87 -77 -110 -15 -24 -30 -43 -33 -43 -4 0 -41 33
-84 73 -136 128 -276 191 -456 205 -101 8 -276 -1 -361 -18 -30 -7 -57 -10
-59 -7 -6 6 143 203 215 286 108 123 243 221 355 258 51 16 228 11 271 -8z
m1184 -130 c281 -45 415 -321 398 -819 -3 -91 -8 -173 -12 -183 -6 -14 -28 2
-129 96 -209 197 -328 272 -506 319 -76 20 -107 23 -295 22 -145 -1 -235 -6
-290 -17 -44 -8 -81 -14 -82 -13 -1 1 22 32 52 70 256 320 451 477 650 521 75
17 132 18 214 4z m-1521 -469 c132 -37 291 -124 400 -219 l33 -28 -31 -54
c-65 -109 -134 -257 -161 -344 -64 -208 -106 -413 -116 -573 l-6 -103 -66 -61
c-242 -223 -464 -298 -644 -215 -159 73 -258 286 -261 562 -1 134 12 287 25
279 5 -3 9 -14 9 -24 0 -30 48 -79 91 -91 78 -24 171 30 215 126 52 110 13
204 -97 235 -73 21 -152 -31 -189 -126 -10 -27 -19 -44 -20 -37 0 16 34 161
59 246 19 65 159 349 184 373 7 7 39 21 72 32 52 18 84 25 205 46 54 10 228
-4 298 -24z m1210 -190 c217 -57 414 -174 605 -359 l88 -86 -15 -65 c-30 -127
-55 -201 -87 -258 -221 -394 -438 -656 -681 -820 -232 -158 -487 -195 -658
-95 -194 114 -290 407 -250 764 13 122 28 182 29 119 2 -80 67 -134 161 -134
87 1 157 50 206 146 48 94 20 184 -69 227 -111 54 -224 2 -272 -123 -28 -73
-28 -47 -1 60 50 197 115 342 231 518 38 58 43 61 113 83 133 42 217 52 372
48 108 -2 166 -9 228 -25z m-4472 -4862 c-146 -283 -240 -548 -288 -816 -20
-110 -23 -160 -23 -372 1 -193 4 -265 18 -340 34 -177 78 -332 136 -477 14
-37 17 -51 7 -47 -37 14 -83 -203 -58 -275 9 -25 6 -47 -15 -118 -53 -184 -73
-317 -80 -522 l-6 -194 -35 -31 c-245 -217 -486 -266 -654 -134 -126 100 -223
228 -272 358 -109 294 -53 731 166 1305 130 342 591 1066 1071 1683 62 78 113
142 114 142 1 0 -35 -73 -81 -162z m-32 -2191 c405 -246 918 -466 1391 -597
526 -145 1028 -216 1696 -240 1086 -38 1992 121 3321 583 l187 65 36 -91 c19
-51 35 -97 35 -104 0 -12 -60 -37 -350 -143 -888 -324 -1718 -518 -2590 -602
-175 -17 -814 -17 -1015 0 -1066 90 -1872 353 -2671 874 -108 70 -123 83 -138
121 -9 24 -16 59 -16 78 0 44 18 99 32 99 6 0 43 -19 82 -43z m61 -352 c86
-58 211 -135 276 -171 65 -36 119 -67 119 -68 0 -2 -25 -3 -56 -4 -72 -2 -152
-38 -188 -85 -50 -66 -68 -167 -45 -252 25 -88 169 -258 251 -295 51 -23 125
-26 173 -5 41 17 131 99 170 156 51 73 128 99 194 64 69 -35 131 -145 131
-233 0 -29 -12 -46 -85 -122 -140 -146 -174 -251 -124 -387 29 -77 144 -192
244 -245 146 -76 339 -116 605 -125 271 -9 656 26 728 67 103 58 124 185 66
401 -41 154 -27 236 45 274 42 21 129 19 166 -3 31 -19 124 -118 217 -231 33
-39 74 -76 108 -95 51 -29 62 -31 150 -31 159 0 296 57 427 179 95 88 155 202
178 339 6 35 8 37 46 37 21 0 121 9 222 20 793 89 1641 302 2470 621 87 34
159 60 161 58 11 -14 101 -278 135 -396 23 -79 60 -195 82 -259 22 -63 39
-117 37 -119 -2 -2 -69 -13 -148 -25 -425 -62 -618 -169 -637 -354 -7 -73 20
-145 121 -316 109 -183 129 -235 124 -317 -3 -49 -10 -71 -33 -104 -52 -73
-72 -82 -177 -83 -110 0 -159 18 -300 115 -112 76 -155 92 -234 85 -166 -14
-297 -122 -368 -304 -80 -204 -104 -523 -65 -860 6 -51 10 -95 7 -97 -2 -2
-87 -9 -188 -15 -213 -12 -458 -2 -745 31 l-180 21 -43 41 c-60 58 -259 278
-322 357 -66 82 -138 188 -184 270 l-35 64 -228 1 c-129 1 -263 7 -308 14
-138 22 -334 76 -504 140 -91 33 -167 58 -170 55 -13 -12 168 -173 229 -204
71 -36 175 -65 271 -75 l67 -7 18 -57 c39 -116 18 -332 -34 -360 -30 -16 -203
-49 -317 -62 -143 -15 -398 -6 -580 21 -371 55 -804 182 -1315 384 -177 70
-216 89 -222 108 -4 13 -19 85 -33 161 -28 152 -33 329 -14 415 l12 49 -59 74
c-90 112 -253 362 -311 474 -104 202 -172 397 -210 598 -13 69 -17 143 -17
297 0 184 3 218 28 334 25 121 32 146 41 146 1 0 74 -47 160 -105z m848 -2729
c682 -262 1182 -358 1646 -317 73 7 136 10 138 7 8 -8 -56 -301 -93 -424 -78
-259 -165 -422 -291 -549 -134 -135 -284 -195 -519 -209 -144 -8 -270 17 -399
79 -388 188 -624 666 -719 1454 -7 52 -6 53 16 44 13 -5 112 -43 221 -85z
m5677 -397 c-52 -777 -260 -1181 -643 -1254 -115 -22 -339 -20 -456 5 -109 22
-263 93 -358 165 -215 161 -474 509 -671 902 l-31 61 307 -5 c331 -6 567 5
832 38 300 38 650 120 905 212 66 24 121 43 123 42 2 -2 -2 -76 -8 -166z"/>
<path d="M7302 14490 c-33 -17 -75 -47 -91 -66 -40 -45 -79 -122 -87 -172 -5
-35 -3 -44 19 -66 53 -53 169 -26 250 59 94 97 130 214 78 256 -35 29 -97 25
-169 -11z"/>
<path d="M6503 13680 c-30 -12 -46 -47 -40 -85 5 -28 80 -177 164 -324 l26
-44 -42 33 c-32 26 -53 34 -95 38 -30 2 -56 0 -60 -6 -3 -5 16 -52 44 -103 41
-80 105 -257 95 -267 -2 -2 -63 41 -137 96 -157 117 -184 132 -237 132 -40 0
-71 -25 -71 -58 0 -35 35 -84 79 -109 132 -77 239 -177 370 -346 86 -111 112
-130 140 -103 13 14 17 44 19 162 4 144 4 146 25 140 150 -43 177 -43 177 4 0
50 -30 186 -66 301 -52 166 -196 459 -244 496 -46 37 -114 57 -147 43z"/>
<path d="M3620 8164 c-56 -24 -99 -73 -116 -131 -13 -44 -13 -57 -2 -80 25
-52 110 -55 168 -6 68 57 107 188 65 219 -24 18 -71 17 -115 -2z"/>
<path d="M7655 7561 c-82 -34 -93 -165 -20 -238 28 -28 40 -33 80 -33 40 0 52
5 80 33 47 47 54 93 24 154 -37 75 -103 108 -164 84z"/>
<path d="M2064 6721 c-91 -53 -174 -168 -174 -242 0 -34 23 -68 51 -78 103
-36 247 121 249 270 0 50 -21 79 -56 79 -10 0 -42 -13 -70 -29z"/>
<path d="M4515 6241 c-79 -33 -86 -165 -12 -227 27 -23 38 -26 81 -21 40 3 55
11 77 35 31 35 50 90 42 124 -17 69 -119 117 -188 89z"/>
<path d="M2049 5188 c45 -118 125 -234 182 -264 67 -34 119 -15 257 95 94 75
133 113 80 79 -57 -37 -157 -68 -220 -68 -85 0 -147 30 -237 115 -53 51 -69
61 -62 43z"/>
<path d="M1884 4965 c21 -58 98 -175 147 -224 31 -31 82 -70 115 -86 55 -27
67 -30 169 -30 88 0 125 5 185 23 68 22 334 141 327 148 -1 1 -45 -9 -97 -22
-119 -32 -309 -43 -414 -24 -139 24 -282 94 -386 187 -35 31 -51 41 -46 28z"/>
<path d="M9514 4355 c-31 -21 -47 -69 -42 -124 7 -76 61 -131 128 -131 88 0
145 166 77 227 -49 45 -122 58 -163 28z"/>
</g>
</svg>
