<?xml version="1.0" standalone="no"?>
<!DOCTYPE svg PUBLIC "-//W3C//DTD SVG 20010904//EN"
 "http://www.w3.org/TR/2001/REC-SVG-20010904/DTD/svg10.dtd">
<svg version="1.0" xmlns="http://www.w3.org/2000/svg"
 width="1203.000000pt" height="1024.000000pt" viewBox="0 0 1203.000000 1024.000000"
 preserveAspectRatio="xMidYMid meet">

<g transform="translate(0.000000,1024.000000) scale(0.100000,-0.100000)"
fill="#000000" stroke="none">
<path d="M3185 10130 c-28 -12 -28 -12 250 -11 221 1 269 -1 415 -23 159 -25
191 -31 310 -63 90 -24 151 -48 271 -108 142 -71 241 -145 390 -295 101 -101
290 -335 307 -380 3 -8 22 -42 42 -75 20 -33 46 -82 59 -110 12 -27 29 -63 36
-78 8 -16 15 -35 15 -44 0 -8 6 -29 14 -46 14 -34 32 -115 46 -212 5 -33 14
-89 21 -125 19 -102 16 -431 -4 -508 -9 -35 -17 -80 -17 -101 0 -20 -4 -41 -9
-46 -5 -6 -13 -30 -19 -55 -18 -79 -38 -130 -116 -290 -72 -148 -148 -286
-178 -325 -5 -5 -66 -98 -138 -205 -123 -186 -131 -195 -161 -195 -18 0 -34
-4 -35 -10 -2 -5 12 -28 30 -50 l34 -40 8 30 c8 32 63 128 76 133 4 2 8 8 8
14 0 5 8 20 18 33 9 12 23 31 30 41 84 126 112 171 112 182 0 6 4 12 8 12 5 0
14 10 21 23 6 12 20 36 31 52 11 17 25 40 31 53 7 12 15 22 19 22 4 0 10 8 14
18 3 9 15 31 25 47 20 30 47 83 96 188 14 30 25 63 25 74 0 10 7 28 15 39 8
10 15 27 15 37 0 11 6 31 14 45 14 29 25 64 58 202 18 71 22 125 25 328 4 212
1 258 -17 367 -12 69 -28 137 -35 152 -8 16 -15 37 -15 48 0 11 -7 29 -15 39
-8 11 -15 30 -15 42 0 12 -7 27 -15 34 -8 7 -15 23 -15 36 0 14 -4 32 -9 42
-5 9 -26 50 -46 91 -20 41 -49 94 -66 118 -16 24 -29 46 -29 49 0 20 -145 190
-249 294 -141 140 -167 163 -243 216 -29 20 -54 41 -56 46 -2 4 -9 8 -17 8 -7
0 -18 7 -25 15 -24 29 -233 123 -323 146 -21 5 -45 14 -55 19 -9 5 -46 14 -82
20 -36 6 -101 18 -145 27 -91 18 -704 29 -740 13z"/>
<path d="M2956 10103 c-3 -4 -37 -13 -74 -20 -112 -21 -187 -40 -210 -52 -11
-6 -30 -11 -41 -11 -11 0 -35 -6 -53 -14 -18 -7 -60 -22 -93 -31 -33 -10 -69
-24 -80 -30 -11 -7 -37 -15 -57 -19 -21 -4 -38 -11 -38 -16 0 -5 -16 -12 -35
-16 -19 -3 -38 -10 -41 -15 -9 -15 41 -10 62 6 10 8 31 15 45 15 14 0 34 7 45
15 10 8 28 15 39 15 10 0 37 6 60 14 22 8 74 24 115 36 41 12 82 26 90 30 9 4
39 11 68 15 29 4 54 11 58 16 3 5 22 9 43 9 21 0 54 6 72 14 19 8 60 17 92 21
31 4 57 11 57 16 0 11 -113 12 -124 2z"/>
<path d="M3740 9971 c-43 -16 -45 -19 -42 -51 2 -19 6 -37 8 -39 2 -2 28 -6
57 -9 42 -3 57 0 80 18 39 31 35 56 -15 80 -23 11 -42 20 -42 19 -1 0 -21 -8
-46 -18z"/>
<path d="M2674 9941 c-57 -35 -82 -94 -51 -120 18 -14 105 -17 138 -3 43 17
89 62 89 86 0 13 -8 30 -18 39 -26 24 -118 23 -158 -2z"/>
<path d="M2160 9850 c0 -12 27 -12 55 0 16 7 13 9 -17 9 -21 1 -38 -3 -38 -9z"/>
<path d="M2085 9820 c-8 -13 25 -13 45 0 12 8 9 10 -12 10 -15 0 -30 -4 -33
-10z"/>
<path d="M2015 9790 c-3 -6 5 -10 19 -10 14 0 28 5 31 10 3 6 -5 10 -19 10
-14 0 -28 -4 -31 -10z"/>
<path d="M1945 9760 c-3 -6 5 -10 19 -10 14 0 28 5 31 10 3 6 -5 10 -19 10
-14 0 -28 -4 -31 -10z"/>
<path d="M1880 9730 c0 -5 11 -10 24 -10 14 0 28 5 31 10 4 6 -7 10 -24 10
-17 0 -31 -4 -31 -10z"/>
<path d="M1820 9695 c0 -9 -9 -15 -25 -15 -14 0 -28 -7 -31 -15 -4 -8 -14 -15
-24 -15 -10 0 -25 -6 -32 -14 -8 -7 -25 -17 -38 -21 -14 -4 -42 -19 -62 -31
-21 -13 -40 -24 -43 -24 -6 0 -124 -74 -188 -119 -21 -14 -45 -30 -55 -36 -9
-5 -21 -14 -28 -20 -6 -5 -22 -17 -34 -25 -13 -8 -32 -23 -42 -32 -10 -10 -21
-18 -24 -18 -9 0 -98 -72 -102 -82 -2 -5 -8 -8 -13 -8 -5 0 -23 -13 -39 -30
-16 -16 -32 -30 -35 -30 -4 0 -12 -6 -19 -12 -7 -7 -39 -35 -71 -63 -102 -89
-250 -238 -306 -310 -29 -38 -62 -79 -72 -90 -10 -11 -26 -32 -35 -47 -9 -16
-20 -28 -24 -28 -4 0 -8 -4 -8 -9 0 -6 -14 -31 -31 -56 -35 -51 -103 -174
-122 -217 -6 -16 -15 -28 -19 -28 -4 0 -8 -11 -8 -24 0 -13 -7 -29 -15 -36 -8
-7 -15 -25 -15 -41 0 -15 -7 -34 -15 -43 -8 -8 -15 -26 -15 -40 0 -13 -6 -31
-14 -38 -7 -8 -17 -29 -21 -48 -4 -19 -11 -41 -15 -50 -21 -40 -50 -151 -50
-191 1 -41 2 -43 15 -25 8 11 15 38 15 60 0 23 7 50 15 60 8 11 15 28 15 39 0
20 55 190 71 219 5 10 9 22 9 28 0 13 104 225 130 265 11 17 23 37 28 45 42
81 48 85 110 81 82 -6 173 115 144 191 -15 40 -5 62 63 133 32 33 79 84 105
113 27 28 51 52 55 52 4 0 12 6 19 13 44 42 142 124 162 135 13 7 24 17 24 22
0 6 6 10 14 10 8 0 16 4 18 10 3 8 107 89 168 130 12 8 28 20 34 25 16 14 44
31 89 55 l37 21 10 -25 c5 -14 23 -32 39 -41 28 -14 34 -14 86 10 57 25 135
95 135 121 0 8 -11 19 -25 24 -14 5 -25 14 -25 20 0 19 20 50 32 50 16 0 97
40 104 51 3 5 14 9 24 9 10 0 22 5 25 10 4 6 -7 10 -24 10 -21 0 -31 -5 -31
-15z"/>
<path d="M3294 9540 c-42 -27 -60 -63 -48 -98 13 -38 60 -48 149 -31 61 12 72
18 92 48 28 42 29 55 3 81 -28 28 -151 28 -196 0z"/>
<path d="M4201 9454 c-55 -69 15 -149 100 -114 54 23 64 71 24 114 -34 37 -95
37 -124 0z"/>
<path d="M2211 9389 c-58 -28 -111 -86 -111 -123 0 -40 25 -55 94 -56 98 0
236 82 236 140 0 10 -12 28 -26 39 -36 29 -132 28 -193 0z"/>
<path d="M1275 8874 c-64 -33 -135 -120 -135 -166 0 -22 7 -32 34 -45 33 -15
37 -15 79 5 66 31 107 83 107 135 0 30 -6 50 -20 65 -25 26 -26 26 -65 6z"/>
<path d="M2280 8703 c-380 -32 -791 -255 -1022 -556 -80 -104 -123 -190 -119
-239 2 -32 18 -19 46 35 127 245 337 437 628 576 170 80 295 116 442 127 55 3
110 10 123 15 32 12 28 39 -5 40 -16 0 -35 1 -43 3 -8 1 -31 0 -50 -1z"/>
<path d="M11616 8471 c-3 -5 -22 -12 -43 -16 -20 -4 -46 -13 -57 -21 -11 -8
-32 -14 -46 -14 -14 0 -34 -6 -45 -14 -11 -7 -40 -16 -65 -19 -78 -10 -178
-32 -187 -40 -12 -13 101 -2 178 16 85 20 232 70 284 96 37 19 38 20 13 21
-15 0 -29 -4 -32 -9z"/>
<path d="M11944 8250 c0 -63 1 -89 3 -57 2 31 2 83 0 115 -2 31 -3 5 -3 -58z"/>
<path d="M10955 8320 c-13 -6 7 -9 62 -9 45 -1 85 4 88 9 8 12 -121 12 -150 0z"/>
<path d="M10695 8290 c-22 -6 -8 -8 50 -9 44 0 87 4 95 9 18 12 -99 12 -145 0z"/>
<path d="M2495 8264 c-162 -33 -402 -102 -430 -124 -5 -4 -20 -11 -32 -14 -33
-10 -198 -102 -268 -149 -223 -150 -445 -394 -544 -599 -39 -81 -50 -118 -33
-118 18 1 34 21 71 92 67 132 132 218 261 348 69 70 141 139 160 154 42 34
207 146 214 146 3 0 27 13 53 28 26 15 73 38 103 50 30 13 64 27 75 31 96 41
271 84 470 117 105 17 139 29 130 45 -9 13 -149 9 -230 -7z"/>
<path d="M10443 8253 c20 -2 54 -2 75 0 20 2 3 4 -38 4 -41 0 -58 -2 -37 -4z"/>
<path d="M10212 8233 c-6 -2 -10 -9 -6 -14 6 -11 145 0 159 12 9 9 -130 11
-153 2z"/>
<path d="M10070 8201 c-22 -6 -23 -8 -6 -14 23 -9 116 2 116 14 0 10 -73 10
-110 0z"/>
<path d="M9958 8173 c-10 -2 -18 -9 -18 -14 0 -5 -15 -9 -33 -9 -18 0 -42 -7
-53 -15 -10 -8 -27 -15 -37 -15 -9 0 -34 -9 -54 -20 -21 -11 -43 -20 -50 -20
-7 0 -13 -4 -13 -9 0 -5 -13 -12 -30 -16 -16 -4 -30 -10 -30 -15 0 -4 -10 -10
-22 -14 -13 -3 -35 -17 -50 -31 -15 -14 -31 -25 -35 -25 -9 0 -195 -188 -228
-230 -11 -14 -33 -46 -50 -70 -16 -25 -32 -47 -35 -50 -9 -9 -50 -97 -50 -108
0 -6 -5 -12 -11 -14 -7 -2 -10 -10 -7 -18 2 -8 20 11 44 48 83 133 110 172
149 218 92 109 194 202 285 259 60 38 156 85 172 85 7 0 25 6 40 14 15 8 42
17 60 21 18 4 38 11 43 15 6 4 29 11 53 15 23 4 42 11 42 16 0 9 -50 10 -82 2z"/>
<path d="M620 8029 c-80 -87 -124 -223 -85 -262 9 -9 23 -17 31 -17 43 0 111
64 157 147 24 44 23 127 -3 153 -30 30 -58 25 -100 -21z"/>
<path d="M11911 8054 c0 -11 3 -14 6 -6 3 7 2 16 -1 19 -3 4 -6 -2 -5 -13z"/>
<path d="M3435 8015 c-27 -8 -64 -14 -81 -15 -17 0 -44 -4 -60 -9 -16 -5 -72
-19 -124 -31 -52 -12 -115 -28 -140 -35 -171 -51 -286 -89 -294 -96 -6 -5 -17
-9 -26 -9 -36 0 -452 -195 -563 -264 -283 -176 -472 -344 -639 -570 -71 -95
-167 -275 -193 -361 -29 -96 -47 -197 -36 -208 19 -19 38 1 44 47 20 142 117
353 236 511 102 135 262 295 380 379 30 21 59 43 65 48 133 111 643 361 846
413 14 3 34 10 45 15 55 24 400 110 440 110 15 0 34 4 44 10 10 5 53 13 95 19
77 9 106 22 106 47 0 18 -77 18 -145 -1z"/>
<path d="M11875 7998 c-4 -15 -3 -32 1 -39 11 -19 26 29 15 49 -8 14 -10 13
-16 -10z"/>
<path d="M11811 7877 c-37 -58 -47 -67 -73 -67 -43 0 -66 -15 -131 -84 -74
-78 -137 -173 -137 -207 0 -30 -44 -80 -110 -126 -47 -32 -123 -91 -151 -118
-20 -19 -39 -19 -39 0 0 8 4 15 9 15 12 0 51 81 51 105 0 27 -54 73 -93 80
-86 16 -284 -81 -371 -182 -52 -60 -53 -133 -3 -164 35 -21 116 -26 134 -8 6
6 26 9 44 6 l34 -3 -32 -8 c-18 -5 -33 -13 -33 -18 0 -5 -8 -11 -17 -15 -37
-12 -103 -45 -109 -54 -3 -5 -13 -9 -23 -9 -10 0 -24 -7 -31 -15 -17 -21 -42
-19 -90 6 -35 19 -53 21 -143 17 -91 -4 -109 -8 -167 -37 -36 -18 -73 -40 -84
-49 -30 -27 -96 -120 -96 -135 0 -24 -44 -55 -90 -62 -25 -4 -49 -11 -55 -15
-14 -11 -164 -23 -269 -22 -70 1 -93 5 -108 19 -26 24 -86 23 -120 -2 -34 -25
-38 -50 -5 -38 12 4 45 8 72 7 28 0 133 -3 235 -5 160 -3 190 -1 224 14 21 9
50 17 65 17 29 0 111 25 153 46 14 8 34 14 45 14 10 0 27 7 37 15 11 8 26 15
35 15 8 0 56 20 108 45 51 25 99 45 107 45 7 0 19 7 26 15 7 8 21 15 31 15 9
0 24 6 31 13 7 6 76 44 153 82 77 39 144 76 148 83 4 6 17 12 27 12 10 0 22 5
25 11 4 5 17 14 28 20 28 12 53 27 98 62 20 15 42 27 47 27 13 0 100 56 123
79 9 9 40 36 69 61 211 179 342 321 430 464 55 92 48 120 -9 33z"/>
<path d="M111 7675 l2 -70 10 58 c7 42 6 62 -2 70 -8 8 -11 -7 -10 -58z"/>
<path d="M96 7509 c-22 -43 -22 -276 -1 -334 8 -22 14 -67 15 -100 0 -37 4
-55 9 -47 5 8 6 54 3 102 -5 86 -4 90 27 139 46 76 40 173 -16 244 l-21 28
-16 -32z"/>
<path d="M3020 7510 c-88 -11 -149 -32 -213 -73 -95 -61 -139 -121 -190 -261
-41 -112 -48 -262 -17 -402 11 -53 25 -105 30 -115 22 -40 3 -78 -26 -50 -17
18 -190 100 -235 112 -24 7 -102 14 -172 16 -133 4 -166 -2 -267 -53 -52 -26
-141 -122 -172 -185 -68 -140 -76 -363 -21 -569 16 -57 47 -149 79 -233 24
-61 17 -66 -90 -65 -45 1 -121 -5 -171 -11 -130 -18 -367 -2 -427 30 -10 5
-25 9 -34 9 -35 0 -221 91 -308 151 -162 111 -308 282 -409 479 -21 41 -42 80
-47 85 -4 6 -26 60 -49 120 -24 61 -46 117 -51 126 -5 9 -12 33 -15 53 -4 20
-11 36 -15 36 -11 0 0 -73 13 -81 5 -4 12 -27 14 -53 3 -26 10 -49 14 -52 5
-3 9 -12 9 -20 0 -29 111 -257 161 -332 16 -24 29 -46 29 -49 0 -11 114 -147
170 -204 30 -30 71 -65 91 -77 19 -12 47 -32 61 -46 36 -33 142 -96 162 -96 9
0 16 -4 16 -10 0 -5 16 -12 35 -16 19 -3 37 -10 40 -14 3 -5 24 -11 48 -15 23
-4 47 -11 53 -16 31 -25 421 -52 447 -31 7 5 72 13 145 17 128 7 134 7 167
-16 18 -13 36 -30 40 -39 3 -8 11 -24 18 -35 23 -37 52 -80 62 -92 5 -7 33
-44 60 -83 28 -38 56 -70 63 -70 6 0 12 -7 12 -15 0 -8 5 -15 10 -15 6 0 10 2
10 5 0 5 -63 89 -82 109 -7 8 -20 24 -28 36 -14 20 -36 49 -60 77 -5 7 -10 15
-10 19 0 4 -13 28 -28 53 -34 57 -114 243 -140 331 -41 133 -54 230 -50 355 5
134 22 199 73 280 88 138 248 203 438 176 96 -13 159 -35 279 -98 109 -58 140
-87 187 -182 121 -242 210 -390 325 -541 121 -158 379 -328 546 -360 119 -23
138 -30 145 -57 9 -39 68 -125 130 -193 54 -59 63 -75 46 -82 -8 -3 -48 -39
-270 -243 -119 -109 -223 -208 -389 -370 -90 -88 -169 -161 -176 -163 -24 -5
-49 81 -87 295 -16 96 -19 148 -16 365 2 145 9 279 16 313 7 33 20 96 29 140
8 44 26 116 39 159 29 99 29 116 4 109 -26 -7 -67 -123 -91 -253 -18 -103 -33
-160 -42 -160 -5 0 -30 19 -54 43 -25 23 -52 44 -59 47 -41 15 -204 199 -296
335 -29 44 -56 82 -59 85 -4 3 -16 22 -29 43 -25 41 -51 47 -125 26 -49 -13
-136 -98 -136 -132 0 -13 20 -53 44 -90 25 -36 55 -85 68 -109 49 -92 142
-210 236 -299 110 -104 240 -199 273 -199 12 0 42 11 65 25 42 25 43 25 54 6
13 -26 13 -124 -1 -155 -18 -39 -129 -70 -216 -61 -82 9 -253 76 -310 122 -23
18 -46 33 -51 33 -5 0 -12 7 -16 15 -5 14 -36 22 -36 10 0 -10 55 -54 68 -55
6 0 12 -4 12 -9 0 -4 18 -21 41 -36 55 -39 49 -55 -59 -163 -48 -48 -100 -107
-117 -132 -16 -25 -32 -47 -35 -50 -12 -12 -80 -158 -80 -171 0 -8 -4 -19 -9
-25 -15 -15 -23 -71 -12 -78 6 -4 15 12 22 39 6 25 15 48 20 51 5 3 9 16 9 29
0 13 5 27 11 30 5 4 15 17 20 28 54 124 260 367 309 367 11 0 41 -9 69 -19
102 -41 269 -43 328 -4 21 14 23 14 33 -12 5 -14 10 -40 10 -58 0 -40 19 -193
30 -233 4 -18 5 -36 1 -41 -8 -12 -93 -68 -134 -89 -136 -71 -446 -393 -435
-453 6 -31 27 -19 64 36 53 81 214 245 306 312 64 47 188 129 208 139 4 1 15
-23 25 -55 9 -32 21 -66 26 -75 18 -35 7 -54 -69 -134 -165 -171 -240 -258
-356 -412 -89 -117 -115 -133 -219 -138 -80 -3 -90 -18 -15 -22 87 -4 98 -9
98 -42 0 -16 4 -31 8 -34 5 -3 33 29 63 70 86 119 152 209 158 214 3 3 24 27
46 55 22 27 47 57 55 66 8 9 60 65 115 124 55 60 113 120 129 134 17 15 38 35
48 46 100 113 429 429 783 751 120 109 406 359 490 428 33 27 65 54 70 60 20
22 308 252 364 291 31 22 79 58 107 80 123 101 227 152 454 228 179 60 279 75
386 58 94 -14 239 -56 289 -83 22 -11 60 -25 85 -29 25 -4 95 -21 155 -37 143
-38 299 -66 322 -58 31 12 -7 26 -73 26 -42 0 -65 5 -74 15 -9 11 -32 15 -82
15 -38 0 -67 4 -64 9 7 11 -17 21 -49 21 -32 0 -123 47 -135 70 -5 10 -10 55
-10 100 l0 81 -75 74 c-40 41 -81 75 -88 75 -8 0 -17 7 -21 15 -3 8 -11 15
-17 15 -7 0 -17 7 -24 16 -6 9 -20 14 -31 12 -19 -5 -19 -5 1 -13 48 -20 144
-106 204 -183 29 -37 33 -50 32 -99 0 -31 -5 -61 -11 -67 -7 -7 -35 -2 -93 16
-141 46 -152 48 -238 58 -93 11 -220 0 -304 -27 -294 -93 -397 -140 -546 -253
-43 -33 -80 -60 -84 -60 -5 0 -133 -97 -145 -110 -3 -3 -54 -46 -115 -95 -137
-111 -433 -363 -502 -427 -28 -26 -58 -48 -67 -48 -33 0 -202 217 -183 236 2
3 26 9 53 14 85 15 132 29 171 51 145 82 241 190 305 346 29 70 33 90 36 196
3 89 -1 135 -13 185 -34 130 -87 268 -159 412 -191 380 -523 707 -820 810 -64
22 -248 33 -346 20z m285 -55 c148 -33 315 -140 497 -316 60 -58 174 -199 225
-277 76 -116 213 -388 213 -422 0 -6 4 -18 9 -28 27 -48 71 -244 71 -314 0
-118 -77 -302 -164 -391 -118 -121 -223 -167 -378 -167 -242 0 -505 136 -685
355 -48 58 -102 135 -116 165 -4 8 -15 27 -25 42 -71 110 -131 221 -207 383
-81 172 -109 292 -109 465 -1 147 8 187 66 308 57 120 177 187 383 216 44 6
151 -3 220 -19z"/>
<path d="M3267 6655 c-62 -23 -122 -69 -119 -91 12 -85 24 -130 54 -204 43
-104 69 -151 114 -205 19 -23 34 -46 34 -50 0 -11 77 -100 150 -173 34 -34
100 -87 146 -118 l83 -57 42 29 c48 33 82 75 104 128 16 37 15 39 -12 74 -15
21 -63 73 -106 117 -124 126 -255 310 -336 472 -46 92 -75 107 -154 78z"/>
<path d="M9129 7445 c-3 -5 -9 -21 -12 -35 -7 -29 -86 -120 -104 -120 -7 0
-16 -6 -20 -12 -4 -7 -15 -17 -24 -23 -30 -18 -194 -130 -199 -135 -3 -3 -25
-19 -50 -36 -25 -17 -73 -51 -108 -75 -35 -24 -71 -48 -80 -54 -9 -5 -19 -12
-22 -15 -12 -12 -70 -50 -76 -50 -4 0 -25 -14 -48 -30 -23 -17 -72 -53 -111
-80 -38 -27 -77 -55 -85 -62 -19 -17 -50 -36 -72 -44 -19 -7 -25 -24 -8 -24
10 0 69 38 80 51 3 4 15 9 28 13 12 4 22 12 22 17 0 5 6 9 13 9 10 0 56 29
181 112 10 7 37 27 60 44 66 48 136 94 146 94 4 0 10 3 12 8 2 4 17 16 33 28
63 44 172 119 215 148 25 16 58 42 74 58 17 15 40 28 53 28 24 0 31 -14 13
-25 -5 -3 -10 -18 -10 -33 1 -26 1 -26 16 -7 8 11 33 55 55 98 31 62 39 88 37
120 -2 23 -6 38 -9 32z"/>
<path d="M423 7042 c-27 -60 -40 -171 -23 -211 14 -34 44 -45 79 -28 82 40 97
195 25 258 -40 35 -57 31 -81 -19z"/>
<path d="M138 6949 c-6 -34 2 -89 13 -89 10 0 10 54 0 90 l-7 25 -6 -26z"/>
<path d="M170 6810 c-4 -29 2 -75 11 -84 5 -6 9 1 8 20 -1 35 -16 85 -19 64z"/>
<path d="M4760 6696 c0 -8 5 -18 10 -21 6 -3 10 3 10 14 0 12 -4 21 -10 21 -5
0 -10 -6 -10 -14z"/>
<path d="M9415 6671 c-10 -17 11 -21 31 -6 18 14 18 14 -3 15 -12 0 -24 -4
-28 -9z"/>
<path d="M4790 6650 c0 -10 24 -57 50 -97 14 -21 40 -32 40 -17 0 4 -16 29
-35 55 -19 27 -35 54 -35 59 0 6 -4 10 -10 10 -5 0 -10 -5 -10 -10z"/>
<path d="M8070 6643 c-8 -4 -33 -18 -55 -32 -53 -34 -74 -46 -112 -66 -17 -9
-39 -25 -49 -36 -9 -10 -21 -19 -27 -19 -5 0 -26 -13 -46 -28 -20 -16 -43 -32
-51 -35 -8 -4 -28 -16 -45 -27 -16 -11 -37 -23 -45 -27 -20 -9 -151 -103 -168
-120 -7 -7 -20 -13 -28 -13 -8 0 -14 -4 -14 -10 0 -15 27 -12 44 5 8 8 19 15
24 15 5 0 36 19 68 43 51 37 105 73 172 112 10 6 32 20 49 33 17 12 33 22 36
22 3 0 38 22 79 48 40 27 99 66 131 86 31 21 57 42 57 47 0 5 -1 9 -2 8 -2 0
-10 -3 -18 -6z"/>
<path d="M9330 6629 c-19 -10 -40 -19 -47 -19 -7 0 -13 -4 -13 -10 0 -5 -6
-10 -14 -10 -7 0 -59 -22 -114 -50 -56 -27 -103 -50 -105 -50 -3 0 -41 -20
-86 -45 -45 -25 -88 -45 -96 -45 -8 0 -15 -4 -15 -10 0 -14 27 -12 58 4 15 7
43 21 62 29 57 25 124 57 140 67 8 5 22 11 30 14 8 3 22 10 30 15 8 5 41 22
73 37 92 45 155 79 163 87 15 15 -32 5 -66 -14z"/>
<path d="M5407 6612 c-57 -2 -79 -7 -84 -17 -4 -11 -22 -15 -64 -15 -37 0 -59
-4 -59 -11 0 -15 115 -6 134 10 9 7 84 12 215 12 112 1 199 5 194 10 -9 9
-214 16 -336 11z"/>
<path d="M5755 6570 c28 -12 65 -12 65 0 0 6 -19 10 -42 9 -33 0 -38 -2 -23
-9z"/>
<path d="M5095 6540 c-8 -12 42 -12 70 0 16 7 11 9 -22 9 -23 1 -45 -3 -48 -9z"/>
<path d="M5005 6510 c-4 -6 6 -10 24 -10 16 0 33 5 36 10 4 6 -6 10 -24 10
-16 0 -33 -4 -36 -10z"/>
<path d="M4885 6491 c-3 -9 -22 -25 -42 -36 -88 -46 -186 -122 -177 -136 8
-13 41 -11 56 4 17 16 171 109 221 133 33 16 49 34 30 34 -5 0 -25 4 -45 9
-31 7 -38 6 -43 -8z"/>
<path d="M8790 6368 c-21 -9 -22 -12 -7 -15 23 -6 47 3 47 17 0 12 -8 12 -40
-2z"/>
<path d="M8655 6300 c-3 -6 5 -10 19 -10 14 0 28 5 31 10 3 6 -5 10 -19 10
-14 0 -28 -4 -31 -10z"/>
<path d="M8600 6270 c-12 -8 -9 -10 12 -10 15 0 30 5 33 10 8 13 -25 13 -45 0z"/>
<path d="M8510 6225 l-45 -24 33 -1 c22 0 32 5 32 15 0 10 10 15 30 15 17 0
30 5 30 10 0 16 -32 10 -80 -15z"/>
<path d="M7390 6200 c-13 -9 -13 -10 0 -10 8 0 22 5 30 10 13 9 13 10 0 10 -8
0 -22 -5 -30 -10z"/>
<path d="M8360 6153 c-41 -19 -77 -38 -80 -42 -3 -3 -25 -16 -50 -29 -25 -12
-52 -27 -60 -31 -8 -5 -58 -30 -110 -56 -138 -69 -240 -123 -254 -133 -6 -5
-23 -12 -38 -16 -16 -3 -28 -11 -28 -16 0 -6 -8 -10 -19 -10 -10 0 -24 -7 -31
-15 -7 -8 -20 -15 -29 -15 -10 0 -26 -7 -37 -15 -10 -8 -27 -15 -36 -15 -9 0
-23 -6 -30 -12 -7 -7 -35 -23 -63 -36 -27 -13 -59 -28 -70 -34 -29 -17 -226
-120 -252 -132 -13 -6 -23 -14 -23 -18 0 -5 -4 -8 -10 -8 -13 0 -13 33 -1 46
6 5 24 37 40 71 54 109 37 191 -59 281 -46 43 -48 47 -33 64 18 20 2 25 -19 5
-22 -20 -70 -40 -118 -47 -53 -8 -44 -13 62 -35 71 -16 81 -21 110 -58 29 -37
33 -48 32 -102 0 -87 -26 -128 -143 -229 -94 -81 -155 -124 -230 -162 -27 -14
-37 -15 -53 -5 -29 18 -145 16 -206 -4 -65 -22 -136 -89 -153 -145 -7 -22 -19
-46 -28 -53 -18 -16 -215 -78 -306 -97 -119 -25 -173 -29 -365 -32 l-195 -3
-5 37 c-6 45 -63 116 -111 139 -95 45 -111 49 -200 49 -99 0 -121 -9 -174 -68
l-30 -33 -22 20 c-12 12 -26 21 -30 21 -4 0 -18 11 -31 24 -12 14 -36 27 -52
31 -15 3 -31 13 -34 21 -7 19 -56 19 -56 -1 0 -8 -25 -43 -57 -78 -91 -101
-117 -130 -144 -167 -23 -30 -125 -151 -203 -240 -71 -81 -240 -285 -287 -345
-29 -38 -59 -74 -65 -80 -13 -11 -230 -300 -294 -390 -132 -188 -370 -569
-370 -593 0 -9 -55 -95 -82 -127 -103 -124 -144 -165 -222 -223 -105 -78 -143
-99 -246 -138 -63 -24 -90 -28 -170 -29 -139 0 -196 21 -282 108 -38 37 -68
74 -68 83 0 8 -4 12 -10 9 -6 -3 -10 -48 -10 -100 l0 -93 67 -61 c37 -34 74
-61 82 -61 8 0 22 -6 30 -13 9 -7 41 -21 71 -31 99 -32 494 -10 567 32 12 6
34 12 50 12 15 1 39 7 53 15 14 8 39 14 56 15 16 0 39 7 50 15 10 8 29 15 41
15 22 0 75 17 138 45 17 7 50 21 75 31 25 9 87 37 137 61 51 23 96 43 101 43
4 0 40 22 80 50 40 27 79 50 86 50 8 0 16 7 20 15 3 8 14 15 25 15 11 0 22 4
25 9 3 5 25 19 48 31 24 12 62 35 86 51 24 16 45 29 47 29 2 0 26 13 53 29 27
16 63 32 81 36 17 3 31 10 31 14 0 5 19 11 43 14 23 2 49 8 58 11 28 12 67
-33 114 -129 25 -51 45 -101 45 -110 0 -9 5 -25 10 -36 6 -10 15 -38 20 -61 5
-24 20 -86 34 -138 23 -85 26 -114 26 -277 0 -100 -4 -184 -9 -187 -5 -3 -12
-34 -16 -68 -6 -57 -19 -108 -47 -193 -6 -16 -14 -48 -18 -70 -9 -44 -95 -301
-109 -325 -5 -9 -12 -30 -16 -48 -3 -18 -11 -32 -16 -32 -5 0 -9 -11 -9 -24 0
-14 -7 -31 -15 -40 -8 -8 -15 -22 -15 -31 0 -9 -6 -29 -13 -43 -44 -86 -52
-109 -50 -148 1 -37 25 -100 42 -114 4 -3 17 -18 29 -34 17 -23 22 -43 24
-100 l1 -71 6 64 c6 59 9 66 48 100 23 20 66 49 95 65 87 48 251 130 288 144
207 79 298 99 502 112 331 21 582 -8 833 -98 51 -18 271 -121 292 -136 1 -1
-8 -29 -20 -63 -18 -53 -19 -63 -7 -78 13 -16 15 -16 21 2 4 10 8 29 8 41 1
13 7 38 15 55 69 162 76 194 75 367 0 85 -4 189 -10 230 -5 41 -12 102 -15
135 -3 33 -11 85 -19 115 -8 30 -17 76 -20 102 -3 26 -10 50 -16 53 -5 4 -9
30 -9 58 -1 29 -7 63 -15 77 -8 14 -14 42 -15 62 0 21 -6 55 -14 75 -8 21 -17
59 -21 85 -3 26 -10 50 -16 53 -5 4 -9 19 -9 34 0 35 -39 164 -109 362 -28 79
-65 156 -166 344 -82 153 -98 181 -111 196 -8 8 -14 19 -14 23 0 10 -114 196
-168 276 -53 77 -140 178 -219 253 -29 28 -53 58 -53 68 0 18 60 69 82 69 8 0
18 4 24 9 11 12 150 81 279 140 50 23 97 45 105 50 8 4 51 27 95 51 150 82
185 103 185 113 0 4 6 7 13 7 8 0 27 11 43 25 l29 25 3 141 c3 127 1 146 -18
191 -12 27 -19 56 -16 63 5 13 143 85 164 85 12 0 71 31 112 60 14 9 61 34
105 54 44 20 87 40 95 45 52 28 189 107 210 121 14 9 35 20 48 24 12 4 22 12
22 17 0 5 11 9 24 9 14 0 28 5 31 11 4 5 17 14 28 20 12 5 29 13 37 18 8 5 65
33 125 62 61 29 112 56 115 59 3 3 41 23 85 45 44 22 82 43 85 47 3 3 18 10
33 13 15 4 29 11 32 15 7 12 156 80 174 80 6 0 11 5 11 10 0 6 6 10 13 10 6 0
26 7 42 16 17 9 80 41 140 72 61 31 112 60 113 64 2 4 9 8 15 8 18 0 217 102
217 112 0 16 -36 6 -110 -29z m-3545 -964 c4 -11 19 -25 33 -32 15 -6 47 -27
71 -46 24 -19 66 -46 94 -60 28 -14 52 -31 54 -37 2 -5 -18 -21 -44 -34 -27
-13 -79 -45 -118 -71 -63 -44 -71 -47 -90 -34 -46 33 -135 84 -157 90 -12 4
-33 14 -46 22 l-23 14 27 37 c15 20 44 55 64 77 20 22 44 52 53 68 22 34 72
38 82 6z m1554 -163 c11 -27 14 -181 5 -256 l-6 -58 -87 -44 c-47 -23 -90 -49
-94 -55 -4 -7 -14 -13 -22 -13 -8 0 -31 -12 -52 -26 -21 -14 -47 -30 -58 -35
-11 -5 -40 -21 -64 -34 -24 -14 -50 -25 -57 -25 -7 0 -19 -6 -26 -14 -8 -7
-29 -17 -46 -21 -18 -3 -32 -11 -32 -16 0 -5 -9 -9 -19 -9 -19 0 -222 -97
-231 -111 -3 -4 -18 -11 -33 -14 -15 -4 -27 -11 -27 -16 0 -5 -7 -9 -15 -9 -8
0 -15 4 -15 10 0 5 -12 13 -27 16 -16 4 -31 12 -35 18 -7 10 -75 12 -85 2 -13
-13 9 -55 34 -65 16 -6 35 -15 43 -21 8 -5 44 -26 79 -46 81 -47 199 -159 256
-244 24 -36 55 -77 68 -91 14 -14 28 -35 31 -47 4 -12 11 -22 16 -22 5 0 11
-14 15 -30 4 -17 10 -28 15 -25 5 3 11 -8 15 -24 3 -16 13 -32 21 -35 8 -3 14
-15 14 -26 0 -11 5 -20 10 -20 6 0 14 -8 17 -17 4 -10 19 -39 35 -64 15 -25
28 -53 28 -62 0 -8 4 -17 8 -19 10 -4 19 -19 90 -165 29 -59 59 -121 67 -136
8 -16 15 -36 15 -46 0 -9 5 -22 12 -29 11 -11 17 -26 49 -112 7 -19 18 -49 26
-67 7 -17 13 -41 13 -53 0 -12 7 -28 15 -36 8 -9 15 -29 15 -45 0 -16 4 -29 9
-29 5 0 12 -25 16 -55 3 -30 10 -55 15 -55 5 0 12 -31 16 -70 3 -38 10 -67 14
-65 5 3 11 -25 14 -62 4 -38 11 -81 17 -98 6 -16 13 -66 16 -110 3 -44 10 -89
16 -100 6 -11 14 -65 18 -120 5 -55 13 -125 18 -155 11 -61 15 -449 5 -474 -8
-22 -21 -20 -58 7 -17 12 -53 33 -81 47 -27 14 -51 28 -53 33 -2 4 -11 7 -20
7 -9 0 -30 7 -46 15 -15 8 -36 15 -45 15 -9 0 -28 6 -42 14 -14 7 -43 16 -65
20 -21 5 -43 11 -49 16 -5 4 -37 13 -70 19 -33 6 -82 16 -110 23 -32 7 -151
11 -335 11 -256 0 -295 -3 -380 -22 -113 -26 -193 -49 -237 -67 -17 -8 -36
-14 -42 -14 -6 0 -19 -4 -29 -10 -9 -5 -39 -19 -67 -30 -54 -23 -100 -46 -155
-79 -19 -12 -47 -26 -62 -32 -16 -6 -28 -15 -28 -20 0 -5 -7 -9 -16 -9 -9 0
-33 -13 -54 -30 -21 -16 -41 -30 -44 -30 -3 0 -20 30 -37 66 -30 62 -31 67
-16 97 8 18 22 48 30 67 30 69 45 105 55 130 6 14 20 47 31 74 12 27 21 54 21
62 0 7 6 19 13 26 8 7 17 30 21 51 4 20 11 37 16 37 6 0 10 18 10 39 0 22 7
46 15 55 8 8 15 31 15 51 0 22 6 38 15 41 9 4 15 19 15 38 0 17 7 50 15 73 8
22 17 72 21 110 4 37 12 74 18 82 7 9 12 83 14 201 3 148 0 203 -14 266 -9 43
-19 93 -21 109 -3 17 -11 44 -19 62 -8 17 -14 40 -14 50 0 11 -7 28 -15 39 -8
10 -15 26 -15 35 0 9 -7 22 -15 29 -8 7 -15 23 -15 35 0 12 -7 28 -15 35 -8 7
-15 20 -15 29 0 10 -7 26 -15 37 -22 29 -19 63 8 74 56 25 227 173 227 198 0
5 7 12 15 16 8 3 15 12 15 20 0 8 3 16 8 18 13 6 52 67 52 81 0 8 7 20 15 27
8 7 15 25 15 39 0 15 7 36 15 47 11 15 14 56 15 191 0 145 -3 176 -17 202 -10
16 -15 32 -12 35 5 6 122 -48 144 -66 6 -5 21 -17 34 -28 27 -23 61 -26 79 -8
14 14 17 184 3 192 -5 3 -12 26 -15 51 -4 25 -14 57 -22 73 -7 15 -14 37 -14
50 0 12 -4 22 -8 22 -5 0 -14 17 -20 39 -7 21 -23 55 -37 75 -14 20 -25 39
-25 43 0 7 -58 81 -87 112 -28 29 -29 41 -4 41 10 0 21 7 25 15 3 8 12 15 20
15 8 0 19 6 23 13 4 7 37 31 73 52 36 21 67 43 68 47 5 12 60 10 67 -2 3 -5
25 -10 48 -10 23 0 83 -7 132 -15 97 -17 280 -19 385 -5 36 5 106 12 155 15
50 4 95 11 100 15 6 4 38 10 72 13 35 4 71 11 80 15 42 21 169 59 181 54 8 -2
17 -14 21 -26z m-1732 -118 c27 -13 54 -29 61 -35 7 -7 20 -13 28 -13 8 0 14
-5 14 -10 0 -6 7 -13 16 -17 9 -3 31 -21 50 -39 45 -46 154 -187 154 -201 0
-6 12 -35 26 -63 51 -103 93 -270 67 -270 -5 0 -21 9 -38 20 -16 11 -38 20
-47 20 -10 0 -18 4 -18 9 0 6 -19 13 -42 16 -38 6 -45 11 -62 48 -57 128 -180
270 -331 383 -48 36 -65 53 -65 64 0 3 16 22 35 42 19 20 35 41 35 47 0 10 21
18 52 20 10 0 39 -9 65 -21z m1760 -60 c-2 -18 -4 -6 -4 27 0 33 2 48 4 33 2
-15 2 -42 0 -60z m-1947 -126 c73 -48 178 -138 208 -178 18 -22 41 -52 53 -65
29 -33 96 -175 114 -240 51 -181 39 -414 -27 -530 -29 -52 -104 -146 -147
-186 -45 -42 -156 -123 -168 -123 -3 0 -27 -13 -52 -28 -98 -59 -131 -67 -316
-67 -132 0 -187 4 -245 18 -101 25 -175 53 -236 87 -54 32 -140 113 -150 142
-10 34 383 596 592 846 31 37 73 87 94 112 20 25 67 81 104 124 37 43 72 87
79 96 14 20 38 30 52 22 6 -4 26 -17 45 -30z m-950 -1294 c0 -5 5 -8 11 -8 5
0 24 -13 42 -30 18 -16 35 -30 39 -30 4 0 30 -13 58 -30 28 -16 56 -30 63 -30
7 0 24 -6 38 -14 14 -7 51 -17 82 -20 31 -4 59 -12 62 -17 4 -5 53 -9 111 -9
57 0 104 -3 104 -7 0 -8 -77 -43 -94 -43 -4 0 -25 -13 -45 -29 -20 -16 -56
-39 -81 -52 -25 -13 -47 -26 -50 -30 -3 -3 -36 -20 -75 -38 -38 -17 -77 -35
-85 -41 -39 -25 -174 -90 -187 -90 -8 0 -21 -7 -29 -15 -9 -8 -26 -15 -40 -15
-13 0 -24 -4 -24 -9 0 -6 -20 -13 -45 -17 -25 -3 -43 -10 -40 -14 3 -5 -14
-11 -37 -15 -24 -4 -52 -14 -63 -21 -11 -8 -32 -14 -48 -14 -16 0 -35 -7 -43
-15 -10 -10 -36 -15 -72 -15 -31 -1 -75 -7 -97 -15 -22 -8 -71 -15 -110 -15
-45 0 -77 -6 -89 -15 -27 -21 -173 -20 -200 0 -11 8 -38 15 -60 15 -60 0 -158
54 -211 116 -27 31 -41 55 -36 63 11 17 35 -13 25 -31 -4 -7 -4 -10 0 -6 5 4
31 -9 58 -28 28 -19 62 -37 77 -41 14 -3 32 -11 40 -17 19 -15 274 -13 279 3
2 6 16 11 30 12 15 0 63 20 107 44 44 25 90 49 103 55 12 5 22 14 22 20 0 5 5
10 11 10 30 0 190 151 275 260 63 80 114 162 114 183 0 17 27 70 50 99 14 17
15 17 37 -10 12 -15 22 -30 23 -34z"/>
<path d="M7340 6170 c0 -5 6 -10 14 -10 8 0 18 5 21 10 3 6 -3 10 -14 10 -12
0 -21 -4 -21 -10z"/>
<path d="M7295 6140 c-3 -5 3 -10 14 -10 12 0 21 5 21 10 0 6 -6 10 -14 10 -8
0 -18 -4 -21 -10z"/>
<path d="M7250 6110 c0 -5 4 -10 9 -10 6 0 13 5 16 10 3 6 -1 10 -9 10 -9 0
-16 -4 -16 -10z"/>
<path d="M7194 6075 c-4 -8 -12 -15 -20 -15 -8 0 -14 -5 -14 -10 0 -6 -12 -16
-27 -22 -22 -9 -24 -12 -10 -15 9 -3 35 9 56 26 21 17 44 31 50 31 6 0 11 5
11 10 0 16 -40 12 -46 -5z"/>
<path d="M6616 5991 c13 -13 126 -32 209 -36 l70 -3 -55 10 c-30 5 -69 16 -87
24 -34 16 -153 20 -137 5z"/>
<path d="M5759 5401 c-30 -4 -61 -18 -91 -41 -118 -90 -118 -190 0 -246 49
-23 62 -25 155 -21 177 7 252 40 297 128 25 48 25 64 0 105 -17 26 -33 36 -88
53 -73 22 -201 33 -273 22z"/>
<path d="M2160 5235 c0 -8 7 -15 15 -15 8 0 15 -7 15 -15 0 -8 8 -15 17 -15
13 0 10 7 -12 30 -33 34 -35 35 -35 15z"/>
<path d="M2220 5175 c0 -12 42 -46 53 -42 6 2 2 12 -11 25 -20 20 -42 29 -42
17z"/>
<path d="M2078 4370 c-4 -8 -9 -43 -13 -77 -7 -72 10 -89 20 -20 8 49 2 120
-7 97z"/>
<path d="M2068 4034 c-9 -8 2 -96 13 -108 5 -6 9 7 8 30 -1 49 -12 88 -21 78z"/>
<path d="M2101 3888 c-1 -15 4 -30 9 -33 12 -7 12 12 0 40 -8 18 -9 17 -9 -7z"/>
<path d="M2130 3813 c1 -34 81 -103 120 -103 27 0 25 16 -3 24 -13 3 -45 26
-70 51 -34 33 -47 40 -47 28z"/>
<path d="M2441 3564 c0 -11 3 -14 6 -6 3 7 2 16 -1 19 -3 4 -6 -2 -5 -13z"/>
<path d="M2411 3514 c0 -11 3 -14 6 -6 3 7 2 16 -1 19 -3 4 -6 -2 -5 -13z"/>
<path d="M2376 3455 c-3 -8 -1 -15 4 -15 6 0 10 7 10 15 0 8 -2 15 -4 15 -2 0
-6 -7 -10 -15z"/>
<path d="M2285 3237 c-4 -10 -5 -21 -1 -24 10 -10 18 4 13 24 -4 17 -4 17 -12
0z"/>
<path d="M2258 3164 c-5 -4 -8 -28 -8 -53 1 -36 3 -42 11 -28 11 19 8 93 -3
81z"/>
<path d="M6450 1023 c0 -22 2 -25 10 -13 13 20 13 40 0 40 -5 0 -10 -12 -10
-27z"/>
<path d="M4382 986 c-12 -24 -22 -51 -22 -60 0 -9 -4 -16 -9 -16 -5 0 -12 -12
-15 -27 -6 -27 -24 -68 -53 -125 -7 -14 -13 -36 -13 -47 0 -12 -4 -21 -9 -21
-5 0 -11 -18 -15 -40 -3 -22 -10 -40 -15 -40 -13 0 -23 -52 -12 -63 6 -6 12 3
16 27 4 20 11 36 16 36 5 0 9 5 9 11 0 9 13 41 50 124 5 11 19 45 30 75 26 65
47 115 66 152 16 29 18 58 6 58 -5 0 -18 -20 -30 -44z"/>
<path d="M6420 915 c0 -14 2 -25 4 -25 2 0 6 11 8 25 3 14 1 25 -3 25 -5 0 -9
-11 -9 -25z"/>
<path d="M6390 847 c0 -8 -13 -30 -30 -48 -16 -19 -30 -38 -30 -43 0 -14 -211
-218 -261 -251 -24 -16 -46 -33 -49 -36 -13 -16 -52 -29 -84 -29 -29 0 -37 -4
-42 -24 -8 -32 -1 -272 8 -282 4 -4 14 -1 23 6 12 10 15 36 15 121 l0 109 40
25 c22 14 42 25 46 25 11 0 149 108 183 144 23 24 44 36 62 36 23 0 30 6 40
38 7 20 22 53 34 72 43 68 68 137 55 145 -6 4 -10 0 -10 -8z"/>
<path d="M4187 516 c-4 -15 -6 -31 -2 -34 10 -10 16 6 13 35 l-3 28 -8 -29z"/>
<path d="M4645 530 c-3 -5 -4 -14 -1 -18 3 -5 -40 -98 -94 -208 -68 -136 -96
-202 -89 -209 19 -18 72 58 144 209 46 95 75 146 86 146 8 0 26 -12 40 -26 26
-29 114 -82 169 -102 65 -24 191 -52 235 -52 24 0 47 -5 50 -10 4 -6 -7 -33
-24 -60 -30 -48 -38 -70 -25 -70 9 0 34 27 42 47 20 46 49 84 75 96 38 17 31
42 -13 43 -240 6 -387 55 -502 166 -59 57 -81 68 -93 48z"/>
<path d="M4156 454 c-3 -9 -6 -23 -6 -32 0 -21 15 -5 25 26 7 25 -9 31 -19 6z"/>
<path d="M5490 424 c-14 -37 -26 -95 -25 -119 1 -11 2 -53 3 -93 1 -46 6 -71
12 -67 6 3 10 21 10 39 0 18 7 55 15 81 8 27 17 79 21 117 6 59 4 68 -10 68
-9 0 -21 -12 -26 -26z"/>
<path d="M4127 386 c-4 -10 -5 -21 -2 -24 9 -9 17 6 13 25 -3 17 -4 17 -11 -1z"/>
<path d="M6273 340 c0 -36 2 -50 4 -32 2 17 2 47 0 65 -2 17 -4 3 -4 -33z"/>
<path d="M4097 324 c-4 -4 -7 -14 -7 -23 0 -11 3 -12 11 -4 6 6 10 16 7 23 -2
6 -7 8 -11 4z"/>
<path d="M4065 250 c-3 -5 -1 -10 4 -10 6 0 11 5 11 10 0 6 -2 10 -4 10 -3 0
-8 -4 -11 -10z"/>
</g>
</svg>
