<?xml version="1.0" standalone="no"?>
<!DOCTYPE svg PUBLIC "-//W3C//DTD SVG 20010904//EN"
 "http://www.w3.org/TR/2001/REC-SVG-20010904/DTD/svg10.dtd">
<svg version="1.0" xmlns="http://www.w3.org/2000/svg"
 width="970.000000pt" height="1024.000000pt" viewBox="0 0 970.000000 1024.000000"
 preserveAspectRatio="xMidYMid meet">

<g transform="translate(0.000000,1024.000000) scale(0.100000,-0.100000)"
fill="#000000" stroke="none">
<path d="M5844 10156 c-63 -28 -103 -136 -110 -296 l-4 -105 -41 -7 c-137 -24
-282 -156 -416 -378 -46 -77 -212 -451 -282 -636 -133 -353 -186 -579 -227
-964 -37 -354 17 -1234 111 -1783 4 -23 0 -29 -22 -38 -15 -5 -67 -30 -116
-55 -70 -35 -92 -42 -98 -32 -27 43 -109 486 -156 843 -25 193 -27 235 -27
520 2 433 11 511 138 1165 123 637 128 669 130 825 1 156 -5 177 -71 247 -22
22 -33 43 -30 52 3 8 48 36 99 62 189 98 262 224 129 224 -52 0 -84 -19 -155
-93 -38 -40 -62 -61 -54 -47 8 14 34 57 58 95 74 121 101 203 74 225 -17 15
-97 8 -120 -11 -28 -23 -73 -124 -103 -234 -17 -59 -32 -110 -35 -113 -10 -10
-5 111 8 198 7 47 11 92 8 100 -8 25 -55 70 -72 70 -72 0 -92 -218 -34 -387
13 -42 23 -77 22 -78 -2 -1 -23 -13 -48 -25 -25 -12 -81 -59 -125 -104 -121
-122 -181 -248 -240 -501 -72 -306 -88 -428 -105 -771 -16 -342 -3 -499 76
-924 28 -148 64 -280 180 -658 80 -260 164 -526 188 -590 24 -64 52 -149 62
-188 l18 -71 -75 -86 c-41 -47 -80 -86 -87 -86 -7 -1 -39 24 -72 54 -69 64
-90 68 -186 33 l-62 -22 -38 27 c-22 14 -54 39 -72 53 -36 30 -85 35 -179 20
-52 -8 -53 -8 -90 30 -21 22 -44 48 -51 59 -27 42 -6 -82 24 -141 41 -82 67
-97 168 -104 l84 -5 71 -67 c39 -37 82 -70 95 -74 13 -3 59 1 102 10 98 20
112 11 63 -42 -20 -20 -55 -62 -80 -92 -69 -86 -357 -418 -423 -487 l-59 -63
-201 0 c-111 0 -235 -5 -276 -10 -66 -9 -78 -14 -112 -47 -43 -42 -63 -98 -55
-154 l5 -37 -194 -7 c-106 -4 -280 -5 -386 -2 -284 7 -318 21 -358 157 -41
139 -75 473 -52 516 8 15 29 22 92 32 160 25 348 100 455 181 28 21 86 71 129
112 178 166 265 298 307 469 48 189 -5 383 -150 551 -147 171 -370 229 -475
124 -20 -20 -20 -73 -2 -143 19 -69 10 -89 -55 -125 -35 -19 -55 -38 -65 -62
-19 -47 -18 -70 11 -154 13 -41 23 -77 20 -81 -2 -4 -27 -10 -54 -14 -27 -3
-53 -12 -58 -19 -15 -20 -33 -90 -39 -158 -4 -35 -13 -77 -21 -92 -17 -33 -67
-57 -120 -57 -54 0 -153 57 -176 101 -24 46 -16 85 40 180 71 122 61 186 -36
241 -31 17 -58 33 -60 34 -11 9 27 67 74 114 87 86 87 132 0 278 -72 120 -69
128 52 137 122 9 168 27 193 76 23 44 25 77 8 165 -16 88 -9 95 79 78 169 -33
231 -7 249 103 18 114 -99 348 -243 485 -132 125 -262 185 -475 217 -196 30
-376 29 -499 -3 -258 -68 -442 -170 -626 -349 -209 -203 -269 -329 -324 -678
-76 -484 48 -1001 318 -1326 82 -98 151 -158 265 -229 243 -151 464 -223 683
-224 l51 0 82 -287 c95 -332 131 -416 222 -516 72 -78 107 -92 260 -102 102
-7 417 7 675 30 265 24 233 29 255 -35 11 -30 19 -58 20 -62 0 -5 -19 -8 -43
-8 -62 0 -146 -27 -173 -57 -33 -36 -50 -124 -36 -192 14 -64 22 -48 -121
-239 -220 -295 -348 -534 -393 -734 -43 -189 18 -450 155 -668 119 -190 411
-496 581 -610 52 -34 108 -74 123 -89 62 -57 73 -115 40 -216 -11 -33 -26 -84
-33 -113 -12 -50 -11 -55 10 -77 12 -12 61 -38 108 -55 48 -18 92 -37 98 -41
6 -5 16 -35 23 -66 19 -85 94 -272 159 -396 47 -89 65 -113 101 -138 25 -16
48 -29 52 -29 20 0 79 65 106 117 17 32 47 121 67 198 20 77 41 154 47 171 l9
31 129 9 c80 6 135 15 145 23 10 9 16 29 16 57 0 29 4 44 13 44 6 0 103 -16
214 -34 196 -33 205 -34 360 -26 87 5 182 9 211 10 l52 0 0 -54 c0 -51 2 -57
36 -82 20 -16 80 -40 142 -59 l107 -31 37 -110 c93 -271 170 -437 236 -506 33
-35 40 -38 92 -38 42 0 61 5 73 18 9 9 41 69 71 132 42 89 63 150 91 265 19
83 39 159 44 171 7 16 27 24 97 38 49 9 109 27 134 39 l45 22 -1 66 c-1 37
-18 137 -39 224 -20 87 -33 161 -28 165 4 4 42 19 85 33 146 48 790 426 862
506 11 12 22 21 27 21 4 0 52 -44 106 -99 171 -171 365 -276 650 -352 382
-101 674 -74 1008 91 320 158 531 398 619 702 31 109 49 288 37 388 -11 93
-75 327 -109 398 -33 67 -130 174 -191 210 -41 24 -55 27 -141 27 -136 -1
-174 -25 -228 -146 l-29 -65 -59 -13 c-32 -8 -69 -18 -81 -24 -27 -12 -47 -71
-62 -190 -15 -105 -52 -177 -92 -177 -13 0 -29 21 -53 68 -19 38 -51 83 -72
101 -34 31 -41 33 -93 29 -45 -4 -69 -13 -126 -50 -114 -73 -119 -72 -128 33
-3 36 -15 90 -27 121 -18 49 -26 58 -61 72 -21 9 -51 16 -64 16 -14 0 -25 3
-25 7 0 4 19 35 41 70 46 70 62 76 117 43 54 -33 99 -22 156 39 17 17 32 31
35 31 4 0 31 -20 61 -45 80 -66 118 -62 176 16 43 59 72 63 124 19 46 -40 80
-39 130 6 58 53 83 127 77 229 -13 206 -163 408 -382 515 -183 89 -319 101
-529 46 -55 -14 -101 -24 -103 -22 -2 2 41 93 95 202 53 110 113 245 132 301
l35 103 -26 26 c-24 24 -47 29 -230 59 -112 18 -292 49 -399 68 -170 31 -267
47 -386 63 -20 3 -55 27 -105 72 l-74 69 -309 17 c-171 10 -316 20 -323 23 -6
3 -44 64 -84 136 -88 161 -159 268 -193 290 -14 9 -39 17 -55 17 -36 0 -57 25
-95 113 -24 57 -33 68 -67 81 -22 9 -44 16 -50 16 -30 0 -74 48 -104 114 -48
103 -80 138 -130 138 -22 1 -57 -2 -77 -7 -35 -7 -42 -3 -145 71 -168 121
-149 83 -157 322 -7 201 -6 217 33 552 65 552 96 728 172 1000 78 278 147 446
441 1070 113 239 215 464 227 500 27 81 37 191 22 247 -6 23 -26 64 -45 91
l-33 49 116 8 c123 7 160 19 187 60 16 24 15 27 -1 45 -27 30 -89 43 -169 35
l-70 -7 69 60 c39 33 83 71 99 84 53 45 34 118 -31 118 -48 0 -88 -24 -165
-98 -38 -36 -68 -62 -68 -58 0 3 11 24 25 46 14 22 31 60 37 86 12 44 11 47
-11 65 -27 22 -36 23 -77 5z m-3 -527 c47 -24 78 -81 79 -144 0 -114 -86 -334
-320 -815 -171 -353 -198 -417 -278 -675 -191 -610 -284 -1162 -285 -1680 0
-266 21 -509 55 -618 10 -35 9 -39 -15 -65 -14 -15 -40 -35 -56 -45 l-30 -18
-10 38 c-18 69 -60 296 -80 438 -25 170 -87 951 -96 1200 -18 536 80 1104 277
1595 72 178 207 450 277 556 112 170 236 252 384 253 40 1 70 -5 98 -20z
m-1271 -197 c53 -26 70 -67 79 -179 8 -111 -1 -198 -55 -523 -34 -204 -114
-638 -149 -800 -33 -158 -47 -407 -42 -735 5 -311 18 -467 58 -735 44 -288
127 -655 160 -701 25 -35 24 -70 -2 -103 -18 -23 -67 -56 -84 -56 -3 0 -5 11
-5 24 0 13 -30 107 -66 208 -184 515 -395 1315 -449 1703 -42 309 -45 549 -10
855 37 326 73 483 151 661 66 150 203 356 257 386 32 18 117 16 157 -5z
m-3263 -1778 c72 -44 98 -98 98 -199 0 -70 -4 -85 -27 -121 -41 -63 -123 -158
-181 -210 -100 -90 -270 -269 -328 -346 -32 -43 -99 -159 -150 -259 -97 -191
-124 -230 -170 -254 -60 -32 -106 -16 -143 48 -81 141 -93 348 -31 562 40 136
63 189 140 317 139 230 238 332 410 420 137 70 167 78 257 75 65 -3 85 -8 125
-33z m1303 -1791 c46 -27 56 -55 42 -120 -21 -102 -66 -180 -150 -263 -89 -88
-168 -131 -274 -151 -83 -15 -118 -4 -118 38 0 37 37 85 133 173 46 41 112
111 147 154 78 95 166 186 181 186 6 0 24 -8 39 -17z m3508 -1039 c-9 -19 -9
-27 1 -37 10 -9 16 -7 31 11 17 20 26 22 127 22 59 0 213 -3 342 -7 225 -6
235 -7 260 -29 14 -13 20 -24 14 -24 -7 0 -13 5 -13 10 0 22 -42 8 -79 -25
-46 -42 -71 -105 -71 -182 0 -68 54 -182 95 -201 57 -26 96 -1 60 38 -26 29
-4 50 51 50 l43 0 -14 -47 c-19 -64 -59 -99 -122 -108 -40 -5 -77 1 -189 30
-76 20 -177 50 -224 67 -112 39 -140 45 -140 25 0 -17 56 -62 100 -81 22 -9
57 -52 126 -152 121 -176 227 -351 220 -363 -8 -13 -202 -97 -326 -141 -134
-48 -610 -168 -873 -221 -152 -30 -260 -45 -438 -59 -219 -17 -257 -17 -530
-4 -335 16 -374 22 -640 109 -304 100 -577 221 -740 330 -54 36 -100 69 -103
74 -11 18 376 564 447 629 l25 24 31 -101 c32 -101 32 -101 64 -101 38 0 64
16 128 77 l46 44 6 -28 c3 -16 11 -87 17 -158 6 -72 13 -140 16 -153 6 -29 39
-62 63 -62 22 0 182 114 304 217 l88 75 167 -98 c192 -112 409 -226 466 -244
50 -16 40 -30 181 242 l110 211 210 68 c212 70 394 151 575 257 47 27 88 48
92 45 4 -2 2 -15 -4 -29z m-2457 -170 c19 -23 90 -70 122 -80 l27 -9 -69 -73
c-38 -39 -74 -72 -79 -72 -6 0 -14 21 -17 48 -3 26 -12 75 -19 109 -16 79 1
118 35 77z m-121 -11 c0 -11 -252 -328 -299 -378 -21 -22 -53 -61 -70 -87 -39
-59 -61 -61 -96 -11 -47 71 -19 100 40 43 l32 -31 27 36 c64 84 68 139 20 259
-34 86 -97 141 -120 105 -3 -6 0 -18 9 -26 13 -14 13 -19 -5 -49 -40 -67 -90
-33 -74 50 9 47 45 69 136 82 85 13 400 18 400 7z m1640 -177 c0 -9 -86 -180
-139 -278 -40 -75 -58 -98 -73 -98 -33 0 -507 275 -494 287 2 2 98 13 213 24
114 11 267 30 338 43 145 27 155 28 155 22z m2426 -107 c31 -7 58 -18 61 -24
8 -22 -46 -139 -186 -400 -238 -445 -279 -519 -289 -523 -5 -1 -43 50 -84 115
-109 172 -111 176 -98 224 15 53 -1 131 -36 176 -39 51 -91 73 -173 73 l-70 0
-31 45 c-48 70 -131 217 -126 223 3 2 47 -5 98 -17 159 -36 213 -27 292 52 32
32 47 56 51 84 4 21 8 43 10 48 3 11 465 -50 581 -76z m-4546 -337 c0 -5 -6
-17 -14 -27 -12 -16 -16 -17 -29 -6 -35 28 -50 -20 -21 -65 21 -31 316 -235
408 -281 99 -50 211 -91 451 -166 336 -104 530 -136 901 -144 330 -7 470 7
968 98 358 65 828 215 1009 321 105 61 118 75 115 121 -3 39 -5 42 -32 42 -16
0 -31 6 -34 14 -7 20 64 8 98 -17 57 -41 87 -156 55 -206 -20 -29 -12 -51 47
-131 24 -33 71 -103 105 -156 l62 -96 -79 -184 c-102 -238 -115 -298 -115
-534 0 -146 4 -205 24 -310 27 -149 64 -287 97 -362 l23 -52 -54 -49 c-85 -78
-169 -134 -351 -234 -179 -98 -484 -238 -520 -238 -12 0 -27 7 -34 15 -7 8
-25 15 -41 15 -34 0 -36 -13 -14 -67 8 -19 15 -50 15 -68 0 -19 4 -35 9 -37 5
-1 24 -83 41 -181 35 -197 36 -196 -29 -223 -58 -25 -421 -31 -581 -10 -195
26 -410 84 -410 111 0 7 -3 27 -6 44 l-7 31 74 0 c103 0 429 50 429 66 0 19
-25 24 -123 24 l-92 1 99 43 c55 23 102 48 104 54 8 24 -31 24 -121 -1 -475
-130 -894 -140 -1296 -31 -248 67 -424 160 -700 368 -41 31 -80 56 -88 56 -30
0 -9 -37 49 -90 34 -30 78 -70 97 -88 l36 -33 -32 15 c-38 19 -89 21 -99 4
-17 -26 133 -111 261 -146 39 -11 117 -46 174 -77 58 -32 119 -62 135 -67 84
-27 86 -28 86 -70 l0 -40 -102 7 c-57 3 -138 10 -180 15 -127 15 -611 140
-635 164 -4 3 7 61 23 129 32 138 36 196 14 222 -8 10 -64 55 -125 100 -137
103 -362 309 -436 401 -138 170 -277 421 -304 549 -31 148 -9 335 62 525 38
102 171 336 184 323 43 -46 118 -161 113 -173 -13 -33 -9 -45 16 -45 22 0 35
18 110 165 47 91 96 183 108 205 30 53 28 76 -9 111 -17 16 -51 60 -76 98 -57
85 -66 139 -35 210 l21 46 100 0 c56 0 101 -4 101 -8z m5017 -292 c30 0 50 -7
73 -27 29 -24 32 -31 27 -66 -6 -46 -33 -72 -117 -116 -82 -43 -206 -139 -282
-219 -79 -83 -119 -108 -148 -92 -54 29 -63 90 -30 209 36 127 86 209 158 253
39 24 223 68 257 62 11 -2 39 -4 62 -4z m1115 -1360 c83 -23 146 -147 134
-263 -20 -190 -229 -417 -502 -547 -180 -86 -249 -104 -399 -104 -121 -1 -134
1 -187 26 -94 44 -126 91 -102 153 4 8 68 59 143 112 169 120 250 185 416 333
324 289 381 322 497 290z"/>
<path d="M5053 8451 c-71 -45 -113 -151 -113 -289 0 -85 15 -128 59 -165 82
-68 166 -1 226 181 22 67 26 97 23 148 -4 58 -8 68 -40 100 -45 46 -106 56
-155 25z m105 -61 c23 -14 32 -27 32 -46 0 -23 -2 -24 -15 -10 -22 21 -83 31
-117 18 -21 -8 -28 -7 -28 2 0 24 40 50 85 55 6 0 25 -8 43 -19z"/>
<path d="M4213 8479 c-90 -45 -128 -131 -128 -290 0 -89 2 -99 30 -145 l31
-49 66 -3 66 -3 32 46 c66 96 97 254 70 363 -21 90 -87 122 -167 81z m98 -78
c21 -17 22 -20 7 -26 -9 -4 -24 -2 -34 3 -9 5 -37 7 -63 5 l-46 -5 30 21 c38
26 76 27 106 2z"/>
<path d="M3119 3515 c-18 -10 -40 -47 -78 -132 -140 -312 -141 -313 -112 -313
11 0 24 7 29 15 7 13 24 6 105 -43 132 -81 127 -75 127 -143 l0 -59 60 -37 61
-38 -8 -95 c-15 -190 -8 -494 15 -639 23 -140 43 -195 105 -292 47 -74 96
-115 187 -157 83 -39 155 -51 190 -32 22 12 23 16 17 109 -3 53 -20 161 -37
240 -16 80 -35 206 -42 281 -10 118 -9 151 6 250 28 189 17 170 95 170 78 0
104 15 136 75 19 34 23 36 55 31 73 -12 378 -37 725 -61 308 -20 387 -23 545
-15 102 5 202 12 222 14 33 4 41 0 59 -25 11 -16 25 -29 30 -29 5 0 9 31 9 68
0 76 -35 376 -51 435 -12 44 -17 45 -174 22 -193 -28 -778 -12 -1097 30 -97
13 -181 26 -187 29 -6 4 -13 23 -16 44 -4 20 -10 47 -15 58 -21 52 -417 192
-595 210 -51 5 -68 3 -103 -15 -22 -11 -45 -28 -50 -37 -7 -13 -20 -6 -82 40
-78 59 -90 63 -131 41z m472 -95 c143 -36 389 -127 406 -149 22 -29 25 -80 10
-148 -9 -38 -25 -113 -37 -168 -33 -151 -78 -283 -100 -295 -10 -5 -30 -10
-45 -10 -57 0 -349 94 -486 157 -80 36 -99 58 -99 111 0 49 30 166 54 217 14
27 34 88 46 135 23 90 48 141 83 165 28 20 29 20 168 -15z m-46 -744 c85 -29
158 -56 161 -59 3 -3 0 -23 -7 -44 -10 -27 -14 -103 -14 -273 0 -250 4 -283
57 -503 25 -103 28 -133 20 -153 -17 -35 -41 -31 -153 27 -104 54 -146 92
-188 176 -36 73 -50 149 -68 372 -14 185 -15 236 -4 356 13 141 15 155 31 155
4 0 79 -24 165 -54z"/>
<path d="M3434 3315 c-17 -26 -42 -110 -80 -265 -22 -91 -10 -126 59 -173 68
-47 242 -105 327 -109 l65 -3 32 65 c40 79 70 195 79 299 l7 77 -39 25 c-71
46 -233 94 -353 104 -78 7 -79 7 -97 -20z"/>
<path d="M3626 2588 c-49 -180 -42 -456 19 -718 17 -75 25 -128 21 -152 -6
-35 -4 -38 18 -38 37 0 39 25 12 146 -44 197 -50 261 -43 527 6 217 5 247 -8
247 -9 0 -17 -6 -19 -12z"/>
<path d="M6725 3483 c-135 -70 -427 -178 -600 -222 -178 -45 -180 -46 -183
-74 -2 -16 3 -46 12 -66 13 -35 55 -254 71 -379 6 -47 10 -53 29 -50 15 2 22
11 24 34 3 30 7 32 80 54 214 61 533 176 700 251 75 34 179 107 187 131 4 12
-30 71 -107 183 -127 185 -125 184 -213 138z"/>
</g>
</svg>
