<?xml version="1.0" standalone="no"?>
<!DOCTYPE svg PUBLIC "-//W3C//DTD SVG 20010904//EN"
 "http://www.w3.org/TR/2001/REC-SVG-20010904/DTD/svg10.dtd">
<svg version="1.0" xmlns="http://www.w3.org/2000/svg"
 width="1600.000000pt" height="2140.000000pt" viewBox="0 0 1600.000000 2140.000000"
 preserveAspectRatio="xMidYMid meet">
<metadata>
Created by potrace 1.16, written by Peter Selinger 2001-2019
</metadata>
<g transform="translate(0.000000,2140.000000) scale(0.100000,-0.100000)"
fill="#000000" stroke="none">
<path d="M8977 21353 c-30 -102 -169 -659 -222 -893 -30 -135 -57 -255 -60
-266 -4 -19 -9 -21 -47 -13 -76 15 -331 22 -360 10 -17 -6 -34 -25 -43 -48
-21 -49 -30 -170 -16 -206 10 -27 11 -27 78 -21 58 6 311 -11 321 -21 2 -2
-17 -115 -41 -252 -107 -585 -159 -974 -223 -1649 l-5 -61 -106 -22 c-58 -12
-142 -34 -185 -47 -78 -25 -80 -27 -101 -72 -27 -61 -36 -217 -14 -246 14 -19
16 -18 111 8 90 26 268 66 273 62 2 -1 -2 -135 -8 -297 -11 -297 -6 -668 12
-989 12 -221 38 -557 45 -591 5 -24 2 -26 -53 -38 -90 -20 -247 -79 -260 -98
-39 -52 22 -293 74 -293 9 0 74 19 144 42 71 22 131 39 133 37 1 -2 15 -85 30
-184 61 -406 135 -747 222 -1036 31 -101 57 -192 58 -203 1 -16 -15 -22 -111
-41 -61 -12 -116 -25 -121 -29 -44 -27 9 -282 63 -303 8 -3 72 6 142 20 71 14
131 22 135 19 3 -4 34 -106 68 -227 140 -498 186 -644 262 -820 l35 -79 -111
-48 c-423 -184 -802 -509 -1001 -859 l-20 -37 -95 106 c-179 200 -468 497
-643 661 l-176 165 47 40 c116 100 152 141 152 177 0 52 -52 120 -129 170 -62
40 -89 38 -136 -12 -22 -22 -70 -67 -107 -100 l-66 -59 -84 72 c-361 316 -872
718 -1278 1008 -80 57 -149 107 -154 111 -5 4 5 25 21 46 17 21 47 64 68 95
35 53 36 59 25 92 -24 73 -144 176 -206 176 -13 0 -40 -29 -82 -87 -34 -49
-71 -98 -81 -111 l-19 -22 -154 98 c-304 196 -639 385 -1075 609 -208 107
-612 304 -645 315 -6 2 8 36 32 78 59 101 120 235 120 265 0 13 -10 34 -22 46
-56 53 -208 96 -254 71 -11 -6 -30 -37 -43 -69 -28 -67 -118 -240 -130 -248
-5 -2 -73 23 -152 56 -443 188 -985 385 -1411 514 -101 30 -100 12 -18 176 27
56 50 110 50 120 0 46 -115 102 -200 97 l-55 -3 -66 -130 c-36 -71 -68 -136
-70 -143 -3 -9 -63 3 -233 47 -320 84 -751 183 -778 179 -20 -3 -23 -9 -23
-42 l0 -40 265 -86 c239 -78 668 -228 679 -237 7 -6 -36 -90 -90 -173 -27 -42
-49 -84 -49 -92 0 -40 92 -89 181 -96 l65 -4 31 38 c17 22 54 81 83 132 30 51
58 91 64 89 449 -175 919 -379 1433 -622 l121 -57 -58 -92 c-31 -50 -74 -124
-95 -164 l-38 -73 20 -27 c41 -56 187 -106 257 -88 17 4 33 21 47 49 43 85
143 247 153 247 16 0 441 -231 665 -362 202 -118 533 -331 701 -451 182 -130
380 -279 380 -286 0 -4 -32 -48 -70 -97 -39 -49 -73 -99 -76 -110 -17 -64 128
-214 206 -214 20 0 39 19 92 88 37 48 77 98 88 111 l20 23 38 -28 c83 -64
1002 -801 1067 -857 39 -33 127 -112 196 -175 l126 -116 -59 -74 c-64 -81 -88
-121 -88 -150 0 -26 51 -102 91 -136 42 -36 112 -68 132 -61 8 4 35 36 60 73
26 38 58 79 73 92 l26 25 81 -85 c45 -47 192 -203 326 -345 135 -143 348 -364
473 -490 l228 -231 -21 -119 c-27 -153 -37 -484 -20 -676 48 -536 236 -1142
541 -1744 98 -193 172 -326 362 -650 186 -317 472 -823 597 -1055 134 -247
316 -609 309 -615 -6 -6 -428 203 -633 315 -104 56 -404 224 -665 373 -261
148 -563 312 -670 364 -107 51 -230 115 -272 140 l-78 47 24 25 c95 99 65 284
-56 347 -26 13 -28 19 -28 73 0 32 -11 102 -25 155 -47 188 -132 319 -241 372
-48 23 -63 26 -123 22 -94 -7 -156 -42 -261 -148 -223 -226 -258 -448 -109
-681 82 -127 297 -318 549 -486 328 -219 715 -435 2040 -1135 234 -124 520
-276 637 -338 l211 -112 82 -217 c213 -561 336 -987 580 -2016 170 -716 237
-979 326 -1280 67 -224 94 -371 94 -506 0 -134 -21 -234 -101 -494 -136 -443
-161 -552 -163 -705 -1 -91 2 -111 22 -152 34 -69 58 -81 156 -76 73 3 92 8
167 45 134 67 237 140 334 237 195 195 315 438 425 857 70 264 123 349 220
349 26 0 77 -8 112 -17 51 -14 105 -17 283 -17 257 1 374 18 576 84 237 77
434 190 637 365 88 75 116 94 126 86 19 -16 62 -115 80 -183 8 -31 19 -109 26
-174 6 -66 15 -165 21 -220 22 -227 93 -381 194 -420 39 -15 51 -15 92 -3 125
34 260 255 338 554 52 196 68 325 62 485 -8 206 -48 371 -169 692 l-70 187 42
101 c176 430 286 886 342 1420 18 170 18 877 0 1060 -52 526 -142 961 -323
1551 l-60 196 134 204 c320 485 626 1027 942 1664 347 701 492 1045 540 1273
22 109 20 303 -5 383 -47 155 -166 273 -352 350 -241 100 -421 55 -504 -126
-77 -168 -47 -415 68 -558 26 -34 29 -42 19 -63 -15 -35 -14 -110 3 -142 34
-64 120 -122 181 -122 33 0 36 -2 30 -21 -30 -93 -242 -519 -420 -844 -194
-353 -620 -1082 -792 -1352 l-39 -62 -87 277 c-197 623 -205 645 -419 1117
-105 230 -330 686 -403 815 -23 41 -76 145 -118 230 -82 169 -176 333 -355
620 -166 266 -458 699 -546 810 -240 300 -544 535 -953 736 -73 36 -133 69
-133 73 0 4 7 52 15 107 18 121 20 285 3 302 -7 7 -24 12 -39 12 -22 0 -31 -8
-49 -45 -20 -42 -67 -88 -116 -113 -21 -11 -22 -8 -34 52 -7 36 -9 78 -5 96 9
39 -8 60 -46 60 -30 0 -30 0 -60 -78 -12 -33 -63 -92 -79 -92 -4 0 -16 44 -26
98 -9 53 -22 103 -27 110 -5 6 -22 12 -37 12 -27 0 -31 -7 -95 -167 l-67 -168
-191 4 c-150 2 -398 -9 -471 -22 -15 -3 -374 908 -401 1016 l-7 27 105 0 c136
0 142 4 134 110 -5 81 -35 166 -68 196 -17 15 -34 16 -148 10 l-128 -7 -43
153 c-23 84 -58 225 -76 313 -19 88 -50 230 -70 315 -30 131 -120 559 -137
656 -6 29 -5 30 36 32 145 8 293 24 302 33 29 29 -2 218 -47 274 l-22 28 -110
-7 c-61 -4 -132 -9 -158 -13 -44 -5 -47 -4 -52 18 -21 92 -85 840 -106 1219
-5 107 -14 278 -20 379 -5 102 -10 195 -10 207 0 23 1 23 148 26 l147 3 24 48
c17 35 25 71 29 136 7 136 15 131 -187 131 l-168 0 -7 46 c-10 73 -7 778 4
1031 9 206 31 557 47 738 l6 70 111 -22 c61 -12 117 -22 124 -23 39 -1 83 164
62 239 -6 22 -13 41 -15 41 -9 0 -221 41 -238 46 -13 4 -16 13 -12 42 38 269
54 368 100 612 65 342 87 491 83 556 -3 49 -3 49 -40 52 -36 3 -37 2 -51 -45z
m1483 -8758 c0 -17 -87 -175 -141 -256 -117 -175 -279 -312 -482 -409 -169
-81 -307 -108 -682 -135 -246 -18 -362 -35 -477 -71 -115 -36 -138 -49 -138
-79 0 -21 11 -30 73 -58 39 -19 83 -43 97 -55 l25 -21 -75 -76 c-41 -42 -92
-88 -113 -101 -28 -18 -37 -31 -35 -46 4 -29 18 -34 131 -51 112 -17 153 -37
137 -67 -6 -11 -39 -40 -75 -65 -76 -55 -86 -86 -34 -104 39 -13 247 -14 309
-1 57 12 321 42 327 37 2 -2 -4 -35 -14 -73 -13 -53 -17 -112 -17 -259 0 -168
3 -205 27 -315 38 -179 95 -340 192 -535 309 -627 761 -1004 1319 -1100 119
-20 364 -20 487 1 435 74 822 356 1022 743 67 129 101 223 133 361 137 600
-74 1285 -530 1718 -252 239 -542 373 -867 402 -68 6 -124 12 -125 13 -2 2 13
30 33 62 46 76 115 223 138 295 10 30 19 57 21 59 1 1 76 -35 166 -81 314
-162 514 -303 713 -502 149 -149 239 -266 452 -586 288 -432 474 -742 628
-1045 322 -632 414 -818 532 -1080 197 -436 217 -485 292 -737 38 -128 142
-453 231 -723 326 -990 444 -1458 510 -2013 118 -1000 -46 -2075 -437 -2856
-151 -302 -307 -522 -512 -726 -298 -296 -611 -456 -999 -511 -117 -16 -483
-6 -537 15 -55 21 -141 20 -190 -3 -51 -23 -111 -89 -142 -158 -14 -30 -51
-150 -83 -266 -87 -319 -149 -473 -250 -622 -108 -159 -255 -285 -435 -375
-122 -60 -179 -71 -215 -42 -22 18 -25 29 -28 105 -6 133 19 246 163 727 37
124 75 263 86 310 42 191 15 382 -121 855 -67 231 -155 581 -285 1130 -130
547 -214 881 -295 1165 -69 242 -226 717 -293 888 -25 61 -43 112 -40 112 3 0
73 -36 154 -80 125 -68 152 -79 169 -70 28 15 25 45 -7 68 -48 34 -532 293
-1693 907 -1147 607 -1596 873 -1881 1115 -308 261 -372 468 -218 700 55 81
151 174 212 205 148 74 274 -21 347 -263 32 -104 26 -238 -12 -303 -42 -71
-120 -115 -238 -134 -58 -9 -80 -21 -80 -44 0 -42 43 -49 156 -26 28 6 33 3
52 -29 28 -47 91 -91 152 -106 29 -7 84 -35 132 -67 46 -31 182 -104 303 -163
213 -104 352 -180 860 -470 648 -370 1010 -553 1411 -714 105 -42 203 -76 217
-76 17 0 31 8 38 21 16 32 -8 49 -131 94 -58 21 -132 50 -166 64 l-61 26 -176
350 c-199 395 -359 688 -664 1210 -334 574 -492 865 -609 1128 -352 788 -484
1497 -393 2110 l11 76 60 -51 c48 -43 62 -50 76 -41 10 6 17 24 18 41 0 43
207 292 235 285 23 -6 49 13 49 37 0 9 -46 73 -102 141 -57 68 -109 132 -116
141 -12 15 -9 25 23 78 21 34 63 97 96 140 302 408 744 692 1290 830 115 29
321 66 409 73 74 6 500 7 500 2z m731 -710 c550 -96 1050 -630 1188 -1270 46
-209 52 -478 16 -678 -93 -516 -461 -928 -959 -1071 -447 -130 -940 -20 -1321
295 -375 309 -691 876 -755 1356 -17 125 -8 374 17 468 l19 70 140 36 c370 94
657 227 933 431 105 78 301 264 359 341 l37 49 120 -6 c66 -3 159 -12 206 -21z
m4299 -821 c98 -23 220 -86 289 -150 165 -152 183 -369 60 -727 -126 -366
-595 -1322 -981 -2000 -190 -334 -506 -837 -526 -837 -4 0 -34 80 -66 178
l-59 179 150 244 c503 817 978 1684 1144 2084 29 72 63 144 75 160 12 17 27
50 34 74 10 39 9 61 -6 112 -3 10 13 28 48 52 80 54 102 104 58 127 -15 8 -28
2 -67 -32 -72 -62 -124 -83 -213 -83 -90 0 -146 26 -197 93 -43 56 -54 97 -60
214 -9 174 47 283 165 318 41 13 81 11 152 -6z m-42 -698 l82 0 0 -43 c0 -80
-48 -135 -119 -137 -63 -1 -140 74 -125 121 22 69 25 73 53 65 14 -4 63 -7
109 -6z m-8210 -2722 c55 -38 69 -135 29 -195 -20 -30 -29 -34 -70 -37 -35 -2
-57 2 -83 18 -33 21 -74 80 -55 80 18 0 109 90 121 120 14 34 26 37 58 14z
m7182 -5134 c86 -258 95 -309 94 -535 0 -168 -3 -204 -26 -305 -59 -259 -139
-440 -238 -542 -67 -70 -96 -75 -141 -26 -60 67 -92 190 -114 448 -23 271 -50
377 -121 480 l-35 50 59 70 c122 145 251 341 354 537 l61 115 24 -58 c13 -33
51 -138 83 -234z"/>
<path d="M12762 9248 c-7 -7 -12 -17 -12 -24 0 -22 109 -112 170 -141 32 -15
59 -34 59 -41 1 -7 -19 -52 -43 -100 -183 -364 -517 -658 -966 -850 -359 -154
-784 -242 -1165 -242 -188 0 -281 14 -385 57 -47 19 -86 36 -87 37 -2 2 10 27
26 57 16 30 39 86 52 126 19 60 20 74 10 87 -28 34 -64 15 -77 -39 -13 -58
-56 -151 -100 -216 -95 -144 -247 -249 -390 -271 -88 -13 -99 -19 -99 -54 0
-26 4 -29 36 -32 82 -7 234 48 336 121 24 17 45 28 47 26 3 -4 21 -48 116
-294 23 -60 92 -207 153 -325 147 -286 162 -316 214 -445 67 -164 166 -360
324 -645 78 -140 211 -395 295 -566 215 -435 266 -515 489 -779 193 -227 267
-279 525 -366 155 -53 284 -72 455 -66 124 4 165 9 239 31 387 116 649 386
800 822 67 195 81 291 81 544 0 195 -3 240 -23 338 -12 61 -29 181 -37 265
-15 152 -72 561 -101 713 -8 44 -30 132 -50 195 -19 63 -55 213 -79 334 -24
121 -58 285 -75 365 -35 164 -54 293 -71 465 -6 66 -31 217 -55 335 -24 118
-47 245 -50 282 -6 61 -5 68 12 73 10 3 44 18 74 33 44 21 56 32 58 54 5 41
-27 45 -94 12 -143 -70 -380 -28 -512 91 -51 46 -78 55 -100 33z m404 -235
l73 -6 6 -56 c4 -31 29 -166 55 -301 27 -135 50 -270 52 -300 2 -51 -1 -61
-36 -108 l-38 -52 -42 82 c-23 46 -79 144 -123 219 -45 75 -100 174 -123 220
l-42 83 50 100 c28 56 53 109 56 120 4 12 12 16 23 12 9 -4 49 -9 89 -13z
m-240 -345 c15 -29 69 -125 122 -213 52 -88 113 -198 135 -244 36 -76 38 -86
26 -110 -16 -30 -332 -351 -347 -351 -5 0 -13 17 -17 38 -11 59 -45 151 -86
233 -44 89 -146 244 -183 278 -14 14 -26 28 -26 32 0 5 60 68 133 141 72 73
150 159 172 190 22 32 41 58 42 58 2 0 15 -24 29 -52z m-399 -425 c120 -146
220 -341 248 -486 l13 -69 -103 -76 c-109 -81 -297 -202 -326 -209 -13 -4 -21
15 -44 109 -53 216 -121 384 -199 492 l-35 50 102 54 c56 29 145 82 197 117
52 35 98 64 102 65 3 0 24 -21 45 -47z m-470 -285 c23 -35 60 -101 82 -148 40
-85 113 -325 126 -413 l7 -47 -123 -59 c-126 -59 -385 -161 -412 -161 -14 0
-147 291 -212 465 -35 93 -75 244 -66 249 3 2 45 14 91 26 102 25 303 90 386
124 32 14 64 25 69 26 6 0 29 -28 52 -62z m-1675 -118 c96 -42 153 -54 299
-65 l86 -7 6 -97 c10 -186 88 -474 164 -610 l36 -64 -119 7 c-66 4 -155 13
-198 19 l-79 12 -78 150 c-43 83 -121 258 -174 390 l-94 239 25 33 c14 18 27
33 29 33 3 0 46 -18 97 -40z m1013 -82 c24 -98 71 -225 171 -456 46 -106 84
-195 84 -197 0 -14 -279 -71 -445 -90 l-139 -16 -18 23 c-29 36 -94 175 -122
258 -34 104 -74 309 -78 405 l-3 80 154 13 c85 8 200 22 255 31 56 10 106 19
112 20 7 0 20 -32 29 -71z m1545 -1583 c155 -37 311 -121 378 -204 58 -72 75
-124 70 -210 -4 -64 -11 -89 -46 -156 -55 -109 -198 -286 -265 -329 -79 -50
-228 -123 -352 -171 -377 -147 -780 -191 -1041 -114 l-71 21 -55 92 c-89 147
-88 142 -77 227 15 125 29 174 62 230 81 135 264 213 443 190 90 -12 143 -32
216 -81 68 -45 101 -50 135 -18 38 35 31 83 -17 127 -34 31 -40 42 -40 78 0
114 92 241 205 283 127 47 333 63 455 35z m850 -369 c24 -225 -11 -486 -91
-702 l-22 -59 -23 68 c-26 75 -84 193 -144 292 -22 36 -40 69 -40 73 0 5 14
21 31 38 83 79 213 287 249 398 18 55 26 33 40 -108z m-308 -504 c72 -128 112
-228 127 -323 10 -61 10 -63 -25 -123 -59 -100 -132 -192 -202 -256 -73 -65
-92 -73 -92 -36 0 38 -49 183 -87 261 -19 39 -67 128 -106 199 -65 119 -70
130 -53 140 65 39 260 172 306 210 30 25 57 45 60 46 3 0 35 -53 72 -118z
m-439 -335 c130 -236 182 -371 175 -456 -3 -35 -6 -38 -89 -79 -107 -52 -251
-90 -379 -98 l-96 -7 -12 29 c-21 54 -32 108 -57 269 -14 88 -35 195 -46 237
-12 43 -22 80 -23 83 0 3 58 25 129 49 72 24 168 62 215 84 47 22 88 41 92 41
4 1 45 -68 91 -152z m-592 -64 c18 -47 37 -142 59 -288 12 -77 28 -168 37
-203 8 -35 13 -65 11 -67 -17 -18 -350 84 -386 118 -53 49 -74 113 -85 253 -6
72 -8 138 -5 146 5 11 35 18 110 27 56 6 128 18 158 25 81 20 89 19 101 -11z
m-556 -22 l110 -6 7 -140 c3 -77 11 -153 17 -169 7 -16 9 -31 7 -34 -9 -8
-137 121 -231 233 -121 145 -118 140 -64 130 24 -4 94 -11 154 -14z"/>
<path d="M12194 8739 c-125 -132 -401 -260 -696 -325 -129 -28 -153 -39 -142
-67 9 -24 31 -22 190 17 233 58 416 132 557 226 88 59 169 142 161 164 -10 25
-38 19 -70 -15z"/>
<path d="M13579 4294 c-222 -227 -428 -308 -809 -321 -91 -3 -173 -10 -183
-15 -12 -6 -17 -18 -15 -36 l3 -27 170 1 c325 3 551 68 745 213 77 58 230 214
230 235 0 15 -26 46 -39 46 -5 0 -50 -43 -102 -96z"/>
<path d="M10634 11251 c-118 -54 -176 -175 -175 -365 1 -220 102 -431 293
-612 231 -219 514 -269 697 -124 156 124 181 313 72 544 -108 230 -367 468
-593 547 -103 36 -228 40 -294 10z m244 -155 c99 -51 114 -166 33 -247 -51
-51 -109 -66 -167 -44 -53 20 -85 62 -91 119 -6 53 11 90 69 145 37 35 49 41
86 41 24 0 55 -6 70 -14z"/>
</g>
</svg>
