<?xml version="1.0" standalone="no"?>
<!DOCTYPE svg PUBLIC "-//W3C//DTD SVG 20010904//EN"
 "http://www.w3.org/TR/2001/REC-SVG-20010904/DTD/svg10.dtd">
<svg version="1.0" xmlns="http://www.w3.org/2000/svg"
 width="791.000000pt" height="904.000000pt" viewBox="0 0 791.000000 904.000000"
 preserveAspectRatio="xMidYMid meet">

<g transform="translate(0.000000,904.000000) scale(0.100000,-0.100000)"
fill="#000000" stroke="none">
<path d="M5347 9019 c-45 -11 -95 -35 -122 -60 -18 -16 -27 -17 -87 -7 -37 7
-70 9 -73 6 -3 -3 -32 -113 -64 -244 -50 -208 -55 -240 -42 -246 25 -10 29 -9
34 10 4 15 5 15 6 0 1 -10 16 -21 39 -28 59 -18 191 -77 202 -90 3 -3 23 -17
45 -30 55 -34 57 -35 149 -126 l81 -81 136 121 c75 67 159 142 188 168 l52 47
-38 58 c-37 56 -38 61 -38 148 0 75 -5 99 -26 145 -71 152 -275 248 -442 209z
m261 -75 c29 -14 64 -41 78 -59 31 -41 64 -142 64 -197 l0 -40 -50 45 c-91 82
-248 172 -370 212 l-55 18 43 19 c99 44 201 44 290 2z m-431 -70 c-3 -3 -12
-4 -19 -1 -8 3 -5 6 6 6 11 1 17 -2 13 -5z m80 -20 c-3 -3 -12 -4 -19 -1 -8 3
-5 6 6 6 11 1 17 -2 13 -5z m193 -74 c22 -11 40 -23 40 -25 0 -5 -79 32 -89
41 -11 10 14 2 49 -16z m190 -126 c0 -3 -13 4 -30 16 -16 12 -30 24 -30 26 0
3 14 -4 30 -16 17 -12 30 -24 30 -26z"/>
<path d="M3460 8089 c-649 -466 -1222 -1298 -1632 -2369 -75 -195 -183 -519
-238 -715 -23 -82 -44 -152 -46 -154 -8 -8 -77 44 -119 91 -124 139 -177 350
-195 783 -6 132 -17 276 -25 320 -37 205 -185 371 -384 429 -78 23 -213 21
-295 -5 -147 -45 -293 -179 -379 -347 -88 -172 -127 -340 -127 -546 0 -281 77
-487 244 -651 123 -121 293 -207 505 -256 155 -36 446 -37 687 -3 l42 6 -19
-78 c-58 -239 -189 -877 -189 -919 0 -1 -89 -5 -197 -8 -391 -14 -553 -62
-622 -187 -18 -33 -25 -59 -25 -104 -1 -133 72 -202 382 -361 130 -67 132 -70
129 -219 -2 -108 0 -125 20 -162 32 -60 111 -126 198 -165 75 -33 77 -36 139
-129 152 -227 361 -422 638 -595 l102 -64 -3 -108 c-3 -135 13 -265 50 -413
50 -199 152 -374 314 -534 49 -48 74 -80 69 -88 -50 -89 -161 -98 -285 -22
-71 43 -113 51 -162 31 -53 -23 -79 -69 -74 -135 4 -60 34 -99 102 -135 62
-32 209 -36 295 -7 66 22 137 62 178 100 13 12 25 20 27 19 1 -2 17 -34 33
-72 17 -37 35 -67 40 -67 5 0 41 11 78 25 38 14 75 28 82 30 10 4 9 11 -6 32
-32 46 -88 164 -110 234 -40 125 -53 344 -31 536 10 96 52 280 66 294 5 4 58
-5 119 -21 300 -76 567 -109 935 -117 291 -6 501 4 723 33 61 8 110 14 111 14
1 0 5 -33 8 -72 14 -194 112 -430 242 -588 55 -67 144 -144 247 -213 82 -55
98 -80 82 -125 -26 -71 -131 -87 -258 -38 -77 29 -115 32 -154 12 -37 -19 -57
-60 -56 -112 2 -108 61 -154 208 -162 144 -7 252 34 323 123 16 19 31 35 35
35 4 0 19 -27 33 -59 l27 -59 90 32 c49 18 90 35 91 37 5 12 -179 318 -189
314 -17 -5 -81 140 -107 243 -18 73 -22 113 -21 252 1 168 15 263 72 483 l17
68 115 48 c146 61 298 137 412 208 189 116 417 306 528 437 48 57 59 65 91 65
56 1 131 28 171 61 52 43 92 131 138 310 45 172 96 293 144 339 46 44 110 54
277 41 300 -23 400 -10 462 59 139 154 -9 441 -344 666 -86 57 -230 134 -321
170 l-67 27 -5 51 c-6 54 -13 197 -10 197 1 0 38 7 81 15 334 63 666 301 831
595 17 31 45 98 63 150 29 84 33 110 37 230 8 269 -72 509 -228 683 -165 183
-430 275 -586 203 -121 -56 -172 -164 -314 -653 -18 -62 -35 -113 -39 -113 -3
0 -14 35 -24 78 -9 42 -20 87 -23 98 -4 17 2 26 30 43 48 30 46 43 -6 39 l-42
-3 -46 160 c-25 88 -58 196 -73 240 l-27 79 32 25 c51 39 118 107 118 120 0
17 -31 7 -109 -35 -35 -19 -64 -34 -65 -32 -1 2 -24 62 -50 133 -27 72 -73
188 -103 260 l-54 130 28 19 c52 37 139 129 125 133 -18 7 -87 -22 -139 -58
-24 -17 -45 -29 -46 -27 -1 1 -35 71 -76 153 -123 251 -304 549 -395 650 l-36
40 6 -53 c6 -45 19 -72 79 -160 94 -140 190 -308 288 -511 l80 -163 -17 -35
-17 -36 29 6 c29 6 30 5 72 -96 55 -134 160 -417 160 -432 0 -7 -6 -15 -13
-18 -17 -6 -72 -86 -64 -93 3 -3 27 4 53 15 26 12 49 19 51 17 6 -6 70 -218
102 -338 l29 -106 -46 -18 c-63 -23 -122 -63 -122 -81 0 -13 10 -14 56 -8 31
4 73 13 94 20 l37 13 32 -138 c17 -76 31 -146 31 -155 0 -9 -16 -42 -36 -73
-140 -220 -396 -461 -586 -553 -27 -13 -48 -26 -48 -30 0 -13 109 29 196 75
226 120 455 360 554 581 31 69 64 166 155 460 95 303 164 388 314 387 218 -1
453 -189 549 -439 64 -166 82 -403 42 -558 -57 -221 -223 -443 -434 -580 -106
-69 -142 -87 -261 -128 -175 -60 -255 -72 -480 -71 -265 1 -426 31 -650 119
-47 19 23 -36 94 -74 l73 -38 -83 -52 c-532 -330 -1514 -525 -2374 -472 -734
46 -1234 156 -1684 372 -228 110 -500 284 -501 320 0 25 111 459 165 644 397
1364 1045 2447 1798 3008 48 36 93 67 100 70 9 3 9 8 -2 20 -7 10 -16 17 -20
17 -3 0 -44 -28 -91 -61z m-2700 -1670 c126 -20 258 -110 322 -220 57 -96 68
-154 79 -392 10 -246 20 -345 50 -489 48 -238 140 -405 269 -488 52 -33 56
-48 29 -101 -19 -38 -409 -54 -599 -25 -269 42 -496 147 -629 292 -240 263
-268 768 -60 1124 94 162 242 273 399 300 64 11 68 11 140 -1z m756 -2121 c4
-7 3 -8 -4 -4 -7 4 -12 2 -12 -5 0 -7 -3 -10 -6 -6 -6 5 3 27 11 27 2 0 7 -5
11 -12z m35 -25 c13 -16 12 -17 -3 -4 -10 7 -18 15 -18 17 0 8 8 3 21 -13z
m-64 -35 c-3 -8 -6 -5 -6 6 -1 11 2 17 5 13 3 -3 4 -12 1 -19z m143 -24 c0 -3
-13 4 -30 16 -16 12 -30 24 -30 26 0 3 14 -4 30 -16 17 -12 30 -24 30 -26z
m-153 -26 c-3 -8 -6 -5 -6 6 -1 11 2 17 5 13 3 -3 4 -12 1 -19z m248 -33 l20
-16 -20 10 c-11 5 -29 17 -40 26 l-20 16 20 -10 c11 -5 29 -17 40 -26z m-258
-17 c-3 -8 -6 -5 -6 6 -1 11 2 17 5 13 3 -3 4 -12 1 -19z m323 -24 c0 -2 -9 0
-20 6 -11 6 -20 13 -20 16 0 2 9 0 20 -6 11 -6 20 -13 20 -16z m-333 -26 c-3
-8 -6 -5 -6 6 -1 11 2 17 5 13 3 -3 4 -12 1 -19z m383 -4 c0 -2 -9 0 -20 6
-11 6 -20 13 -20 16 0 2 9 0 20 -6 11 -6 20 -13 20 -16z m-393 -46 c-3 -8 -6
-5 -6 6 -1 11 2 17 5 13 3 -3 4 -12 1 -19z m569 -46 c-5 -4 -126 56 -126 63 0
3 29 -10 65 -27 35 -18 63 -34 61 -36z m-579 -4 c-3 -8 -6 -5 -6 6 -1 11 2 17
5 13 3 -3 4 -12 1 -19z m-10 -50 c-3 -8 -6 -5 -6 6 -1 11 2 17 5 13 3 -3 4
-12 1 -19z m4323 2 c-8 -5 -19 -10 -25 -10 -5 0 -3 5 5 10 8 5 20 10 25 10 6
0 3 -5 -5 -10z m-3570 -15 c0 -2 -7 -5 -15 -9 -9 -3 -15 0 -15 9 0 9 6 12 15
9 8 -4 15 -7 15 -9z m3520 -5 c-8 -5 -19 -10 -25 -10 -5 0 -3 5 5 10 8 5 20
10 25 10 6 0 3 -5 -5 -10z m-4283 -32 c-3 -8 -6 -5 -6 6 -1 11 2 17 5 13 3 -3
4 -12 1 -19z m4233 12 c-8 -5 -19 -10 -25 -10 -5 0 -3 5 5 10 8 5 20 10 25 10
6 0 3 -5 -5 -10z m-3503 -22 c-3 -8 -6 -5 -6 6 -1 11 2 17 5 13 3 -3 4 -12 1
-19z m123 12 c8 -5 11 -10 5 -10 -5 0 -17 5 -25 10 -8 5 -10 10 -5 10 6 0 17
-5 25 -10z m-203 -32 c-3 -8 -6 -5 -6 6 -1 11 2 17 5 13 3 -3 4 -12 1 -19z
m-660 -30 c-3 -8 -6 -5 -6 6 -1 11 2 17 5 13 3 -3 4 -12 1 -19z m730 -25 c-3
-10 -5 -2 -5 17 0 19 2 27 5 18 2 -10 2 -26 0 -35z m-80 -30 c-3 -10 -5 -2 -5
17 0 19 2 27 5 18 2 -10 2 -26 0 -35z m-660 -5 c-3 -7 -5 -2 -5 12 0 14 2 19
5 13 2 -7 2 -19 0 -25z m3880 6 c-3 -3 -12 -4 -19 -1 -8 3 -5 6 6 6 11 1 17
-2 13 -5z m-3140 -51 c-3 -10 -5 -4 -5 12 0 17 2 24 5 18 2 -7 2 -21 0 -30z
m-80 -20 c-3 -10 -5 -2 -5 17 0 19 2 27 5 18 2 -10 2 -26 0 -35z m710 41 c-3
-3 -12 -4 -19 -1 -8 3 -5 6 6 6 11 1 17 -2 13 -5z m-1380 -26 c-3 -8 -6 -5 -6
6 -1 11 2 17 5 13 3 -3 4 -12 1 -19z m1430 16 c-3 -3 -12 -4 -19 -1 -8 3 -5 6
6 6 11 1 17 -2 13 -5z m2260 -10 c-3 -3 -12 -4 -19 -1 -8 3 -5 6 6 6 11 1 17
-2 13 -5z m-2160 -10 c-3 -3 -12 -4 -19 -1 -8 3 -5 6 6 6 11 1 17 -2 13 -5z
m50 -10 c-3 -3 -12 -4 -19 -1 -8 3 -5 6 6 6 11 1 17 -2 13 -5z m2020 0 c-3 -3
-12 -4 -19 -1 -8 3 -5 6 6 6 11 1 17 -2 13 -5z m-1927 -11 c0 -6 -82 -44 -86
-40 -3 2 10 10 27 17 28 12 30 15 13 21 -14 5 -10 7 13 6 18 -1 33 -3 33 -4z
m1877 1 c-3 -3 -12 -4 -19 -1 -8 3 -5 6 6 6 11 1 17 -2 13 -5z m-60 -10 c-3
-3 -12 -4 -19 -1 -8 3 -5 6 6 6 11 1 17 -2 13 -5z m-3500 -26 c-3 -8 -6 -5 -6
6 -1 11 2 17 5 13 3 -3 4 -12 1 -19z m1874 -47 c22 -34 39 -67 39 -72 0 -17
-53 -31 -114 -30 -44 0 -73 7 -115 28 -31 15 -57 35 -59 43 -1 9 24 31 65 57
53 32 77 41 107 40 37 -2 41 -6 77 -66z m1572 62 c-7 -2 -19 -2 -25 0 -7 3 -2
5 12 5 14 0 19 -2 13 -5z m-60 -10 c-7 -2 -19 -2 -25 0 -7 3 -2 5 12 5 14 0
19 -2 13 -5z m-1441 -12 l-23 -6 32 -45 c17 -25 43 -58 58 -75 l26 -30 -27 24
c-15 13 -45 50 -68 82 l-41 59 33 -1 c28 -1 29 -2 10 -8z m1371 2 c-7 -2 -19
-2 -25 0 -7 3 -2 5 12 5 14 0 19 -2 13 -5z m-1255 -10 c-10 -2 -26 -2 -35 0
-10 3 -2 5 17 5 19 0 27 -2 18 -5z m1175 0 c-7 -2 -21 -2 -30 0 -10 3 -4 5 12
5 17 0 24 -2 18 -5z m-1683 -13 c-8 -5 -19 -10 -25 -10 -5 0 -3 5 5 10 8 5 20
10 25 10 6 0 3 -5 -5 -10z m633 3 c-13 -2 -33 -2 -45 0 -13 2 -3 4 22 4 25 0
35 -2 23 -4z m960 0 c-7 -2 -21 -2 -30 0 -10 3 -4 5 12 5 17 0 24 -2 18 -5z
m-2318 -53 l30 -35 -28 25 c-16 14 -33 34 -39 45 -11 21 -10 20 37 -35z m1508
43 c-13 -2 -35 -2 -50 0 -16 2 -5 4 22 4 28 0 40 -2 28 -4z m705 0 c-10 -2
-26 -2 -35 0 -10 3 -2 5 17 5 19 0 27 -2 18 -5z m-3051 -25 c-3 -8 -6 -5 -6 6
-1 11 2 17 5 13 3 -3 4 -12 1 -19z m2775 15 c-62 -2 -161 -2 -220 0 -59 1 -8
3 113 3 121 0 169 -2 107 -3z m95 -45 c-3 -8 -6 -5 -6 6 -1 11 2 17 5 13 3 -3
4 -12 1 -19z m-2880 -30 c-3 -8 -6 -5 -6 6 -1 11 2 17 5 13 3 -3 4 -12 1 -19z
m1330 16 c-3 -3 -12 -4 -19 -1 -8 3 -5 6 6 6 11 1 17 -2 13 -5z m-40 -10 c-3
-3 -12 -4 -19 -1 -8 3 -5 6 6 6 11 1 17 -2 13 -5z m-60 -10 c-3 -3 -12 -4 -19
-1 -8 3 -5 6 6 6 11 1 17 -2 13 -5z m-244 -11 c-7 -2 -19 -2 -25 0 -7 3 -2 5
12 5 14 0 19 -2 13 -5z m170 0 c-7 -2 -21 -2 -30 0 -10 3 -4 5 12 5 17 0 24
-2 18 -5z m437 -21 c0 -5 -7 -17 -15 -28 -14 -18 -14 -17 -4 9 12 27 19 34 19
19z m-1603 -34 c-3 -7 -5 -2 -5 12 0 14 2 19 5 13 2 -7 2 -19 0 -25z m1667
-46 c-71 -190 -159 -364 -190 -376 -27 -10 -47 14 -40 48 10 47 226 405 241
399 11 -3 8 -19 -11 -71z m432 36 l29 -33 -32 29 c-31 28 -38 36 -30 36 2 0
16 -15 33 -32z m-189 -35 c4 -21 8 -123 8 -228 0 -206 -7 -244 -51 -264 -33
-15 -33 -15 -45 16 -7 19 -4 58 11 147 11 67 23 173 27 236 5 104 12 129 35
130 4 0 11 -17 15 -37z m-346 10 c-5 -10 -17 -27 -26 -38 -16 -19 -17 -19 -3
5 26 46 29 50 34 50 3 0 0 -8 -5 -17z m396 -5 c-3 -8 -6 -5 -6 6 -1 11 2 17 5
13 3 -3 4 -12 1 -19z m203 -23 c13 -14 21 -25 18 -25 -2 0 -15 11 -28 25 -13
14 -21 25 -18 25 2 0 15 -11 28 -25z m-2090 -31 c0 -3 -13 4 -30 16 -16 12
-30 24 -30 26 0 3 14 -4 30 -16 17 -12 30 -24 30 -26z m2743 16 c-10 -17 -35
-47 -57 -68 l-40 -37 41 46 c22 25 46 56 52 68 7 11 14 21 17 21 3 0 -3 -14
-13 -30z m-846 -12 c-3 -8 -6 -5 -6 6 -1 11 2 17 5 13 3 -3 4 -12 1 -19z m303
-55 c0 -7 -61 31 -73 46 -7 8 7 2 31 -14 23 -15 42 -30 42 -32z m-759 30 c-5
-10 -17 -27 -26 -38 -16 -19 -17 -19 -3 5 26 46 29 50 34 50 3 0 0 -8 -5 -17z
m296 -20 c-3 -10 -5 -4 -5 12 0 17 2 24 5 18 2 -7 2 -21 0 -30z m170 -30 c-3
-10 -5 -4 -5 12 0 17 2 24 5 18 2 -7 2 -21 0 -30z m-1767 -19 c0 -2 -9 0 -20
6 -11 6 -20 13 -20 16 0 2 9 0 20 -6 11 -6 20 -13 20 -16z m1250 -14 c-6 -11
-13 -20 -16 -20 -2 0 0 9 6 20 6 11 13 20 16 20 2 0 0 -9 -6 -20z m337 -12
c-3 -7 -5 -2 -5 12 0 14 2 19 5 13 2 -7 2 -19 0 -25z m913 27 c0 -6 -56 -35
-67 -35 -4 1 8 9 27 20 39 22 40 22 40 15z m-2450 -31 c0 -2 -9 0 -20 6 -11 6
-20 13 -20 16 0 2 9 0 20 -6 11 -6 20 -13 20 -16z m2187 0 c-3 -3 -12 -4 -19
-1 -8 3 -5 6 6 6 11 1 17 -2 13 -5z m-2117 -40 c0 -2 -13 2 -30 11 -16 9 -30
18 -30 21 0 2 14 -2 30 -11 17 -9 30 -18 30 -21z m2167 30 c-3 -3 -12 -4 -19
-1 -8 3 -5 6 6 6 11 1 17 -2 13 -5z m120 0 c-3 -3 -12 -4 -19 -1 -8 3 -5 6 6
6 11 1 17 -2 13 -5z m-1187 -24 c-6 -11 -13 -20 -16 -20 -2 0 0 9 6 20 6 11
13 20 16 20 2 0 0 -9 -6 -20z m557 -122 c-2 -29 -3 -8 -3 47 0 55 1 79 3 53 2
-26 2 -71 0 -100z m-200 90 c-3 -7 -5 -2 -5 12 0 14 2 19 5 13 2 -7 2 -19 0
-25z m-156 -5 c-12 -20 -14 -14 -5 12 4 9 9 14 11 11 3 -2 0 -13 -6 -23z
m-1125 -61 c-5 -4 -146 66 -146 73 0 3 34 -12 75 -32 41 -20 73 -39 71 -41z
m1271 16 c-3 -8 -6 -5 -6 6 -1 11 2 17 5 13 3 -3 4 -12 1 -19z m-10 -60 c-3
-8 -6 -5 -6 6 -1 11 2 17 5 13 3 -3 4 -12 1 -19z m-1157 2 c8 -5 11 -10 5 -10
-5 0 -17 5 -25 10 -8 5 -10 10 -5 10 6 0 17 -5 25 -10z m757 -12 c-3 -8 -6 -5
-6 6 -1 11 2 17 5 13 3 -3 4 -12 1 -19z m204 -6 c-5 -10 -18 -25 -27 -33 -11
-9 -9 -2 6 19 26 35 36 42 21 14z m-891 -12 c8 -5 11 -10 5 -10 -5 0 -17 5
-25 10 -8 5 -10 10 -5 10 6 0 17 -5 25 -10z m1077 -22 c-3 -8 -6 -5 -6 6 -1
11 2 17 5 13 3 -3 4 -12 1 -19z m-1027 2 c8 -5 11 -10 5 -10 -5 0 -17 5 -25
10 -8 5 -10 10 -5 10 6 0 17 -5 25 -10z m50 -20 c8 -5 11 -10 5 -10 -5 0 -17
5 -25 10 -8 5 -10 10 -5 10 6 0 17 -5 25 -10z m621 -7 c13 -16 12 -17 -3 -4
-17 13 -22 21 -14 21 2 0 10 -8 17 -17z m109 -8 c-7 -8 -17 -15 -23 -15 -6 0
-2 7 9 15 25 19 30 19 14 0z m467 -7 c-3 -8 -6 -5 -6 6 -1 11 2 17 5 13 3 -3
4 -12 1 -19z m2348 -68 c-3 -5 -12 -10 -18 -10 -7 0 -6 4 3 10 19 12 23 12 15
0z m-2375 -3 c0 -2 -10 -12 -22 -23 l-23 -19 19 23 c18 21 26 27 26 19z m-863
-13 c-3 -3 -12 -4 -19 -1 -8 3 -5 6 6 6 11 1 17 -2 13 -5z m698 -14 c10 -11
16 -20 13 -20 -3 0 -13 9 -23 20 -10 11 -16 20 -13 20 3 0 13 -9 23 -20z
m-318 -86 c-3 -3 -12 -4 -19 -1 -8 3 -5 6 6 6 11 1 17 -2 13 -5z m40 -10 c-3
-3 -12 -4 -19 -1 -8 3 -5 6 6 6 11 1 17 -2 13 -5z m50 -10 c-3 -3 -12 -4 -19
-1 -8 3 -5 6 6 6 11 1 17 -2 13 -5z m50 -10 c-3 -3 -12 -4 -19 -1 -8 3 -5 6 6
6 11 1 17 -2 13 -5z m2220 0 c-3 -3 -12 -4 -19 -1 -8 3 -5 6 6 6 11 1 17 -2
13 -5z m-2170 -10 c-3 -3 -12 -4 -19 -1 -8 3 -5 6 6 6 11 1 17 -2 13 -5z m50
-10 c-3 -3 -12 -4 -19 -1 -8 3 -5 6 6 6 11 1 17 -2 13 -5z m2030 0 c-3 -3 -12
-4 -19 -1 -8 3 -5 6 6 6 11 1 17 -2 13 -5z m-1970 -10 c-3 -3 -12 -4 -19 -1
-8 3 -5 6 6 6 11 1 17 -2 13 -5z m1920 0 c-3 -3 -12 -4 -19 -1 -8 3 -5 6 6 6
11 1 17 -2 13 -5z m-1854 -11 c-7 -2 -19 -2 -25 0 -7 3 -2 5 12 5 14 0 19 -2
13 -5z m1800 0 c-7 -2 -19 -2 -25 0 -7 3 -2 5 12 5 14 0 19 -2 13 -5z m-1740
-10 c-7 -2 -19 -2 -25 0 -7 3 -2 5 12 5 14 0 19 -2 13 -5z m1680 0 c-7 -2 -19
-2 -25 0 -7 3 -2 5 12 5 14 0 19 -2 13 -5z m-1610 -10 c-7 -2 -19 -2 -25 0 -7
3 -2 5 12 5 14 0 19 -2 13 -5z m1550 0 c-7 -2 -19 -2 -25 0 -7 3 -2 5 12 5 14
0 19 -2 13 -5z m-1470 -10 c-7 -2 -19 -2 -25 0 -7 3 -2 5 12 5 14 0 19 -2 13
-5z m1400 0 c-7 -2 -19 -2 -25 0 -7 3 -2 5 12 5 14 0 19 -2 13 -5z m-1310 -10
c-7 -2 -21 -2 -30 0 -10 3 -4 5 12 5 17 0 24 -2 18 -5z m1240 0 c-7 -2 -21 -2
-30 0 -10 3 -4 5 12 5 17 0 24 -2 18 -5z m-1145 -10 c-10 -2 -26 -2 -35 0 -10
3 -2 5 17 5 19 0 27 -2 18 -5z m1055 0 c-7 -2 -21 -2 -30 0 -10 3 -4 5 12 5
17 0 24 -2 18 -5z m-925 -10 c-10 -2 -28 -2 -40 0 -13 2 -5 4 17 4 22 1 32 -1
23 -4z m820 0 c-10 -2 -28 -2 -40 0 -13 2 -5 4 17 4 22 1 32 -1 23 -4z m-645
-10 c-18 -2 -48 -2 -65 0 -18 2 -4 4 32 4 36 0 50 -2 33 -4z m495 0 c-15 -2
-42 -2 -60 0 -18 2 -6 4 27 4 33 0 48 -2 33 -4z m-2084 -243 c57 -13 83 -36
157 -140 37 -51 93 -123 125 -162 147 -177 333 -268 548 -268 176 0 285 47
541 231 94 67 204 138 245 158 71 34 80 35 180 36 135 0 165 -14 302 -143 125
-116 222 -181 317 -212 63 -20 85 -22 189 -17 94 4 132 10 192 32 132 49 179
86 341 270 154 175 222 216 370 223 102 5 131 -3 318 -88 69 -31 143 -63 164
-69 20 -7 37 -16 37 -19 0 -14 -205 -210 -293 -281 -423 -341 -981 -550 -1677
-628 -222 -25 -758 -25 -960 0 -644 80 -1154 269 -1574 586 -167 125 -372 336
-438 448 l-16 28 216 -3 c123 -1 293 4 392 11 217 18 274 19 324 7z m-121
-801 l44 -22 6 -166 c3 -91 13 -206 22 -256 36 -196 116 -389 215 -515 l51
-65 -75 78 c-92 95 -182 227 -225 331 -62 149 -110 443 -95 577 4 33 8 59 10
59 2 0 23 -10 47 -21z m212 -94 c50 -21 94 -41 99 -45 4 -5 3 -32 -3 -62 -23
-104 -31 -259 -20 -376 13 -138 37 -238 85 -346 19 -45 38 -87 41 -94 4 -10
-1 -13 -17 -10 -31 4 -119 120 -170 223 -87 178 -129 357 -137 594 -6 158 -5
164 13 158 10 -3 60 -22 109 -42z m262 -119 c-53 -218 -68 -408 -48 -616 7
-69 14 -136 17 -150 8 -49 -55 96 -79 180 -47 160 -55 352 -26 550 16 107 11
102 80 78 53 -18 60 -23 56 -42z m2573 40 c0 -2 -11 -51 -24 -108 -37 -158
-47 -241 -47 -388 0 -155 16 -251 65 -383 18 -48 32 -87 31 -87 -8 0 -90 137
-119 201 -93 201 -116 441 -66 677 l11 51 62 19 c64 20 87 25 87 18z m-200
-101 c-21 -92 -29 -233 -19 -334 18 -189 91 -379 203 -528 30 -40 51 -73 46
-73 -17 0 -161 143 -212 210 -63 82 -141 241 -169 345 -16 59 -23 120 -26 232
l-5 152 38 10 c106 27 149 38 152 36 1 -1 -2 -24 -8 -50z m-223 -117 c2 -267
92 -499 268 -687 l80 -85 -60 46 c-76 57 -186 174 -229 241 -83 130 -146 289
-171 436 -24 134 -23 137 33 149 84 17 78 25 79 -100z"/>
<path d="M781 5581 c-2 -27 40 -162 75 -243 76 -177 232 -366 375 -452 l64
-39 -125 129 c-69 71 -150 165 -179 209 -43 65 -142 255 -199 385 -6 14 -11
19 -11 11z"/>
<path d="M602 5134 c36 -61 154 -180 227 -228 109 -72 236 -118 366 -130 l60
-6 -90 30 c-191 64 -362 167 -518 310 -65 60 -67 61 -45 24z"/>
<path d="M3470 7706 c-37 -101 -45 -115 -63 -113 -26 2 -34 28 -36 114 0 34
-6 65 -11 68 -6 4 -24 3 -41 0 l-30 -7 6 -96 6 -97 -51 -24 c-77 -37 -180
-151 -229 -253 -67 -140 -89 -297 -56 -404 l14 -49 -33 -35 c-124 -129 -122
-365 4 -491 26 -26 74 -60 108 -75 l62 -29 -2 -200 c-1 -128 4 -221 12 -260
34 -165 149 -280 258 -260 171 32 321 283 456 768 17 61 36 112 41 114 6 2 39
-19 73 -47 34 -27 64 -50 67 -50 10 0 -27 65 -61 107 -48 58 -158 113 -228
113 -29 0 -60 -6 -71 -13 -17 -13 -16 -14 14 -20 28 -6 160 -55 170 -63 19
-16 -122 -108 -208 -135 -91 -29 -316 -37 -418 -16 -191 41 -291 138 -301 293
-6 97 15 160 72 212 59 54 125 69 223 48 70 -14 171 -57 231 -96 43 -30 40
-12 -7 39 l-40 43 29 25 c46 38 125 164 158 250 54 139 60 276 18 378 -13 31
-14 41 -4 50 7 6 41 36 76 65 34 29 62 56 62 60 0 4 -9 19 -21 34 l-21 27 -75
-67 c-67 -60 -76 -66 -98 -56 l-23 11 39 106 c21 58 39 110 39 114 0 5 -8 11
-17 14 -10 2 -25 8 -34 11 -13 6 -24 -14 -59 -108z m11 -168 c50 -34 89 -118
96 -210 11 -150 -57 -334 -166 -449 l-56 -59 -65 27 c-56 24 -79 27 -167 28
-118 0 -112 -5 -120 101 -16 199 129 478 289 558 68 34 141 35 189 4z m76
-1781 l23 -13 -34 -50 c-76 -113 -163 -158 -241 -122 -32 14 -32 39 0 93 23
40 49 62 105 92 31 16 118 16 147 0z"/>
<path d="M3313 7281 c-51 -37 -95 -123 -100 -195 -7 -90 43 -149 111 -132 47
12 113 82 137 144 59 158 -31 268 -148 183z"/>
<path d="M4407 7502 l6 -98 -56 -17 c-66 -21 -156 -85 -215 -153 -55 -63 -126
-209 -146 -301 -49 -222 19 -425 169 -506 33 -18 57 -22 130 -22 79 0 97 4
150 29 78 38 200 159 247 246 66 120 83 189 83 330 0 120 -3 137 -39 222 -6
13 7 28 55 65 111 86 103 74 76 107 l-24 29 -79 -60 -80 -61 -29 26 -29 25 52
101 52 101 -22 17 c-13 10 -29 18 -35 18 -7 0 -35 -45 -63 -100 -41 -82 -54
-100 -73 -100 -40 0 -46 13 -53 108 l-7 92 -37 0 -38 0 5 -98z m171 -158 c200
-100 205 -469 9 -729 -81 -108 -176 -166 -283 -173 -57 -4 -78 -1 -110 16
-116 59 -171 181 -161 357 19 350 319 642 545 529z"/>
<path d="M4375 7106 c-45 -19 -111 -100 -130 -157 -45 -134 5 -253 99 -235 51
10 118 75 150 147 24 53 28 71 24 131 -3 64 -7 73 -36 99 -35 32 -61 35 -107
15z"/>
<path d="M3050 5478 c0 -2 7 -24 14 -49 73 -240 295 -318 459 -161 20 20 37
39 37 42 0 4 -28 -7 -62 -24 -54 -27 -73 -31 -143 -31 -69 0 -86 4 -127 27
-54 32 -120 104 -145 159 -10 21 -21 39 -25 39 -5 0 -8 -1 -8 -2z"/>
<path d="M7145 5015 c-96 -98 -200 -192 -260 -236 -126 -93 -320 -206 -435
-255 -49 -21 -88 -40 -85 -42 9 -9 207 64 305 113 263 132 516 350 611 528 16
31 29 56 27 56 -2 -1 -75 -74 -163 -164z"/>
<path d="M7204 4660 c-37 -37 -508 -211 -647 -240 -87 -18 -61 -24 40 -10 139
20 315 74 448 139 108 54 207 120 180 121 -6 0 -16 -5 -21 -10z"/>
</g>
</svg>
