<?xml version="1.0" standalone="no"?>
<!DOCTYPE svg PUBLIC "-//W3C//DTD SVG 20010904//EN"
 "http://www.w3.org/TR/2001/REC-SVG-20010904/DTD/svg10.dtd">
<svg version="1.0" xmlns="http://www.w3.org/2000/svg"
 width="731.000000pt" height="912.000000pt" viewBox="0 0 731.000000 912.000000"
 preserveAspectRatio="xMidYMid meet">

<g transform="translate(0.000000,912.000000) scale(0.100000,-0.100000)"
fill="#000000" stroke="none">
<path d="M6089 9100 c-217 -9 -498 -40 -726 -79 l-162 -27 -41 32 c-145 115
-336 67 -411 -102 -19 -41 -19 -41 -121 -68 -153 -41 -555 -176 -703 -236
-255 -104 -720 -391 -1062 -657 -172 -133 -277 -224 -470 -406 -168 -159 -171
-163 -172 -204 -1 -24 0 -43 2 -43 1 0 52 48 112 106 339 325 697 597 1120
851 323 194 476 267 783 374 513 178 979 289 1462 349 180 22 635 48 663 37 9
-3 55 -58 102 -122 427 -573 719 -1364 761 -2061 l7 -110 -44 -38 c-61 -52
-243 -172 -367 -240 -161 -90 -335 -169 -328 -150 4 9 13 57 22 106 28 166
-12 251 -119 252 -44 1 -60 -4 -91 -28 -41 -31 -82 -106 -92 -168 -4 -21 -8
-38 -10 -38 -2 0 -24 15 -48 34 -57 43 -107 60 -163 53 -103 -11 -154 -127
-102 -234 21 -43 94 -116 137 -136 12 -6 22 -13 22 -16 0 -9 -262 -85 -430
-125 -472 -113 -916 -167 -1370 -168 -351 -1 -629 27 -894 87 -132 30 -316 85
-316 95 0 4 33 18 73 30 39 12 79 24 87 27 31 9 -23 26 -82 26 -143 -2 -292
-133 -342 -300 -8 -29 -13 -53 -11 -53 2 0 22 26 44 58 55 82 140 172 161 172
13 0 26 -26 55 -117 170 -531 501 -978 857 -1159 223 -113 462 -125 655 -33
86 41 197 149 236 231 102 213 75 514 -72 794 l-37 72 44 6 c107 15 104 16
152 -86 101 -222 152 -429 152 -628 0 -159 -20 -258 -77 -375 -77 -159 -201
-254 -400 -306 -149 -39 -403 -36 -575 7 -25 6 -25 6 -4 -9 27 -20 122 -52
204 -68 106 -21 320 -16 415 10 156 42 278 116 352 213 l38 49 23 -73 c38
-126 178 -690 247 -1002 l66 -299 -36 -52 c-184 -268 -797 -463 -1225 -389
-130 22 -132 24 -136 70 -16 178 -121 327 -271 385 -113 43 -275 33 -358 -21
l-29 -19 -334 602 c-425 765 -988 1784 -1078 1950 -52 96 -72 126 -84 121 -8
-3 -24 -8 -35 -11 -11 -2 0 5 25 15 72 31 84 61 88 222 3 93 -1 165 -12 228
-9 51 -16 98 -16 106 0 8 22 28 48 45 27 17 55 43 62 57 8 14 32 35 53 46 48
24 72 75 82 172 7 62 11 72 45 106 40 40 67 101 103 230 17 62 20 102 19 230
-1 92 -5 156 -11 158 -5 2 -7 10 -4 18 3 8 0 14 -7 14 -6 0 -8 5 -5 10 3 6 1
10 -6 10 -7 0 -9 3 -6 7 4 3 -1 12 -11 20 -10 9 -11 11 -2 7 13 -7 13 -5 1 9
-7 9 -16 15 -20 12 -4 -2 -15 5 -25 17 -15 17 -26 20 -69 15 -28 -2 -53 -10
-55 -16 -2 -6 -7 -11 -11 -11 -12 0 -109 -99 -103 -105 3 -2 -3 -7 -12 -11 -9
-3 -13 -10 -10 -15 3 -5 -2 -12 -10 -15 -9 -3 -13 -10 -10 -15 3 -5 0 -9 -6
-9 -6 0 -8 -4 -5 -10 3 -5 1 -10 -5 -10 -6 0 -8 -4 -5 -10 3 -5 1 -10 -5 -10
-6 0 -8 -4 -5 -10 3 -5 1 -10 -5 -10 -6 0 -8 -4 -5 -10 3 -5 1 -10 -5 -10 -6
0 -8 -4 -5 -10 3 -5 2 -10 -4 -10 -6 0 -8 -7 -5 -15 4 -8 1 -15 -6 -15 -6 0
-8 -4 -5 -10 3 -5 2 -10 -4 -10 -6 0 -8 -7 -5 -15 4 -8 1 -15 -6 -15 -6 0 -8
-4 -5 -10 3 -5 1 -10 -5 -10 -7 0 -10 -7 -6 -15 3 -8 1 -15 -5 -15 -6 0 -9 -7
-6 -15 4 -8 2 -17 -4 -21 -6 -3 -8 -12 -5 -20 3 -8 1 -14 -5 -14 -6 0 -9 -6
-6 -14 3 -7 1 -18 -4 -23 -5 -5 -16 -56 -25 -113 -17 -111 -26 -137 -43 -133
-6 2 -11 -2 -11 -8 0 -5 -5 -7 -12 -3 -7 4 -8 3 -4 -4 4 -7 2 -13 -3 -13 -6
-1 -17 -2 -23 -3 -7 -1 -12 -7 -11 -14 3 -14 -10 -15 -84 -12 -32 1 -65 -4
-84 -14 -38 -19 -42 -20 -33 -4 5 7 3 8 -6 3 -10 -6 -12 -4 -7 9 4 9 3 15 -2
12 -9 -6 -26 22 -22 37 1 5 -3 6 -9 2 -5 -3 -10 -2 -10 3 0 14 -72 88 -92 95
-10 4 -18 11 -18 17 0 5 -7 10 -15 10 -8 0 -15 4 -15 8 0 13 -73 51 -152 78
-94 33 -255 42 -335 19 -29 -9 -53 -20 -53 -26 0 -6 -4 -8 -8 -5 -5 3 -19 -4
-30 -15 -12 -11 -22 -16 -22 -12 0 4 -7 -1 -16 -12 -8 -11 -19 -20 -23 -20
-10 0 -92 -85 -82 -85 3 -1 -3 -9 -14 -18 -11 -10 -21 -24 -23 -32 -2 -8 -10
-20 -17 -26 -8 -6 -12 -14 -8 -17 3 -4 1 -7 -6 -7 -8 0 -11 -7 -7 -15 3 -8 0
-15 -6 -15 -6 0 -8 -3 -5 -7 4 -3 2 -12 -4 -20 -6 -7 -8 -13 -4 -13 4 0 1 -7
-6 -16 -26 -31 -19 -354 9 -398 3 -6 7 -24 9 -41 2 -16 8 -31 13 -33 5 -2 6
-10 3 -18 -3 -8 0 -14 6 -14 6 0 8 -7 5 -15 -4 -8 -1 -15 5 -15 6 0 8 -7 5
-15 -4 -8 -1 -15 6 -15 6 0 9 -4 5 -9 -3 -5 -1 -12 5 -16 6 -4 8 -11 5 -16 -4
-5 -2 -9 4 -9 6 0 8 -7 5 -15 -4 -8 -2 -15 4 -15 5 0 9 -38 9 -90 0 -49 -4
-90 -8 -90 -5 0 -8 -3 -7 -7 1 -5 -13 -23 -31 -41 -63 -62 -175 -74 -286 -32
-16 6 -32 11 -33 10 -2 -1 -17 13 -34 32 l-29 33 4 -98 c2 -54 9 -103 15 -109
6 -6 8 -17 5 -24 -3 -8 0 -14 6 -14 6 0 8 -7 5 -15 -4 -8 -1 -15 6 -15 6 0 8
-4 5 -10 -3 -5 -1 -10 5 -10 6 0 8 -4 5 -10 -3 -5 -2 -10 4 -10 10 0 27 -38
23 -52 -1 -5 3 -8 10 -8 6 0 9 -3 5 -6 -3 -4 4 -15 16 -25 12 -10 20 -18 17
-19 -9 0 110 -120 119 -120 5 0 12 -7 15 -16 4 -9 9 -14 12 -11 3 3 13 -1 22
-9 10 -8 21 -14 26 -13 5 0 12 -4 16 -11 13 -21 149 -61 227 -66 53 -4 102 -1
151 10 77 16 192 63 192 78 0 5 5 6 10 3 6 -3 10 -1 10 4 0 6 6 11 14 11 8 0
16 7 20 15 3 8 9 15 14 15 11 0 116 102 117 113 0 4 7 12 15 17 8 5 11 10 5
10 -5 0 -3 6 6 13 9 7 16 14 16 17 0 17 16 50 24 50 6 0 7 5 4 10 -3 6 -1 10
5 10 6 0 8 4 5 10 -3 6 -1 10 5 10 7 0 10 7 6 15 -3 8 -1 15 5 15 6 0 9 7 6
15 -4 8 -2 17 3 20 5 3 9 13 10 23 1 22 5 62 15 134 4 31 4 62 0 69 -4 6 -9
38 -10 71 -2 33 -8 65 -13 70 -6 6 -8 17 -5 24 3 8 0 14 -7 14 -7 0 -10 7 -6
15 3 8 1 15 -5 15 -6 0 -9 7 -5 15 3 8 1 15 -5 15 -6 0 -8 4 -4 9 3 5 1 12 -5
16 -6 4 -8 11 -5 16 4 5 1 9 -5 9 -6 0 -8 5 -5 10 3 6 1 10 -5 10 -6 0 -8 5
-5 10 3 6 2 10 -4 10 -6 0 -8 7 -5 15 4 8 1 15 -6 15 -6 0 -8 5 -5 10 3 6 1
10 -5 10 -6 0 -8 5 -5 10 3 6 2 10 -4 10 -6 0 -8 7 -5 15 4 8 1 15 -5 15 -6 0
-10 3 -10 8 1 4 0 9 -1 12 -15 37 -13 160 3 160 4 0 5 5 2 10 -3 6 -1 10 4 10
6 0 10 3 9 8 -4 10 55 67 65 64 5 -1 5 3 1 9 -5 9 -2 10 10 6 11 -4 15 -3 10
4 -4 8 1 9 16 4 17 -5 21 -4 15 6 -6 9 -3 11 9 6 10 -4 25 -7 34 -7 14 0 17
-11 17 -71 0 -67 2 -72 31 -97 17 -15 39 -32 49 -38 17 -9 19 -25 19 -152 1
-94 5 -145 13 -153 6 -6 9 -18 6 -25 -3 -8 0 -14 6 -14 6 0 8 -7 5 -15 -4 -8
-1 -15 7 -15 7 0 9 -3 6 -7 -4 -3 -2 -12 4 -20 6 -7 9 -13 6 -13 -3 0 5 -12
18 -26 13 -14 23 -31 22 -37 -1 -5 20 -24 46 -40 36 -23 64 -32 108 -35 l59
-4 51 -97 c67 -124 532 -951 1033 -1835 218 -385 394 -701 392 -704 -8 -8
-196 109 -299 185 -63 47 -181 156 -309 285 -115 115 -208 211 -208 213 0 3 9
5 19 5 48 0 66 63 35 122 l-16 31 37 -7 c110 -21 117 68 11 161 l-44 39 24 21
c13 12 24 30 24 41 0 23 -47 66 -97 90 -32 15 -44 32 -23 32 5 0 17 11 26 25
25 38 6 71 -54 97 -60 26 -57 23 -33 47 26 26 26 33 4 60 -23 29 -78 40 -187
41 l-89 0 26 24 c38 35 45 73 18 99 -18 19 -32 22 -89 21 -37 -1 -84 -6 -105
-12 -39 -11 -48 -3 -21 18 8 8 27 33 41 57 24 41 24 46 10 61 -15 14 -22 14
-90 -2 -40 -9 -103 -32 -140 -50 -37 -19 -67 -32 -67 -30 0 2 13 25 30 51 48
76 35 107 -41 93 -46 -9 -87 -38 -174 -128 l-66 -67 6 46 c9 61 -6 89 -46 89
-25 0 -43 -12 -90 -61 -61 -64 -139 -201 -139 -245 0 -17 -6 -24 -20 -24 -23
0 -54 -45 -72 -102 -9 -32 -13 -35 -29 -25 -26 16 -48 1 -78 -53 -37 -66 -42
-188 -11 -273 12 -34 27 -68 33 -75 16 -20 6 -21 -53 -6 -62 16 -86 12 -95
-17 -9 -26 34 -117 73 -154 17 -16 32 -33 32 -37 0 -5 -16 -8 -36 -8 -35 0
-36 -1 -30 -31 13 -65 137 -177 216 -194 32 -7 36 -15 19 -46 -28 -52 69 -111
187 -113 41 0 74 -3 74 -7 0 -3 -16 -20 -35 -39 -19 -19 -35 -42 -35 -52 0
-44 81 -62 200 -45 l55 8 0 -38 c0 -35 3 -38 29 -41 52 -6 93 8 171 58 l76 50
10 -30 c21 -60 100 -48 174 27 29 29 62 79 90 138 35 72 51 95 72 103 64 25
66 24 103 -30 109 -161 300 -356 477 -488 110 -82 265 -168 355 -199 l53 -18
6 -84 c7 -105 31 -162 100 -234 85 -90 222 -141 356 -133 l54 3 166 -310 c91
-170 167 -314 170 -321 2 -7 -30 -25 -79 -44 -156 -62 -239 -110 -309 -180
-36 -36 -73 -83 -84 -105 -26 -55 -31 -132 -12 -177 43 -102 158 -95 336 20
109 71 147 55 137 -55 -18 -201 -19 -279 -2 -311 25 -48 58 -65 114 -59 26 2
55 8 65 12 38 16 -56 -189 -114 -247 -24 -24 -31 -26 -56 -17 -23 7 -32 19
-39 47 -10 42 4 36 -294 127 -236 71 -234 71 -260 45 -17 -17 -20 -31 -18 -68
l3 -47 68 -36 69 -36 -65 -51 c-107 -84 -137 -138 -137 -246 1 -105 46 -173
132 -197 52 -13 105 11 131 61 16 30 17 48 11 125 -15 176 -11 183 72 123 128
-94 160 -105 200 -67 l23 21 75 -26 c90 -31 120 -32 184 -8 158 60 331 247
420 454 27 62 37 70 47 38 17 -52 96 -76 154 -45 43 22 102 94 151 185 83 155
124 158 285 21 41 -35 75 -69 75 -75 0 -44 -62 -305 -83 -350 l-26 -56 -55 0
c-46 0 -56 3 -61 20 -13 40 -48 52 -187 61 -213 13 -245 12 -268 -11 -23 -23
-27 -82 -7 -99 8 -6 37 -16 65 -22 29 -7 52 -15 52 -18 0 -4 -34 -40 -76 -81
-83 -82 -116 -132 -134 -199 -25 -94 12 -175 98 -213 41 -19 44 -19 79 -1 77
38 89 85 69 261 l-9 72 25 0 c14 0 45 -7 68 -15 23 -8 65 -22 92 -30 l50 -15
30 31 30 30 92 -10 c91 -10 152 -4 192 17 53 29 127 127 189 256 100 205 163
448 181 704 l7 92 73 0 c40 0 121 -7 178 -16 125 -18 173 -10 205 35 49 69 16
146 -126 289 -84 85 -101 107 -93 121 12 23 126 82 210 110 129 42 172 82 156
145 -17 69 -114 110 -261 109 -106 -1 -196 -20 -316 -68 -48 -19 -89 -35 -93
-35 -3 0 -6 10 -6 23 0 22 -96 588 -105 617 -3 10 13 24 51 44 30 16 70 47 89
69 66 77 99 218 76 330 -12 55 -12 57 14 84 127 136 264 493 290 758 10 105
15 125 30 125 8 0 17 -11 21 -24 8 -33 30 -40 67 -21 38 19 37 19 37 -8 0 -13
5 -28 12 -35 17 -17 83 -15 98 3 21 25 30 17 30 -24 0 -30 6 -44 22 -55 20
-14 25 -14 52 2 17 10 46 39 65 64 l34 46 28 -20 c36 -27 60 -13 94 57 l27 54
28 -21 c27 -20 30 -20 54 -4 17 10 30 32 37 60 l11 44 28 -16 c27 -15 30 -15
48 1 24 22 31 78 21 172 -4 39 -5 72 -3 74 2 2 12 -3 21 -12 10 -8 30 -18 45
-22 57 -15 73 72 33 185 -8 22 -13 40 -11 40 2 0 24 -11 47 -25 24 -14 54 -25
67 -25 18 0 22 6 22 30 0 36 -50 150 -87 198 -14 19 -22 33 -17 31 112 -47
134 -47 134 -1 0 50 -49 106 -175 199 l-30 22 41 1 c25 0 51 7 64 18 22 17 22
20 7 49 -29 56 -176 139 -280 158 -20 4 -37 13 -37 20 0 14 -53 42 -98 51 -25
5 -30 11 -29 33 2 21 -6 30 -43 49 -39 20 -56 23 -123 19 -64 -3 -89 -10 -145
-38 l-68 -35 4 63 c4 52 1 64 -12 69 -26 10 -93 -25 -136 -72 l-39 -42 -3 26
c-5 42 -39 40 -87 -3 -42 -38 -101 -143 -101 -180 0 -29 -9 -36 -31 -24 -27
14 -58 -5 -76 -48 -14 -35 -20 -164 -8 -183 11 -17 -5 -11 -39 15 -42 32 -61
32 -82 0 -19 -28 -14 -93 11 -165 l14 -40 -28 0 c-68 0 -65 -69 6 -158 25 -31
50 -63 56 -70 7 -8 2 -18 -17 -33 -14 -11 -26 -30 -26 -41 0 -53 79 -127 176
-164 24 -9 44 -20 44 -23 0 -17 -115 -384 -155 -497 -66 -183 -153 -357 -174
-348 -43 17 -88 25 -117 21 -33 -6 -33 -6 -44 51 -52 259 -185 819 -239 1004
-19 66 -19 68 -1 116 39 103 53 207 47 352 -9 203 -51 365 -156 600 -28 62
-50 114 -48 115 1 2 56 10 122 19 522 73 967 186 1375 348 360 143 707 343
897 518 l43 41 -15 162 c-54 561 -177 1006 -416 1492 -124 254 -320 565 -431
687 -41 45 -45 47 -108 51 -36 2 -148 1 -251 -3z m-986 -90 c20 -14 35 -25 34
-26 -1 -1 -74 -19 -161 -39 -88 -20 -166 -39 -174 -42 -12 -5 -12 -1 1 23 20
39 64 79 107 99 52 23 148 16 193 -15z m-2995 -1480 c51 -47 57 -75 57 -240
-1 -170 -21 -279 -71 -370 -50 -92 -95 -87 -144 14 -16 34 -34 90 -39 126 l-9
65 -1 -71 c-1 -93 22 -169 65 -212 30 -30 34 -40 34 -84 0 -103 -40 -171 -94
-161 -36 7 -94 68 -123 127 -22 46 -24 47 -18 16 12 -62 47 -129 82 -161 l35
-30 -28 -36 c-15 -20 -40 -43 -56 -52 -29 -16 -29 -17 -21 -76 4 -33 8 -139 8
-235 0 -164 -1 -177 -23 -211 -28 -45 -68 -63 -130 -57 -63 6 -103 37 -141
108 -44 81 -63 176 -63 305 0 139 20 237 72 342 41 83 109 157 155 169 19 5
23 15 29 72 24 238 163 532 303 643 43 35 90 38 121 9z m-1100 -554 c123 -42
260 -139 324 -229 l19 -27 -23 -49 c-21 -45 -26 -49 -68 -56 -67 -10 -124 -39
-152 -76 -64 -86 -63 -180 5 -344 69 -168 81 -221 81 -365 0 -101 -4 -139 -22
-195 -87 -282 -378 -461 -654 -404 -162 33 -340 175 -418 334 -30 60 -67 191
-58 200 3 3 30 -6 61 -21 147 -67 303 -28 362 89 38 76 34 132 -20 291 -58
174 -75 256 -75 376 0 193 78 339 239 445 105 70 253 81 399 31z m492 -265 c0
-6 -9 -25 -20 -44 -23 -39 -70 -168 -70 -194 0 -10 -4 -24 -9 -32 -12 -19 -55
11 -71 49 -21 52 9 159 61 211 20 20 109 28 109 10z m2778 -1593 c129 -53 270
-161 337 -258 l30 -43 -35 -29 c-54 -45 -167 -97 -250 -114 -177 -37 -376 19
-580 164 -111 80 -107 73 -77 125 43 73 144 140 260 172 83 23 237 15 315 -17z
m1578 -815 c14 -32 32 -72 41 -90 14 -28 14 -44 4 -125 -36 -282 -153 -621
-259 -748 l-29 -34 -16 30 c-9 17 -36 56 -62 87 l-45 56 30 49 c72 118 179
400 251 662 46 168 47 170 54 170 3 0 17 -26 31 -57z m-3098 -894 c112 -94
224 -170 337 -230 44 -23 82 -44 84 -45 2 -2 -8 -21 -22 -41 -24 -36 -59 -108
-71 -146 -7 -23 -23 -19 -151 42 -225 108 -477 321 -656 556 l-76 100 48 43
c27 24 49 52 49 63 0 14 7 19 25 19 14 0 28 7 32 16 4 12 43 -23 156 -140 82
-86 192 -193 245 -237z m2673 70 c46 -32 119 -144 146 -222 22 -63 25 -83 20
-167 -7 -133 -38 -198 -123 -259 -38 -28 -43 -29 -47 -14 -3 10 -22 106 -42
213 -21 107 -50 255 -64 328 -25 119 -26 134 -12 143 23 14 89 2 122 -22z
m-1785 -323 c115 -52 191 -158 213 -294 32 -197 -78 -341 -286 -374 -179 -28
-355 56 -420 200 -61 131 -6 348 110 436 101 77 256 90 383 32z m1718 -273
c53 -267 115 -603 152 -827 l26 -158 -43 -45 c-176 -181 -515 -294 -844 -280
-209 8 -349 45 -561 147 l-121 59 -23 53 c-12 29 -85 180 -162 336 -78 155
-139 284 -137 285 2 1 25 12 52 25 26 12 67 40 92 63 47 44 105 146 105 186 0
18 4 23 18 19 343 -101 867 -12 1183 201 73 50 198 172 200 196 1 32 22 -53
63 -260z m185 -1593 c-9 -122 -24 -216 -55 -341 -65 -263 -187 -508 -277 -556
-39 -21 -190 -22 -277 -1 -62 15 -66 22 -55 105 l7 54 83 -7 c46 -4 95 -4 110
0 53 13 105 129 144 322 16 76 21 89 37 86 92 -15 109 -14 138 9 41 32 55 75
67 197 5 59 12 122 15 140 6 31 47 92 63 92 3 0 3 -45 0 -100z m-1104 -163 c8
-13 22 -47 30 -75 l15 -51 -39 -90 c-64 -151 -116 -228 -220 -332 -71 -71
-114 -104 -164 -129 -65 -32 -71 -33 -114 -22 -53 15 -203 82 -203 92 0 17 31
110 39 114 4 3 37 -4 72 -14 35 -11 72 -20 82 -20 53 0 157 151 206 302 19 57
31 75 84 124 131 122 182 146 212 101z m-830 -360 c120 -40 221 -78 223 -84 2
-7 -3 -13 -11 -13 -9 0 -17 6 -20 13 -6 19 -65 -50 -77 -91 -5 -20 -10 -62
-10 -92 1 -47 3 -52 13 -38 14 18 45 8 33 -11 -13 -20 -36 -12 -134 44 -53 30
-101 55 -107 55 -40 -1 -56 -60 -48 -176 7 -98 -5 -137 -48 -154 -38 -16 -93
3 -123 43 -28 38 -35 151 -12 212 19 48 116 146 179 180 20 11 37 22 37 25 0
3 -41 22 -90 44 -95 41 -109 56 -89 100 15 33 3 36 284 -57z m1163 -141 c87
-8 148 -18 155 -26 10 -10 6 -12 -17 -7 -25 4 -30 1 -48 -39 -24 -55 -28 -141
-9 -178 10 -18 17 -23 22 -14 10 16 23 3 16 -15 -5 -12 -21 -11 -104 9 -119
29 -118 29 -144 3 -20 -20 -21 -28 -14 -129 7 -110 3 -131 -31 -164 -38 -38
-124 -3 -144 60 -26 79 29 202 140 313 29 29 67 62 84 72 34 21 36 19 -79 46
-83 19 -102 36 -75 68 15 18 60 18 248 1z"/>
<path d="M3955 5121 c-111 -32 -205 -97 -248 -169 l-17 -30 42 -35 c47 -37
121 -88 155 -106 20 -10 24 -8 39 24 27 57 101 132 157 159 102 50 263 55 385
12 23 -8 42 -14 42 -12 0 7 -132 97 -175 119 -118 59 -259 73 -380 38z"/>
<path d="M4880 2656 c-173 -61 -311 -118 -308 -126 2 -5 77 -187 168 -405
l165 -397 40 6 c49 8 164 63 172 82 3 9 -28 86 -69 172 l-75 157 61 37 c140
84 196 162 196 272 0 76 -24 129 -78 178 -74 67 -136 72 -272 24z m128 -183
c50 -43 28 -94 -58 -138 l-49 -25 -25 56 c-14 31 -26 58 -26 61 0 4 120 62
131 63 4 0 16 -8 27 -17z"/>
<path d="M3707 8008 c-37 -157 -45 -558 -14 -758 55 -359 174 -700 329 -942
74 -116 81 -110 18 15 -212 423 -346 1060 -327 1555 3 83 4 152 3 152 -2 0 -6
-10 -9 -22z"/>
<path d="M2456 6968 c-3 -7 -7 -35 -11 -63 -13 -110 -15 -113 -46 -117 -28 -4
-33 0 -82 83 -29 49 -55 89 -58 89 -3 0 -13 -6 -23 -13 -16 -12 -14 -19 34
-96 l51 -82 -29 -33 -29 -33 -62 44 c-59 41 -64 43 -77 26 -7 -10 -13 -20 -13
-23 -1 -3 29 -24 65 -48 l65 -43 -8 -47 c-19 -114 2 -226 69 -355 72 -139 195
-237 297 -237 40 0 43 -2 37 -22 -14 -52 -19 -158 -7 -158 6 0 11 8 11 18 0
28 35 124 72 199 47 96 113 163 208 212 44 23 80 45 80 48 0 19 -135 -17 -201
-54 -3 -2 -9 29 -12 69 -13 169 -129 359 -263 429 l-45 24 8 55 c13 95 10 134
-10 138 -9 2 -19 -2 -21 -10z m44 -236 c95 -44 208 -204 244 -348 27 -103 22
-145 -23 -208 -21 -31 -44 -69 -51 -85 -15 -37 -45 -45 -103 -27 -156 47 -297
264 -301 465 -1 88 9 134 41 172 51 60 110 69 193 31z"/>
<path d="M2428 6543 c-53 -62 -1 -233 80 -264 78 -30 115 88 60 195 -37 72
-107 107 -140 69z"/>
</g>
</svg>
