<?xml version="1.0" standalone="no"?>
<!DOCTYPE svg PUBLIC "-//W3C//DTD SVG 20010904//EN"
 "http://www.w3.org/TR/2001/REC-SVG-20010904/DTD/svg10.dtd">
<svg version="1.0" xmlns="http://www.w3.org/2000/svg"
 width="727.000000pt" height="624.000000pt" viewBox="0 0 727.000000 624.000000"
 preserveAspectRatio="xMidYMid meet">

<g transform="translate(0.000000,624.000000) scale(0.100000,-0.100000)"
fill="#000000" stroke="none">
<path d="M0 3120 l0 -3120 3635 0 3635 0 0 3120 0 3120 -3635 0 -3635 0 0
-3120z m2635 3017 c446 -84 827 -305 1117 -648 l48 -56 -35 -69 c-97 -194
-101 -444 -12 -646 96 -216 293 -381 544 -458 l72 -22 30 -126 c35 -143 74
-365 92 -522 15 -132 6 -537 -16 -740 -38 -353 -110 -785 -200 -1213 -25 -118
-45 -219 -45 -224 0 -4 35 -16 78 -26 97 -24 222 -82 289 -135 67 -53 162
-185 138 -190 -9 -2 -72 4 -138 13 -312 45 -569 -25 -762 -206 -173 -162 -677
-233 -1115 -157 -36 6 -69 14 -73 18 -4 4 10 48 32 99 85 191 139 390 160 583
21 188 13 291 -55 688 -111 653 -234 1073 -406 1386 -166 302 -432 508 -723
559 -204 35 -310 7 -441 -117 -196 -187 -344 -540 -344 -824 0 -149 79 -494
157 -684 76 -184 181 -329 291 -398 132 -84 281 -80 356 9 54 63 70 114 71
219 0 114 -8 137 -128 349 l-82 144 -12 -92 c-15 -108 -42 -176 -77 -192 -71
-33 -203 147 -242 332 -24 110 -15 380 15 468 72 208 223 301 370 226 27 -13
82 -51 122 -83 210 -167 311 -340 416 -716 24 -88 76 -271 114 -406 95 -332
113 -440 106 -645 -6 -176 -24 -269 -92 -465 -38 -110 -121 -289 -152 -328
l-18 -22 -159 11 c-115 8 -203 8 -320 0 -141 -10 -377 -41 -428 -57 -26 -8
-75 51 -87 104 -12 58 2 106 39 133 l29 22 -73 96 c-504 671 -795 1262 -931
1894 -84 388 -99 922 -35 1239 36 177 91 312 319 793 86 179 317 430 578 625
332 250 725 417 1103 470 94 13 420 5 515 -13z m3990 -384 c138 -30 296 -121
388 -223 243 -270 232 -664 -25 -920 -216 -215 -555 -280 -845 -162 -382 156
-551 581 -370 934 49 96 143 200 235 262 185 122 390 159 617 109z m-1840 -38
c445 -130 669 -590 476 -980 -76 -153 -186 -262 -346 -341 -123 -60 -187 -76
-340 -81 -110 -4 -144 -2 -220 16 -228 55 -420 201 -519 397 -50 98 -70 181
-70 299 -1 123 13 184 69 300 87 182 267 331 469 390 98 29 147 34 271 30 92
-3 141 -10 210 -30z m1527 -1395 c42 -7 117 -11 166 -8 77 3 89 2 86 -11 -20
-86 -88 -820 -129 -1391 -20 -267 -42 -548 -50 -625 -8 -77 -22 -203 -30 -280
-28 -261 -19 -660 21 -914 8 -52 13 -96 10 -98 -2 -2 -39 3 -82 12 -44 9 -125
19 -180 22 l-102 6 24 70 c36 106 50 183 93 537 71 574 72 590 106 1410 13
333 27 634 30 670 7 81 -31 448 -61 594 -5 23 -3 28 8 24 8 -3 49 -11 90 -18z
m-1328 -22 c14 -82 66 -485 76 -598 13 -145 43 -292 185 -930 57 -256 122
-556 145 -667 49 -244 92 -397 166 -591 61 -158 159 -384 216 -496 l34 -68
205 -2 c227 -2 319 -16 424 -65 82 -38 113 -66 184 -170 34 -49 74 -103 90
-119 56 -55 142 -83 299 -97 39 -4 72 -11 72 -16 0 -4 -27 -37 -60 -72 -44
-47 -81 -75 -138 -103 -69 -35 -85 -39 -152 -39 -41 0 -99 6 -129 13 -72 16
-281 15 -356 -2 -33 -8 -91 -26 -129 -40 -82 -32 -324 -81 -457 -94 -74 -7
-111 -6 -160 5 -93 21 -364 21 -456 0 -116 -27 -291 -39 -465 -34 -147 4 -169
7 -224 30 -44 19 -92 29 -175 37 -144 14 -250 6 -364 -28 -81 -24 -106 -27
-255 -27 -160 0 -167 1 -222 27 -130 63 -357 58 -532 -12 -106 -43 -236 -63
-406 -63 -172 -1 -277 19 -337 62 -21 15 -49 33 -61 40 -49 26 -185 42 -446
51 -331 11 -366 17 -421 76 -65 70 -90 76 -296 72 -175 -3 -177 -3 -203 21
-57 54 -55 137 5 161 15 7 79 13 141 14 113 2 113 2 209 49 174 85 439 130
769 130 233 0 387 -16 675 -69 321 -59 338 -62 466 -75 228 -22 538 4 724 61
104 33 212 93 290 162 167 148 409 206 685 163 155 -24 277 -19 458 20 31 7
32 7 32 -29 0 -35 1 -36 39 -36 l38 0 7 193 c4 105 12 275 19 377 18 271 14
426 -17 631 -31 214 -128 734 -156 844 -63 244 -234 676 -434 1099 -31 66 -55
120 -54 122 2 1 46 7 98 13 112 13 223 42 288 76 26 13 50 24 53 25 4 0 9 -15
13 -32z"/>
<path d="M1563 5675 c-191 -53 -318 -204 -283 -334 26 -98 121 -155 260 -155
106 -1 178 20 261 77 108 72 158 161 144 255 -8 54 -62 117 -124 145 -59 26
-188 32 -258 12z"/>
<path d="M2594 4861 c-60 -15 -102 -50 -130 -106 -23 -48 -26 -64 -23 -133 9
-187 161 -358 330 -370 76 -6 120 11 167 62 100 108 72 304 -63 442 -81 83
-197 126 -281 105z"/>
<path d="M706 4656 c-80 -30 -159 -115 -195 -211 -86 -230 113 -356 290 -184
124 120 152 321 54 385 -35 23 -102 27 -149 10z"/>
<path d="M405 3776 c-144 -65 -178 -332 -57 -459 39 -41 74 -57 127 -57 56 0
92 18 134 65 51 58 64 100 65 200 0 75 -3 97 -23 135 -28 53 -66 96 -103 116
-34 18 -103 17 -143 0z"/>
<path d="M3264 3590 c-30 -12 -62 -56 -75 -104 -36 -131 79 -354 217 -422 172
-84 287 40 225 244 -59 194 -240 334 -367 282z"/>
<path d="M6672 5572 c-64 -23 -124 -78 -160 -147 -34 -67 -43 -198 -17 -274
39 -118 144 -201 254 -201 209 0 344 255 247 465 -31 68 -65 106 -125 138 -67
37 -131 43 -199 19z"/>
<path d="M4795 5517 c-136 -45 -222 -159 -233 -307 -10 -144 61 -274 183 -338
40 -20 65 -26 120 -26 126 -1 224 66 283 192 23 48 27 71 27 147 0 76 -4 99
-27 146 -14 31 -42 75 -63 97 -71 79 -200 118 -290 89z"/>
</g>
</svg>
