<?xml version="1.0" standalone="no"?>
<!DOCTYPE svg PUBLIC "-//W3C//DTD SVG 20010904//EN"
 "http://www.w3.org/TR/2001/REC-SVG-20010904/DTD/svg10.dtd">
<svg version="1.0" xmlns="http://www.w3.org/2000/svg"
 width="573.000000pt" height="678.000000pt" viewBox="0 0 573.000000 678.000000"
 preserveAspectRatio="xMidYMid meet">
<metadata>
Created by potrace 1.16, written by Peter Selinger 2001-2019
</metadata>
<g transform="translate(0.000000,678.000000) scale(0.100000,-0.100000)"
fill="#000000" stroke="none">
<path d="M3164 6741 c-128 -45 -202 -85 -309 -166 -125 -95 -210 -178 -286
-279 l-59 -79 -137 2 c-149 2 -426 -30 -604 -69 -188 -41 -369 -94 -396 -116
-26 -20 -27 -25 -27 -120 l-1 -99 57 -90 c85 -135 278 -297 511 -428 l98 -55
3 -88 c2 -50 0 -94 -6 -101 -17 -21 -11 -81 12 -120 l22 -37 -21 -66 c-11 -36
-23 -76 -26 -90 -3 -14 -23 -38 -44 -55 -43 -33 -91 -100 -91 -126 0 -9 14
-35 30 -57 17 -23 30 -45 30 -48 0 -3 -35 -54 -77 -112 -61 -85 -95 -148 -166
-306 -88 -196 -131 -333 -171 -546 l-12 -65 -25 40 c-57 91 -196 448 -295 760
-92 288 -148 508 -194 770 -22 127 -46 250 -53 275 -12 43 -14 45 -66 56 -29
7 -55 15 -58 18 -3 3 -14 49 -24 102 l-18 96 23 46 c47 94 68 174 74 273 7
148 -22 208 -101 209 -29 0 -39 5 -46 23 -5 12 -32 48 -60 79 -67 74 -132 100
-245 99 -68 -1 -87 -5 -138 -33 -93 -49 -168 -139 -215 -257 -35 -89 -38 -103
-36 -186 2 -74 8 -106 33 -171 37 -97 122 -206 214 -275 l63 -48 7 -62 c11
-113 8 -136 -23 -171 -34 -39 -81 -132 -106 -206 l-17 -53 92 -237 c51 -130
108 -277 128 -327 37 -96 156 -339 230 -470 153 -271 362 -561 623 -865 133
-156 422 -438 516 -505 l71 -50 6 -95 c22 -348 270 -1515 425 -2000 38 -118
72 -225 76 -237 l6 -23 1073 0 c590 0 1075 2 1078 5 3 3 -14 67 -39 143 -24
75 -52 173 -63 217 -11 44 -38 127 -60 185 -43 115 -295 1004 -386 1360 -61
241 -133 543 -129 547 1 2 46 12 101 23 307 60 434 81 564 90 80 5 164 12 188
14 58 5 101 -26 186 -131 66 -82 68 -86 141 -305 41 -122 75 -236 75 -255 0
-27 6 -37 33 -54 17 -11 44 -22 60 -26 20 -4 27 -11 27 -29 0 -20 -5 -24 -28
-24 -45 0 -110 -52 -118 -95 -16 -86 30 -186 90 -193 30 -4 32 -9 10 -41 -12
-17 -15 -36 -11 -72 13 -104 64 -144 187 -144 65 0 85 5 143 33 85 42 136 94
186 191 54 106 58 156 26 311 -15 69 -37 143 -49 166 l-23 41 29 34 c51 60 51
67 7 196 -95 278 -194 458 -383 703 -102 133 -117 146 -196 183 l-65 29 -206
-11 c-167 -9 -228 -17 -325 -41 -245 -60 -542 -180 -681 -275 -20 -13 -39 -22
-43 -20 -4 3 -11 33 -14 67 -4 35 -18 128 -32 208 -19 117 -28 148 -44 159
-31 21 -28 95 5 117 28 18 29 6 -16 210 l-28 130 4 365 c3 272 9 414 24 563
11 109 22 200 23 202 2 1 98 7 213 13 306 16 461 47 626 123 127 59 191 152
158 230 -46 112 -363 411 -628 593 -68 47 -111 83 -111 93 0 9 9 71 20 137 11
66 23 176 26 245 6 110 4 135 -15 206 -18 66 -30 88 -61 119 -37 37 -41 38
-91 32 -37 -5 -79 -22 -150 -62 -130 -75 -143 -73 -188 20 -70 148 -110 206
-155 226 -54 24 -66 24 -162 -10z m-2625 -539 c89 -43 153 -135 118 -169 -14
-14 -21 -11 -69 31 -29 26 -78 59 -108 74 -47 23 -67 27 -142 27 -49 0 -88 3
-88 6 0 19 66 53 120 62 45 8 114 -5 169 -31z m-104 -83 c40 -12 133 -77 158
-110 l19 -27 -38 -90 -38 -90 -40 30 c-54 39 -115 65 -187 80 -70 14 -131 2
-192 -38 -22 -14 -40 -24 -42 -22 -7 7 34 137 57 184 44 87 173 123 303 83z
m364 -108 c18 -32 24 -123 12 -185 -11 -61 -20 -80 -28 -58 -10 27 -32 9 -49
-40 -37 -116 -82 -178 -126 -178 -24 0 -33 38 -32 130 0 84 27 173 76 255 49
82 124 121 147 76z m-399 -167 c111 -52 120 -64 120 -144 0 -66 0 -66 -35 -83
-38 -18 -131 -23 -155 -7 -8 5 -12 10 -10 12 3 2 13 8 24 13 52 29 -15 46 -76
20 -54 -22 -108 -73 -108 -101 0 -29 26 -32 35 -4 11 34 42 44 84 26 20 -8 59
-22 86 -29 l50 -14 13 -103 c15 -123 53 -305 82 -389 27 -80 26 -86 -14 -105
-48 -22 -50 -21 -64 27 -20 71 -72 315 -72 340 0 18 -15 35 -57 65 -140 98
-233 249 -233 377 0 33 6 47 33 72 51 48 85 62 157 63 55 0 78 -6 140 -36z
m2421 -105 c166 -16 328 -51 434 -92 129 -51 314 -163 428 -260 l38 -32 -25
-125 c-13 -69 -32 -180 -41 -248 -8 -67 -18 -128 -20 -135 -4 -10 -24 -253
-40 -467 -3 -36 -6 -154 -7 -262 -2 -108 -6 -194 -9 -190 -3 4 -14 36 -23 72
-40 148 -48 170 -62 170 -8 0 -14 -7 -14 -17 0 -9 38 -170 85 -358 46 -188 87
-366 91 -397 l7 -56 -79 -44 c-70 -38 -145 -71 -150 -65 -1 1 -4 142 -7 312
-5 295 -16 417 -48 570 -72 339 -194 497 -492 635 -113 52 -324 99 -447 99
-82 1 -260 -37 -341 -72 -20 -9 -39 -14 -41 -11 -3 2 2 25 10 50 l15 46 61 -6
c69 -7 169 8 204 30 34 22 26 34 -15 22 -55 -16 -203 -15 -233 1 -51 27 -70
53 -70 92 0 43 14 58 29 31 5 -10 33 -31 61 -46 48 -26 58 -28 134 -23 182 11
296 105 296 243 0 107 -52 172 -168 210 -62 20 -180 14 -228 -11 -16 -8 -35
-15 -43 -15 -20 0 -7 55 21 89 55 68 146 75 253 20 132 -68 180 -93 204 -103
34 -15 217 -14 271 2 25 8 76 25 113 39 62 23 78 25 180 20 62 -2 129 -10 149
-16 47 -15 147 -82 206 -138 50 -46 62 -52 62 -28 0 47 -174 181 -272 209
-105 30 -299 18 -378 -23 -47 -25 -159 -43 -227 -37 -75 6 -111 20 -273 106
-41 22 -81 40 -87 40 -19 0 -16 19 15 80 16 31 38 60 53 67 61 30 250 40 420
22z m-2273 -194 c6 -13 24 -31 41 -39 26 -14 30 -22 36 -73 3 -32 15 -110 26
-173 12 -63 23 -135 26 -160 4 -44 4 -45 -44 -77 -27 -18 -53 -33 -59 -33 -12
0 -42 95 -73 230 -23 100 -52 310 -44 323 6 10 43 26 64 26 9 1 21 -10 27 -24z
m222 -269 l22 -118 -31 -31 c-16 -17 -33 -28 -37 -25 -13 14 -61 272 -66 356
-2 36 3 47 28 71 l29 28 17 -81 c9 -45 26 -134 38 -200z m1622 103 c133 -34
167 -217 60 -316 -51 -47 -110 -67 -204 -67 -80 -1 -89 1 -129 29 -86 61 -105
120 -70 219 21 60 49 99 86 119 65 35 161 41 257 16z m258 -605 c30 -8 64 -14
77 -14 12 0 25 -4 28 -10 3 -5 16 -10 29 -10 25 0 51 -24 60 -55 3 -12 4 -10
2 7 -2 15 0 26 3 25 41 -18 59 -32 54 -40 -3 -6 -1 -7 5 -3 6 3 16 1 24 -6 7
-7 18 -13 23 -14 23 -3 55 -17 55 -25 0 -5 5 -9 11 -9 13 0 84 -54 114 -86 28
-31 55 -64 55 -68 0 -2 16 -28 35 -57 19 -30 35 -59 35 -65 0 -7 7 -25 15 -40
16 -31 19 -54 8 -54 -16 1 -68 96 -66 120 2 21 1 22 -5 6 -8 -18 -10 -18 -33
6 -13 14 -42 36 -64 49 -22 13 -48 31 -57 39 -10 9 -39 27 -64 39 -25 13 -48
29 -50 36 -3 7 -14 11 -25 8 -14 -4 -18 -1 -13 10 4 12 1 14 -16 10 -19 -5
-49 6 -115 40 -11 6 -33 12 -50 13 -216 15 -283 16 -379 4 -58 -8 -106 -17
-106 -22 0 -4 -13 -8 -30 -8 -34 0 -108 -26 -129 -46 -19 -17 2 -44 28 -37 30
8 75 -85 106 -220 31 -138 8 -309 -46 -348 -16 -11 -29 -23 -29 -27 0 -4 143
-7 317 -7 l318 0 85 -28 c47 -16 93 -32 102 -38 10 -5 28 -9 40 -9 23 0 108
-25 140 -41 10 -5 29 -9 42 -9 14 0 36 -4 50 -9 13 -6 49 -11 80 -13 30 -2 52
-6 48 -10 -4 -4 -43 -14 -87 -23 -94 -20 -237 -16 -355 10 -284 61 -378 65
-637 25 -105 -16 -129 -17 -177 -6 -77 18 -106 39 -106 78 0 37 53 92 97 101
49 10 62 28 75 104 22 131 -16 316 -80 389 -28 32 -81 64 -106 64 -32 0 -76
35 -76 60 0 31 51 89 103 115 20 11 37 24 37 28 0 5 11 7 25 5 13 -3 23 -1 22
5 -4 19 148 64 258 76 88 10 223 3 295 -15z m299 -284 c79 -43 105 -65 98 -83
-9 -23 -70 -66 -104 -73 -25 -5 -33 -2 -43 16 -14 26 -33 148 -24 161 8 13 10
12 73 -21z m-902 -82 c50 -54 76 -137 77 -253 1 -119 -6 -151 -37 -160 -40
-13 -105 -58 -121 -86 -22 -38 -20 -101 4 -131 11 -14 40 -35 65 -47 55 -26
169 -28 295 -5 49 9 142 15 220 15 123 0 164 -4 300 -31 177 -33 223 -40 286
-40 76 0 175 15 211 33 42 20 40 35 42 -293 1 -276 -16 -260 175 -169 48 23
56 16 56 -57 0 -48 -3 -55 -65 -127 -35 -41 -85 -93 -110 -114 -26 -21 -61
-51 -78 -66 -70 -63 -261 -181 -384 -237 -243 -111 -370 -141 -489 -116 -96
20 -155 41 -249 88 -141 70 -248 149 -366 271 -56 58 -57 60 -88 185 -39 162
-55 372 -41 564 13 178 17 204 51 338 46 177 58 216 106 348 45 121 45 122 77
122 23 0 41 -9 63 -32z m-248 -225 c-6 -16 -28 -90 -49 -165 -47 -167 -73
-364 -69 -533 l3 -120 -24 3 c-14 2 -40 10 -59 18 -18 8 -42 14 -52 14 -29 0
-28 14 22 260 15 71 68 216 121 328 26 57 48 106 48 110 0 10 59 112 65 112 2
0 0 -12 -6 -27z m1226 -139 c49 -25 66 -50 45 -65 -11 -7 -2 -8 30 -2 25 4 75
8 111 8 56 -1 73 -5 107 -29 33 -23 43 -36 51 -74 6 -31 6 -51 0 -59 -20 -24
-160 2 -368 68 -68 22 -162 46 -210 55 -121 22 -117 21 -95 45 46 51 172 91
249 79 23 -3 59 -15 80 -26z m-1561 -651 c15 -32 61 -115 102 -184 69 -118 73
-129 63 -158 -6 -17 -14 -31 -19 -31 -8 0 -94 103 -174 208 -40 52 -47 68 -41
90 4 15 12 51 18 80 6 28 14 52 17 52 3 0 19 -26 34 -57z m161 -52 l80 -29 7
-64 c4 -35 19 -104 33 -152 14 -49 24 -91 22 -93 -16 -15 -162 192 -254 360
-8 14 33 6 112 -22z m2983 -388 c-3 -84 -4 -88 -28 -95 -14 -4 -99 -25 -190
-47 -117 -28 -169 -36 -177 -29 -8 7 -13 36 -13 79 0 57 3 70 19 78 27 15 95
36 176 55 39 9 95 23 125 31 95 24 91 27 88 -72z m1023 -1109 c28 -83 45 -193
40 -256 -3 -40 -34 -135 -49 -150 -5 -5 -10 39 -11 104 -2 115 -23 285 -41
333 -8 20 -7 31 1 42 21 24 33 9 60 -73z m-85 -14 c12 -40 29 -223 28 -305 -1
-135 -4 -154 -30 -184 -21 -25 -97 -71 -117 -71 -2 0 2 39 9 88 17 117 17 226
-1 348 -8 56 -15 107 -17 113 -4 16 71 61 96 58 13 -1 23 -16 32 -47z m-157
-67 c31 -144 23 -434 -15 -491 -14 -21 -22 -24 -54 -19 -108 14 -150 74 -119
168 13 39 58 91 74 86 5 -2 15 -26 21 -53 7 -33 16 -50 27 -52 14 -3 17 5 17
47 0 89 -58 211 -101 211 -25 0 -24 -25 1 -57 22 -29 26 -53 8 -53 -7 0 -29
-12 -49 -26 -21 -14 -43 -23 -49 -19 -20 12 -50 84 -50 120 0 40 43 94 77 96
71 4 68 2 71 46 3 46 -6 42 107 51 18 2 23 -7 34 -55z"/>
<path d="M2984 5376 c-95 -30 -148 -75 -172 -145 -25 -73 -5 -168 48 -222 52
-54 94 -69 189 -69 179 0 301 97 301 239 0 143 -198 249 -366 197z m206 -42
c56 -18 71 -29 104 -78 59 -87 18 -199 -92 -253 -50 -25 -68 -28 -154 -28 -92
0 -98 1 -134 31 -55 44 -76 76 -81 127 -9 81 23 144 96 189 64 40 163 44 261
12z"/>
<path d="M2996 5259 c-55 -43 -22 -112 56 -112 33 0 47 6 65 27 29 34 29 51
-2 81 -30 31 -82 33 -119 4z"/>
<path d="M2856 4931 c-4 -5 14 -27 38 -48 94 -83 244 -96 353 -32 54 33 89 72
47 54 -70 -31 -156 -55 -196 -55 -56 0 -132 27 -180 64 -37 27 -53 32 -62 17z"/>
<path d="M2216 5264 c-23 -22 -20 -57 7 -82 32 -30 78 -29 111 4 50 51 25 94
-54 94 -31 0 -54 -6 -64 -16z"/>
</g>
</svg>
