<?xml version="1.0" standalone="no"?>
<!DOCTYPE svg PUBLIC "-//W3C//DTD SVG 20010904//EN"
 "http://www.w3.org/TR/2001/REC-SVG-20010904/DTD/svg10.dtd">
<svg version="1.0" xmlns="http://www.w3.org/2000/svg"
 width="499.000000pt" height="475.000000pt" viewBox="0 0 499.000000 475.000000"
 preserveAspectRatio="xMidYMid meet">
<metadata>
Created by potrace 1.16, written by Peter Selinger 2001-2019
</metadata>
<g transform="translate(0.000000,475.000000) scale(0.100000,-0.100000)"
fill="#000000" stroke="none">
<path d="M4240 4733 c-85 -16 -498 -125 -680 -180 -232 -70 -580 -191 -779
-272 -69 -28 -127 -49 -129 -46 -2 2 79 95 181 207 102 112 181 204 176 206
-21 8 -488 -208 -722 -334 -421 -226 -673 -410 -847 -617 -30 -36 -56 -64 -57
-63 -2 2 6 49 18 105 11 55 19 109 17 119 -6 26 -276 -248 -373 -380 -70 -94
-137 -199 -229 -361 -20 -35 -57 -70 -147 -138 -177 -133 -373 -259 -522 -334
-73 -37 -133 -70 -135 -75 -4 -10 95 -142 215 -286 270 -324 590 -630 908
-866 l90 -66 57 -149 c31 -82 80 -230 108 -329 91 -325 137 -427 232 -530 103
-110 274 -212 497 -296 115 -44 229 -60 269 -39 78 42 75 208 -8 524 -16 59
-27 107 -24 107 2 0 35 -15 72 -34 186 -94 358 -90 527 12 199 119 447 483
551 806 l37 115 79 -70 c83 -74 229 -183 313 -237 87 -54 254 -128 386 -170
124 -40 318 -86 326 -79 2 2 -21 78 -51 168 -30 90 -67 225 -82 299 -25 121
-28 156 -28 340 -1 181 2 214 21 286 72 262 206 495 426 743 31 36 57 69 57
74 0 15 -322 1 -425 -17 -123 -23 -296 -83 -388 -136 -160 -91 -371 -275 -525
-458 -54 -63 -62 -69 -66 -50 -2 13 -16 95 -30 183 -14 88 -42 250 -61 360
-75 439 -67 634 42 925 76 203 209 430 370 630 74 92 265 290 353 364 57 48
55 52 -20 39z m-1285 -510 c-22 -59 -67 -229 -89 -335 -38 -189 -50 -307 -50
-503 -1 -194 4 -229 65 -544 116 -589 160 -1027 124 -1228 -50 -282 -193 -556
-379 -731 l-66 -61 -139 72 -138 72 57 85 c191 285 334 597 376 818 12 66 15
119 11 222 -7 157 -25 243 -120 560 -112 374 -116 407 -123 930 l-6 395 234
132 c128 73 237 132 242 133 4 0 5 -8 1 -17z m-884 -420 c-61 -122 -124 -357
-142 -532 -15 -153 -4 -232 57 -406 153 -437 162 -486 128 -712 -33 -223 -84
-370 -175 -505 -61 -89 -185 -214 -280 -283 l-82 -59 -112 119 -112 119 61 75
c174 215 256 412 256 610 0 117 -20 210 -94 440 -80 248 -98 345 -99 521 0
133 17 315 32 337 5 8 569 312 579 313 1 0 -6 -17 -17 -37z m-964 -922 c46
-23 100 -80 119 -127 19 -44 18 -136 -2 -182 -33 -80 -137 -152 -220 -152
-133 0 -247 111 -247 240 0 112 70 204 183 241 39 13 123 3 167 -20z"/>
<path d="M925 2831 c-137 -62 -152 -253 -26 -332 90 -58 216 -31 266 56 31 53
39 103 26 153 -22 81 -102 142 -186 142 -22 0 -58 -9 -80 -19z"/>
</g>
</svg>
